<svg xmlns="http://www.w3.org/2000/svg" xmlns:xlink="http://www.w3.org/1999/xlink" width="2560" zoomAndPan="magnify" viewBox="0 0 1920 1079.999946" height="1440" preserveAspectRatio="xMidYMid meet" version="1.2"><defs/><g id="1edddc32c2"><rect x="0" width="1920" y="0" height="1079.999946" style="fill:#ffffff;fill-opacity:1;stroke:none;"/><rect x="0" width="1920" y="0" height="1079.999946" style="fill:#ffffff;fill-opacity:1;stroke:none;"/><g style="fill:#d9d9d9;fill-opacity:1;"><g transform="translate(85.996982, 850.124902)"><path style="stroke:none" d="M 305.601562 -672.003906 C 307.734375 -670.402344 313.066406 -668.800781 321.601562 -667.203125 C 329.066406 -663.46875 333.335938 -659.46875 334.402344 -655.203125 C 342.933594 -651.46875 347.199219 -647.46875 347.199219 -643.203125 C 347.199219 -635.203125 350.402344 -629.867188 356.800781 -627.203125 C 362.132812 -620.269531 364.800781 -613.335938 364.800781 -606.402344 C 363.734375 -604.269531 363.199219 -602.933594 363.199219 -602.402344 C 363.199219 -600.269531 363.46875 -597.46875 364 -594 C 364.535156 -590.535156 365.335938 -586.402344 366.402344 -581.601562 L 366.402344 -580.800781 C 360 -574.933594 354.667969 -567.46875 350.402344 -558.402344 C 345.601562 -554.667969 341.335938 -546.136719 337.601562 -532.800781 C 339.199219 -532.800781 340 -532.269531 340 -531.203125 L 337.601562 -528 L 338.402344 -525.601562 C 334.667969 -513.867188 330.933594 -508 327.199219 -508 L 327.199219 -505.601562 C 329.335938 -505.601562 330.402344 -505.066406 330.402344 -504 C 330.402344 -502.933594 329.066406 -501.601562 326.402344 -500 L 327.199219 -498.402344 L 327.199219 -497.601562 C 325.066406 -491.203125 321.335938 -486.402344 316 -483.203125 C 316 -482.136719 313.066406 -479.46875 307.199219 -475.203125 L 306.402344 -472.800781 C 306.933594 -472.269531 308 -472 309.601562 -472 L 309.601562 -471.203125 C 309.601562 -470.136719 308.535156 -468.800781 306.402344 -467.203125 L 301.601562 -468.800781 C 301.601562 -466.667969 300.535156 -465.601562 298.402344 -465.601562 L 299.199219 -464 C 297.601562 -464 294.132812 -460.535156 288.800781 -453.601562 C 286.132812 -452.535156 284.800781 -451.46875 284.800781 -450.402344 L 284.800781 -448 L 286.402344 -448 C 286.933594 -448.535156 287.734375 -448.800781 288.800781 -448.800781 L 288.800781 -448 C 288.800781 -446.933594 287.46875 -445.867188 284.800781 -444.800781 L 283.199219 -445.601562 C 281.066406 -445.066406 280 -444 280 -442.402344 C 282.132812 -442.402344 283.199219 -441.601562 283.199219 -440 L 277.601562 -436.800781 C 276.535156 -439.46875 275.199219 -441.066406 273.601562 -441.601562 C 273.601562 -439.46875 270.402344 -434.667969 264 -427.203125 L 261.601562 -428.800781 C 261.601562 -427.734375 261.335938 -427.203125 260.800781 -427.203125 L 261.601562 -425.601562 L 261.601562 -422.402344 C 261.066406 -422.402344 260.265625 -421.867188 259.199219 -420.800781 C 259.199219 -422.402344 258.402344 -423.203125 256.800781 -423.203125 L 256 -423.203125 C 256 -421.066406 254.132812 -418.132812 250.402344 -414.402344 C 252 -414.402344 252.800781 -413.867188 252.800781 -412.800781 L 250.402344 -411.203125 C 249.335938 -412.269531 248.535156 -412.800781 248 -412.800781 L 244 -408 C 245.066406 -408 245.601562 -407.734375 245.601562 -407.203125 L 248 -408 L 248.800781 -408 L 248.800781 -404 L 250.402344 -404.800781 C 252 -404.800781 252.800781 -404.269531 252.800781 -403.203125 C 250.667969 -400 248.265625 -397.601562 245.601562 -396 L 244 -396 L 244 -399.203125 L 246.402344 -401.601562 L 243.199219 -401.601562 C 240.535156 -398.933594 237.46875 -396 234 -392.800781 C 230.535156 -389.601562 226.667969 -386.667969 222.402344 -384 C 222.402344 -381.867188 218.667969 -379.46875 211.199219 -376.800781 L 212 -374.402344 C 212 -373.335938 209.332031 -372 204 -370.402344 C 196 -361.867188 189.867188 -357.601562 185.601562 -357.601562 L 185.601562 -356 L 188 -356 L 188 -354.402344 C 188 -353.335938 186.132812 -351.199219 182.402344 -348 L 183.199219 -345.601562 C 181.601562 -342.402344 180.535156 -340.800781 180 -340.800781 L 176.800781 -342.402344 L 175.199219 -342.402344 L 166.402344 -332.800781 L 167.199219 -331.199219 L 167.199219 -329.601562 C 159.199219 -329.601562 152.265625 -322.667969 146.402344 -308.800781 C 140 -303.46875 136.800781 -300.269531 136.800781 -299.199219 C 136.800781 -297.601562 133.601562 -291.199219 127.199219 -280 L 126.402344 -274.402344 C 130.667969 -277.601562 132.800781 -280.265625 132.800781 -282.402344 L 133.601562 -282.402344 L 133.601562 -278.402344 C 134.132812 -278.402344 134.402344 -277.867188 134.402344 -276.800781 C 133.332031 -276.800781 132 -275.46875 130.402344 -272.800781 L 130.402344 -272 L 132.800781 -272.800781 L 132.800781 -272 C 131.199219 -269.867188 129.601562 -265.066406 128 -257.601562 L 128.800781 -255.199219 L 128.800781 -254.402344 C 128.265625 -254.402344 127.46875 -253.867188 126.402344 -252.800781 L 129.601562 -240.800781 L 129.601562 -237.601562 C 129.601562 -236 126.933594 -234.132812 121.601562 -232 L 116.800781 -233.601562 C 113.601562 -222.933594 109.867188 -217.066406 105.601562 -216 C 105.601562 -217.601562 103.46875 -219.734375 99.199219 -222.402344 C 98.667969 -227.199219 97.332031 -229.601562 95.199219 -229.601562 L 92 -229.601562 C 94.132812 -225.867188 95.199219 -223.199219 95.199219 -221.601562 C 95.199219 -220 94.132812 -218.933594 92 -218.402344 L 89.601562 -220 C 88 -220 86.132812 -217.335938 84 -212 L 82.398438 -212 C 79.734375 -213.066406 78.398438 -216 78.398438 -220.800781 L 78.398438 -221.601562 L 79.199219 -224 C 76.535156 -225.066406 75.199219 -228.535156 75.199219 -234.402344 L 74.398438 -234.402344 L 67.199219 -226.402344 L 64.800781 -226.402344 C 63.199219 -226.402344 58.667969 -235.734375 51.199219 -254.402344 C 44.800781 -258.132812 41.066406 -267.734375 40 -283.199219 L 40 -289.601562 C 40 -291.734375 39.734375 -293.066406 39.199219 -293.601562 L 40 -296 C 40 -296.535156 39.464844 -296.800781 38.398438 -296.800781 L 40 -302.402344 L 39.199219 -312 C 39.199219 -312.535156 39.464844 -312.800781 40 -312.800781 L 39.199219 -315.199219 L 48 -344 C 50.667969 -346.667969 52 -349.066406 52 -351.199219 C 56.800781 -355.46875 59.734375 -359.734375 60.800781 -364 C 65.601562 -368.269531 70 -373.335938 74 -379.203125 C 78 -385.066406 81.867188 -391.46875 85.601562 -398.402344 C 96.800781 -407.46875 101.867188 -414.933594 100.800781 -420.800781 C 104.535156 -425.601562 108 -429.335938 111.199219 -432 C 111.199219 -435.203125 113.066406 -437.867188 116.800781 -440 C 129.066406 -457.601562 136.535156 -466.402344 139.199219 -466.402344 C 139.199219 -468 140.800781 -470.402344 144 -473.601562 C 145.601562 -473.601562 146.402344 -473.066406 146.402344 -472 L 140.800781 -464 L 140.800781 -463.203125 C 141.332031 -463.734375 142.132812 -463.46875 143.199219 -462.402344 C 144.265625 -464 145.46875 -465.867188 146.800781 -468 C 148.132812 -470.136719 149.867188 -472.535156 152 -475.203125 L 153.601562 -472.800781 C 150.933594 -469.066406 149.601562 -466.136719 149.601562 -464 C 154.402344 -471.46875 156.800781 -475.734375 156.800781 -476.800781 L 158.402344 -476.800781 L 158.402344 -475.203125 L 160.800781 -477.601562 C 161.867188 -476 162.667969 -475.203125 163.199219 -475.203125 L 168 -480 C 169.066406 -478.933594 169.867188 -478.402344 170.402344 -478.402344 C 170.933594 -479.46875 171.199219 -481.066406 171.199219 -483.203125 L 173.601562 -483.203125 L 173.601562 -480 L 174.402344 -480 C 179.199219 -482.667969 182.667969 -487.734375 184.800781 -495.203125 L 183.199219 -497.601562 C 184.265625 -500.269531 185.867188 -502.667969 188 -504.800781 C 188 -505.335938 188 -506 188 -506.800781 C 188 -507.601562 188.265625 -509.066406 188.800781 -511.203125 L 187.199219 -512 L 184.800781 -511.203125 L 180.800781 -512 L 176 -507.203125 L 176 -506.402344 L 176.800781 -504 C 167.199219 -498.667969 162.402344 -493.601562 162.402344 -488.800781 C 160.800781 -488.800781 158.402344 -486.933594 155.199219 -483.203125 L 154.402344 -484.800781 C 155.46875 -484.800781 156.265625 -486.402344 156.800781 -489.601562 L 156 -491.203125 C 160.265625 -496 164.265625 -500.800781 168 -505.601562 C 171.734375 -510.402344 175.199219 -515.203125 178.402344 -520 L 180.800781 -519.203125 C 180.800781 -520.800781 184.265625 -524.269531 191.199219 -529.601562 L 192.800781 -529.601562 L 193.601562 -525.601562 C 192.535156 -525.601562 192 -524.800781 192 -523.203125 L 196.800781 -521.601562 C 196.800781 -523.203125 197.601562 -524.269531 199.199219 -524.800781 C 200.265625 -523.734375 200.800781 -523.203125 200.800781 -523.203125 L 201.601562 -523.203125 L 204.800781 -524.800781 C 205.332031 -524.269531 205.601562 -523.203125 205.601562 -521.601562 L 208 -521.601562 C 208 -523.734375 209.601562 -525.601562 212.800781 -527.203125 L 214.402344 -527.203125 L 214.402344 -523.203125 L 220 -530.402344 L 217.601562 -537.601562 C 226.132812 -546.667969 230.933594 -552.535156 232 -555.203125 C 231.46875 -557.335938 230.933594 -558.402344 230.402344 -558.402344 L 221.601562 -551.203125 C 221.601562 -552.800781 220.535156 -553.601562 218.402344 -553.601562 C 217.335938 -552.535156 216.535156 -552 216 -552 L 217.601562 -549.601562 C 211.199219 -542.667969 206.402344 -539.203125 203.199219 -539.203125 L 200.800781 -541.601562 L 199.199219 -540.800781 L 198.402344 -542.402344 C 201.066406 -546.136719 203.734375 -549.601562 206.402344 -552.800781 C 209.066406 -556 211.46875 -559.203125 213.601562 -562.402344 C 215.199219 -562.402344 216 -561.867188 216 -560.800781 C 214.933594 -559.734375 214.402344 -559.203125 214.402344 -559.203125 L 217.601562 -560 C 217.601562 -562.136719 218.132812 -563.203125 219.199219 -563.203125 L 221.601562 -563.203125 L 221.601562 -561.601562 C 221.601562 -561.070312 221.066406 -560.800781 220 -560.800781 C 221.066406 -558.667969 221.601562 -557.601562 221.601562 -557.601562 C 222.667969 -557.601562 224 -559.734375 225.601562 -564 L 222.402344 -564 L 222.402344 -564.800781 C 228.265625 -573.867188 231.734375 -578.402344 232.800781 -578.402344 L 231.199219 -580.800781 C 235.46875 -590.402344 239.734375 -595.203125 244 -595.203125 L 244.800781 -595.203125 C 244.800781 -594.667969 245.066406 -594.402344 245.601562 -594.402344 C 248.265625 -597.601562 251.46875 -604 255.199219 -613.601562 C 256.800781 -613.601562 260.535156 -618.136719 266.402344 -627.203125 C 267.46875 -628.269531 269.199219 -630.667969 271.601562 -634.402344 C 274 -638.136719 276.800781 -643.203125 280 -649.601562 L 280 -651.203125 C 280 -651.734375 279.867188 -653.070312 279.601562 -655.203125 C 279.335938 -657.335938 278.933594 -660.269531 278.402344 -664.003906 C 278.402344 -669.335938 287.46875 -672.003906 305.601562 -672.003906 Z M 248.800781 -585.601562 L 248.800781 -584.800781 L 250.402344 -584.800781 C 250.402344 -585.867188 250.667969 -586.933594 251.199219 -588 L 250.402344 -588 C 249.335938 -588 248.800781 -587.203125 248.800781 -585.601562 Z M 445.601562 -589.601562 C 456.269531 -584.269531 466.402344 -576.535156 476 -566.402344 C 480.269531 -566.402344 493.867188 -557.335938 516.800781 -539.203125 C 530.136719 -528.535156 543.203125 -519.734375 556 -512.800781 C 565.601562 -502.136719 571.46875 -496.800781 573.601562 -496.800781 C 593.867188 -482.933594 607.734375 -471.734375 615.203125 -463.203125 C 617.867188 -463.203125 622.667969 -458.933594 629.601562 -450.402344 C 631.203125 -449.867188 633.203125 -448.667969 635.601562 -446.800781 C 638.003906 -444.933594 641.070312 -442.667969 644.800781 -440 C 661.335938 -432 669.867188 -427.203125 670.402344 -425.601562 C 673.601562 -418.667969 677.867188 -415.46875 683.203125 -416 L 683.203125 -413.601562 L 688.800781 -413.601562 L 712.003906 -399.203125 L 722.402344 -390.402344 C 726.136719 -390.402344 731.203125 -382.933594 737.601562 -368 C 737.601562 -361.601562 740.003906 -357.066406 744.800781 -354.402344 L 746.402344 -344 C 745.867188 -341.335938 745.601562 -339.066406 745.601562 -337.199219 C 745.601562 -335.335938 745.601562 -334.132812 745.601562 -333.601562 C 747.203125 -333.601562 748.003906 -330.933594 748.003906 -325.601562 C 744.800781 -322.402344 742.136719 -317.066406 740.003906 -309.601562 C 733.070312 -302.132812 729.601562 -297.601562 729.601562 -296 C 729.601562 -294.402344 726.9375 -292 721.601562 -288.800781 L 721.601562 -287.199219 C 718.9375 -287.734375 716.800781 -288.132812 715.203125 -288.402344 C 713.601562 -288.667969 712.269531 -288.800781 711.203125 -288.800781 L 707.203125 -288 C 704.535156 -290.132812 702.402344 -291.199219 700.800781 -291.199219 C 700.269531 -291.199219 699.46875 -290.667969 698.402344 -289.601562 C 693.601562 -291.199219 689.867188 -292 687.203125 -292 C 687.203125 -290.402344 686.136719 -289.335938 684.003906 -288.800781 L 683.203125 -288.800781 C 682.136719 -288.265625 681.070312 -288.535156 680.003906 -289.601562 C 678.933594 -289.601562 678.402344 -289.066406 678.402344 -288 C 673.070312 -288 661.867188 -293.867188 644.800781 -305.601562 C 640.003906 -305.601562 634.402344 -309.601562 628.003906 -317.601562 C 622.136719 -320.269531 617.867188 -324 615.203125 -328.800781 C 610.933594 -328.800781 605.070312 -334.933594 597.601562 -347.199219 C 592.800781 -348.800781 589.867188 -350.933594 588.800781 -353.601562 L 588.800781 -358.402344 C 585.601562 -358.402344 583.46875 -360.800781 582.402344 -365.601562 C 576.535156 -368.269531 573.335938 -371.734375 572.800781 -376 C 565.867188 -382.933594 561.601562 -389.066406 560 -394.402344 C 558.402344 -394.402344 549.601562 -404.535156 533.601562 -424.800781 C 522.402344 -439.734375 511.867188 -452.667969 502 -463.601562 C 492.136719 -474.535156 482.933594 -483.734375 474.402344 -491.203125 L 437.601562 -540 L 427.203125 -561.601562 L 426.402344 -575.203125 C 428 -575.203125 429.601562 -576.800781 431.203125 -580 C 431.734375 -580 432 -579.46875 432 -578.402344 C 434.132812 -578.402344 435.734375 -580.535156 436.800781 -584.800781 C 440.535156 -584.800781 443.46875 -586.402344 445.601562 -589.601562 Z M 243.199219 -576.800781 L 243.199219 -576 L 244 -576 L 244.800781 -580 C 243.734375 -580 243.199219 -578.933594 243.199219 -576.800781 Z M 240.800781 -576 L 240 -576 L 240 -571.203125 L 240.800781 -571.203125 Z M 212.800781 -556.800781 L 212 -556.800781 C 212 -555.203125 210.402344 -553.070312 207.199219 -550.402344 L 207.199219 -548.800781 C 210.933594 -552 212.800781 -554.402344 212.800781 -556 Z M 221.601562 -556.800781 L 219.199219 -556.800781 L 219.199219 -554.402344 L 221.601562 -554.402344 Z M 200.800781 -540.800781 L 201.601562 -540.800781 L 201.601562 -539.203125 L 197.601562 -533.601562 L 194.402344 -533.601562 L 194.402344 -535.203125 C 194.402344 -536.269531 196.535156 -538.136719 200.800781 -540.800781 Z M 346.402344 -539.203125 L 346.402344 -541.601562 L 347.199219 -541.601562 L 347.199219 -539.203125 Z M 344 -536 L 344 -538.402344 L 345.601562 -538.402344 L 345.601562 -536 Z M 198.402344 -532.800781 L 200 -533.601562 L 201.601562 -533.601562 L 201.601562 -532.800781 C 200.535156 -529.601562 200 -527.734375 200 -527.203125 L 198.402344 -527.203125 L 198.402344 -529.601562 L 199.199219 -531.203125 C 198.667969 -531.203125 198.402344 -531.734375 198.402344 -532.800781 Z M 340.800781 -532 L 340.800781 -535.203125 L 342.402344 -535.203125 L 342.402344 -532 Z M 175.199219 -497.601562 L 175.199219 -499.203125 L 177.601562 -499.203125 C 177.601562 -498.136719 177.066406 -497.601562 176 -497.601562 Z M 169.601562 -492 L 173.601562 -495.203125 C 175.199219 -495.203125 176 -494.402344 176 -492.800781 L 171.199219 -489.601562 C 170.132812 -489.601562 169.601562 -490.402344 169.601562 -492 Z M 152 -482.402344 L 152 -481.601562 C 152 -480 151.46875 -479.203125 150.402344 -479.203125 L 149.601562 -479.203125 C 149.601562 -480.800781 150.402344 -481.867188 152 -482.402344 Z M 164 -470.402344 L 164 -468.800781 L 166.402344 -468.800781 C 165.867188 -469.335938 166.402344 -470.933594 168 -473.601562 C 165.332031 -472.535156 164 -471.46875 164 -470.402344 Z M 132.800781 -445.601562 L 134.402344 -438.402344 L 138.402344 -438.402344 L 137.601562 -443.203125 C 137.066406 -442.667969 136.265625 -442.402344 135.199219 -442.402344 L 133.601562 -444.800781 C 135.734375 -445.335938 136.800781 -447.203125 136.800781 -450.402344 C 136.800781 -450.402344 135.46875 -448.800781 132.800781 -445.601562 Z M 404 -444.800781 L 412.800781 -444.800781 C 415.46875 -444.800781 418.132812 -443.734375 420.800781 -441.601562 L 428.800781 -441.601562 C 438.402344 -439.46875 443.203125 -437.867188 443.203125 -436.800781 L 457.601562 -430.402344 C 462.402344 -430.933594 473.601562 -423.203125 491.203125 -407.203125 C 498.667969 -401.867188 504.269531 -393.867188 508 -383.203125 C 508 -380 508.269531 -378.132812 508.800781 -377.601562 C 508.269531 -377.066406 508 -375.734375 508 -373.601562 C 510.136719 -370.933594 511.203125 -368 511.203125 -364.800781 L 508 -358.402344 C 509.601562 -358.402344 510.667969 -355.734375 511.203125 -350.402344 C 509.066406 -350.402344 505.335938 -347.734375 500 -342.402344 L 497.601562 -342.402344 C 496 -342.402344 495.203125 -342.933594 495.203125 -344 C 490.402344 -343.46875 487.203125 -341.867188 485.601562 -339.199219 C 485.066406 -339.199219 484.800781 -339.734375 484.800781 -340.800781 C 482.667969 -340.800781 479.46875 -337.867188 475.203125 -332 C 469.867188 -332 461.601562 -326.402344 450.402344 -315.199219 L 448.800781 -316 C 447.203125 -314.402344 442.402344 -312.269531 434.402344 -309.601562 C 434.402344 -308 431.203125 -305.066406 424.800781 -300.800781 L 422.402344 -301.601562 C 419.734375 -298.933594 415.203125 -296.535156 408.800781 -294.402344 C 406.132812 -291.734375 400.269531 -289.601562 391.203125 -288 L 391.203125 -288.800781 C 369.335938 -284.535156 358.402344 -279.734375 358.402344 -274.402344 C 357.867188 -273.867188 357.601562 -272.800781 357.601562 -271.199219 C 358.667969 -271.199219 359.199219 -270.667969 359.199219 -269.601562 L 359.199219 -265.601562 C 357.066406 -265.601562 352.800781 -261.867188 346.402344 -254.402344 C 348 -254.402344 349.066406 -254.132812 349.601562 -253.601562 C 351.734375 -254.132812 352.800781 -254.933594 352.800781 -256 C 352.269531 -256.535156 352 -257.601562 352 -259.199219 L 355.199219 -259.199219 C 355.199219 -253.335938 352.800781 -247.46875 348 -241.601562 L 348 -238.402344 L 348.800781 -238.402344 L 348.800781 -240 L 350.402344 -240 L 350.402344 -239.199219 C 350.402344 -238.132812 345.867188 -234.667969 336.800781 -228.800781 C 336.800781 -227.199219 335.734375 -226.402344 333.601562 -226.402344 L 334.402344 -220.800781 C 333.335938 -218.132812 332.535156 -216.800781 332 -216.800781 C 331.46875 -217.867188 331.199219 -218.933594 331.199219 -220 L 329.601562 -220 C 329.601562 -216.800781 325.867188 -209.066406 318.402344 -196.800781 L 318.402344 -193.601562 L 320 -193.601562 C 323.734375 -195.734375 325.601562 -197.601562 325.601562 -199.199219 C 324.535156 -199.199219 324 -199.734375 324 -200.800781 C 324 -202.402344 324.535156 -203.199219 325.601562 -203.199219 C 326.132812 -202.132812 326.402344 -200.800781 326.402344 -199.199219 C 327.46875 -199.199219 329.066406 -201.066406 331.199219 -204.800781 L 331.199219 -205.601562 L 330.402344 -205.601562 L 328.800781 -204 L 327.199219 -206.402344 C 328.269531 -206.402344 328.800781 -206.667969 328.800781 -207.199219 C 332 -206.132812 333.601562 -205.601562 333.601562 -205.601562 C 342.132812 -214.667969 346.402344 -222.933594 346.402344 -230.402344 L 348.800781 -232.800781 L 349.601562 -232.800781 L 351.199219 -232 C 353.335938 -237.335938 355.199219 -240 356.800781 -240 L 358.402344 -240 L 358.402344 -239.199219 L 356.800781 -236.800781 C 357.867188 -235.734375 358.402344 -234.667969 358.402344 -233.601562 L 350.402344 -228 L 351.199219 -225.601562 L 350.402344 -224 L 351.199219 -224 C 355.46875 -227.734375 358.402344 -229.601562 360 -229.601562 C 362.132812 -233.335938 365.335938 -236 369.601562 -237.601562 C 369.601562 -238.132812 376.269531 -242.667969 389.601562 -251.199219 C 396.535156 -257.066406 401.335938 -263.199219 404 -269.601562 C 406.667969 -278.667969 413.601562 -283.46875 424.800781 -284 C 424.800781 -283.46875 425.066406 -283.199219 425.601562 -283.199219 C 425.601562 -284.800781 426.402344 -285.601562 428 -285.601562 L 442.402344 -285.601562 C 442.933594 -287.199219 447.203125 -288.535156 455.203125 -289.601562 C 455.203125 -289.066406 460 -286.667969 469.601562 -282.402344 C 469.601562 -279.199219 473.601562 -277.601562 481.601562 -277.601562 C 485.867188 -271.734375 488 -265.867188 488 -260 L 488.800781 -260 C 490.933594 -260 492 -260.265625 492 -260.800781 C 503.203125 -260.265625 508.800781 -255.46875 508.800781 -246.402344 C 510.933594 -246.402344 514.933594 -242.667969 520.800781 -235.199219 L 527.203125 -212 L 525.601562 -209.601562 C 528.800781 -204.265625 530.402344 -201.066406 530.402344 -200 C 527.203125 -187.199219 520 -176 508.800781 -166.402344 C 508.800781 -165.332031 508.535156 -164.265625 508 -163.199219 C 508.535156 -162.667969 508.800781 -161.332031 508.800781 -159.199219 C 506.136719 -156.535156 502.667969 -150.402344 498.402344 -140.800781 L 492 -133.601562 C 491.46875 -138.402344 490.402344 -140.800781 488.800781 -140.800781 L 488 -139.199219 L 488 -134.402344 L 490.402344 -132 C 485.601562 -127.199219 483.203125 -123.734375 483.203125 -121.601562 L 485.601562 -119.199219 C 486.136719 -120.265625 486.402344 -121.332031 486.402344 -122.398438 L 488 -122.398438 L 488 -121.601562 L 486.402344 -116.800781 L 484.800781 -118.398438 C 482.667969 -118.398438 480.269531 -112.265625 477.601562 -100 C 477.066406 -100 476.800781 -99.734375 476.800781 -99.199219 L 476.800781 -98.398438 L 477.601562 -92 C 476 -86.132812 474.402344 -81.867188 472.800781 -79.199219 C 475.46875 -73.867188 482.933594 -69.332031 495.203125 -65.601562 C 501.601562 -56.535156 506.933594 -52 511.203125 -52 L 516.800781 -53.601562 C 517.867188 -52 518.667969 -51.199219 519.203125 -51.199219 L 520.800781 -52.800781 C 526.136719 -50.667969 528.800781 -48.265625 528.800781 -45.601562 L 531.203125 -46.398438 C 535.46875 -43.734375 537.601562 -40.800781 537.601562 -37.601562 C 539.734375 -37.601562 541.867188 -36.800781 544 -35.199219 C 545.066406 -35.734375 546.136719 -36 547.203125 -36 C 548.800781 -33.867188 549.601562 -32.265625 549.601562 -31.199219 L 554.402344 -35.199219 C 555.46875 -35.199219 557.070312 -32.535156 559.203125 -27.199219 C 558.667969 -26.132812 558.269531 -25.066406 558 -24 C 557.734375 -22.933594 557.601562 -21.867188 557.601562 -20.800781 L 559.203125 -19.199219 L 557.601562 -16.800781 L 559.203125 -12.800781 L 555.203125 -5.601562 C 555.734375 -5.066406 557.070312 -4.800781 559.203125 -4.800781 L 559.203125 -3.199219 C 557.601562 0.535156 556.269531 2.398438 555.203125 2.398438 L 554.402344 3.199219 L 552 1.601562 L 551.203125 4 L 549.601562 3.199219 L 548 3.199219 C 543.734375 5.332031 539.46875 9.332031 535.203125 15.199219 C 518.667969 17.332031 509.601562 20.800781 508 25.601562 L 506.402344 27.199219 C 506.402344 24 505.601562 22.398438 504 22.398438 L 502.402344 22.398438 C 498.667969 29.332031 494.933594 32.800781 491.203125 32.800781 L 491.203125 30.398438 L 493.601562 30.398438 L 493.601562 28 C 488.800781 31.199219 485.867188 32.800781 484.800781 32.800781 L 482.402344 29.601562 L 482.402344 27.199219 L 484.800781 24 C 484.800781 22.398438 483.734375 21.332031 481.601562 20.800781 C 478.402344 26.132812 476.535156 28.800781 476 28.800781 L 475.203125 28.800781 L 475.203125 28 L 476 25.601562 L 475.203125 25.601562 C 472 28.800781 468.535156 30.398438 464.800781 30.398438 C 464.800781 29.332031 463.734375 28.535156 461.601562 28 L 448 33.601562 L 448 31.199219 L 448.800781 28.800781 L 445.601562 28.800781 C 444.535156 28.800781 442.402344 30.933594 439.203125 35.199219 L 436.800781 35.199219 C 434.667969 34.132812 433.601562 33.601562 433.601562 33.601562 L 433.601562 30.398438 C 434.667969 30.398438 436.535156 29.066406 439.203125 26.398438 C 439.203125 28 439.734375 28.800781 440.800781 28.800781 C 441.867188 28.800781 443.203125 27.199219 444.800781 24 C 444.800781 21.867188 444 21.332031 442.402344 22.398438 L 440 22.398438 L 434.402344 23.199219 L 432 22.398438 C 431.46875 22.933594 430.667969 23.199219 429.601562 23.199219 L 430.402344 25.601562 L 430.402344 26.398438 C 428.800781 26.398438 426.933594 27.464844 424.800781 29.601562 L 421.601562 29.601562 C 421.601562 30.667969 420.800781 31.734375 419.203125 32.800781 L 413.601562 32.800781 C 412.535156 32.800781 412 32.535156 412 32 C 405.066406 35.734375 400.535156 37.601562 398.402344 37.601562 L 396 37.601562 C 396 42.398438 394.667969 44.800781 392 44.800781 L 384.800781 44.800781 L 384.800781 44 L 388.800781 39.199219 L 388.800781 30.398438 C 388.800781 30.398438 390.132812 28.535156 392.800781 24.800781 L 398.402344 26.398438 L 402.402344 24.800781 C 402.933594 25.867188 403.203125 26.933594 403.203125 28 C 404.800781 28 406.132812 25.066406 407.203125 19.199219 C 406.132812 20.265625 405.601562 19.734375 405.601562 17.601562 C 409.867188 16 413.601562 13.601562 416.800781 10.398438 L 416 8 C 416.535156 7.464844 416.800781 6.132812 416.800781 4 L 416 4 C 416 1.867188 418.132812 -0.535156 422.402344 -3.199219 C 422.402344 -4.265625 422.535156 -5.332031 422.800781 -6.398438 C 423.066406 -7.464844 423.46875 -9.066406 424 -11.199219 C 418.667969 -18.667969 415.203125 -26.667969 413.601562 -35.199219 C 412 -35.199219 410.667969 -35.734375 409.601562 -36.800781 C 410.132812 -37.332031 410.402344 -38.398438 410.402344 -40 C 410.402344 -42.132812 406.933594 -44.800781 400 -48 L 391.203125 -67.199219 C 391.203125 -68.265625 390.800781 -70.800781 390 -74.800781 C 389.203125 -78.800781 387.734375 -83.734375 385.601562 -89.601562 L 384.800781 -109.601562 C 384.800781 -110.667969 384.800781 -112 384.800781 -113.601562 C 384.800781 -115.199219 384.535156 -117.066406 384 -119.199219 C 384.535156 -124 386.132812 -129.332031 388.800781 -135.199219 L 386.402344 -133.601562 C 385.335938 -133.601562 384.800781 -134.132812 384.800781 -135.199219 C 385.867188 -138.402344 386.402344 -140 386.402344 -140 L 385.601562 -144.800781 L 387.203125 -146.402344 L 388 -146.402344 L 388 -144.800781 C 388 -143.734375 387.734375 -143.199219 387.203125 -143.199219 C 387.734375 -142.667969 388 -141.867188 388 -140.800781 C 388 -139.734375 388.269531 -138.402344 388.800781 -136.800781 L 389.601562 -136.800781 C 389.601562 -137.332031 390.132812 -139.199219 391.203125 -142.402344 C 390.667969 -142.933594 390.402344 -144.265625 390.402344 -146.402344 C 391.46875 -147.46875 392.269531 -148 392.800781 -148 L 392 -157.601562 L 392 -160 C 394.667969 -160 396.269531 -161.867188 396.800781 -165.601562 L 395.203125 -167.199219 C 396.800781 -175.199219 398.933594 -183.46875 401.601562 -192 L 400.800781 -197.601562 C 400.800781 -198.667969 401.867188 -201.066406 404 -204.800781 L 404 -208 C 402.402344 -208 401.601562 -208.535156 401.601562 -209.601562 L 401.601562 -211.199219 L 402.402344 -211.199219 L 404 -210.402344 L 404 -216 L 390.402344 -208 C 389.335938 -208.535156 388.269531 -208.800781 387.203125 -208.800781 C 387.203125 -207.199219 384 -205.066406 377.601562 -202.402344 C 369.066406 -196 359.199219 -186.933594 348 -175.199219 L 348 -176.800781 L 348.800781 -179.199219 L 348 -178.402344 C 344.800781 -176.265625 343.199219 -174.667969 343.199219 -173.601562 C 344.269531 -172.535156 344.800781 -171.734375 344.800781 -171.199219 C 342.132812 -169.601562 340.800781 -168.265625 340.800781 -167.199219 C 339.199219 -162.933594 337.867188 -160.800781 336.800781 -160.800781 L 332 -162.402344 L 332 -160.800781 C 332 -160.800781 332.535156 -159.734375 333.601562 -157.601562 C 325.601562 -148 320.800781 -140.535156 319.199219 -135.199219 C 319.734375 -134.667969 320 -133.867188 320 -132.800781 L 312.800781 -124.800781 L 313.601562 -123.199219 L 313.601562 -122.398438 C 312.535156 -110.132812 310.132812 -104 306.402344 -104 L 306.402344 -103.199219 C 306.402344 -101.601562 307.199219 -100.800781 308.800781 -100.800781 C 308.800781 -101.332031 308.800781 -101.601562 308.800781 -101.601562 L 310.402344 -100 L 310.402344 -96 L 309.601562 -96 L 307.199219 -96.800781 C 302.402344 -90.398438 300 -85.867188 300 -83.199219 L 300 -79.199219 C 298.402344 -79.199219 296.269531 -68.800781 293.601562 -48 L 294.402344 -37.601562 L 293.601562 -36.800781 C 295.199219 -30.398438 296.800781 -27.199219 298.402344 -27.199219 L 299.199219 -27.199219 C 299.199219 -32 300.800781 -34.667969 304 -35.199219 L 304.800781 -35.199219 C 305.867188 -35.199219 306.402344 -34.667969 306.402344 -33.601562 C 304.800781 -31.464844 304 -28.265625 304 -24 L 304 -23.199219 C 305.066406 -21.601562 306.132812 -18.398438 307.199219 -13.601562 L 306.402344 -12 C 309.066406 -7.734375 310.933594 -1.332031 312 7.199219 C 311.46875 7.734375 311.199219 9.066406 311.199219 11.199219 L 313.601562 14.398438 L 313.601562 22.398438 C 313.601562 22.933594 313.335938 23.464844 312.800781 24 C 313.867188 25.601562 314.402344 26.398438 314.402344 26.398438 C 313.867188 36.535156 312 41.601562 308.800781 41.601562 L 308 41.601562 C 307.46875 41.601562 307.199219 41.066406 307.199219 40 L 303.199219 42.398438 C 298.402344 39.734375 294.535156 37.199219 291.601562 34.800781 C 288.667969 32.398438 286.667969 30.667969 285.601562 29.601562 C 285.601562 30.132812 283.46875 32.535156 279.199219 36.800781 C 275.46875 33.601562 273.066406 29.601562 272 24.800781 L 269.601562 25.601562 L 269.601562 24.800781 C 269.601562 18.933594 270.402344 15.199219 272 13.601562 C 271.46875 12.535156 271.199219 11.464844 271.199219 10.398438 L 272 10.398438 C 271.46875 7.199219 270.402344 5.601562 268.800781 5.601562 L 268 5.601562 L 268.800781 11.199219 C 269.867188 13.867188 269.066406 15.734375 266.402344 16.800781 C 265.335938 15.734375 264.800781 15.199219 264.800781 15.199219 L 265.601562 10.398438 L 265.601562 8.800781 L 264.800781 8.800781 C 262.132812 8.800781 260.265625 14.132812 259.199219 24.800781 L 259.199219 25.601562 L 257.601562 25.601562 L 257.601562 20 C 257.601562 16.800781 254.132812 12.535156 247.199219 7.199219 C 246.667969 4.535156 243.46875 1.332031 237.601562 -2.398438 C 231.734375 -7.734375 227.199219 -16.800781 224 -29.601562 C 223.46875 -31.734375 223.199219 -33.464844 223.199219 -34.800781 C 223.199219 -36.132812 223.199219 -37.066406 223.199219 -37.601562 C 222.132812 -53.601562 223.734375 -63.734375 228 -68 C 230.667969 -72.265625 232.933594 -77.199219 234.800781 -82.800781 C 236.667969 -88.398438 238.667969 -94.398438 240.800781 -100.800781 L 240 -102.398438 C 244.265625 -117.867188 248.667969 -132.265625 253.199219 -145.601562 C 257.734375 -158.933594 262.132812 -171.46875 266.402344 -183.199219 C 265.867188 -185.332031 267.734375 -191.199219 272 -200.800781 C 272 -205.601562 273.867188 -209.867188 277.601562 -213.601562 L 276.800781 -216 C 282.132812 -233.601562 291.734375 -253.867188 305.601562 -276.800781 C 307.734375 -278.933594 309.867188 -281.601562 312 -284.800781 C 314.132812 -288 316.269531 -292 318.402344 -296.800781 C 317.867188 -298.402344 308.269531 -304 289.601562 -313.601562 L 283.199219 -317.601562 C 282.132812 -317.066406 281.066406 -316.667969 280 -316.402344 C 278.933594 -316.132812 277.867188 -316 276.800781 -316 C 273.066406 -322.933594 266.402344 -331.734375 256.800781 -342.402344 C 254.132812 -348.269531 251.734375 -354 249.601562 -359.601562 C 247.46875 -365.199219 245.867188 -370.132812 244.800781 -374.402344 L 246.402344 -382.402344 C 245.867188 -382.933594 245.601562 -384.269531 245.601562 -386.402344 L 245.601562 -390.402344 L 257.601562 -398.402344 L 261.601562 -398.402344 C 264.265625 -397.335938 268 -396 272.800781 -394.402344 C 277.601562 -392.800781 283.734375 -391.46875 291.199219 -390.402344 C 292.800781 -388.800781 293.601562 -387.734375 293.601562 -387.203125 L 296 -388.800781 L 302.402344 -388.800781 C 304 -388.800781 313.867188 -392.535156 332 -400 C 333.066406 -400 333.867188 -399.734375 334.402344 -399.203125 C 340.800781 -399.203125 347.46875 -401.867188 354.402344 -407.203125 C 355.46875 -408.269531 356.800781 -408.800781 358.402344 -408.800781 L 360 -407.203125 C 361.601562 -408.269531 364 -409.335938 367.199219 -410.402344 L 370.402344 -410.402344 L 370.402344 -414.402344 C 373.601562 -414.933594 376 -419.46875 377.601562 -428 L 384.800781 -428 L 384.800781 -434.402344 C 384.800781 -436.535156 389.066406 -437.867188 397.601562 -438.402344 C 397.601562 -438.402344 399.734375 -440.535156 404 -444.800781 Z M 268 -430.402344 L 270.402344 -430.402344 L 270.402344 -428.800781 C 268.800781 -428.800781 268 -429.335938 268 -430.402344 Z M 112.800781 -422.402344 L 112 -422.402344 L 112 -417.601562 L 112.800781 -417.601562 Z M 267.199219 -422.402344 L 268 -422.402344 L 268 -420.800781 C 268 -420.800781 266.933594 -420.269531 264.800781 -419.203125 L 261.601562 -419.203125 L 261.601562 -420.800781 C 262.132812 -420.800781 262.800781 -420.933594 263.601562 -421.203125 C 264.402344 -421.46875 265.601562 -421.867188 267.199219 -422.402344 Z M 101.601562 -409.601562 L 100 -409.601562 L 100 -408 L 101.601562 -408 Z M 240.800781 -409.601562 L 243.199219 -409.601562 L 243.199219 -411.203125 C 241.601562 -411.203125 240.800781 -410.667969 240.800781 -409.601562 Z M 100 -398.402344 L 97.601562 -398.402344 L 97.601562 -396.800781 L 100 -396.800781 Z M 335.199219 -400.800781 L 335.199219 -403.203125 L 336 -403.203125 L 336 -400.800781 Z M 353.601562 -392 L 354.402344 -392 C 358.132812 -392 362.132812 -393.867188 366.402344 -397.601562 L 365.601562 -400 L 364 -398.402344 L 362.402344 -399.203125 C 358.132812 -397.601562 355.199219 -395.203125 353.601562 -392 Z M 189.601562 -367.199219 L 187.199219 -367.199219 L 187.199219 -365.601562 L 189.601562 -365.601562 Z M 174.402344 -353.601562 C 176 -353.601562 176.800781 -353.335938 176.800781 -352.800781 C 176.265625 -351.734375 176 -350.667969 176 -349.601562 L 176.800781 -349.601562 C 180 -354.933594 182.402344 -357.601562 184 -357.601562 L 183.199219 -359.199219 C 186.933594 -361.335938 188.800781 -363.199219 188.800781 -364.800781 L 187.199219 -364.800781 C 179.734375 -358.933594 175.46875 -355.199219 174.402344 -353.601562 Z M 143.199219 -348 L 143.199219 -346.402344 L 145.601562 -346.402344 C 145.601562 -348.535156 145.867188 -349.867188 146.402344 -350.402344 L 145.601562 -350.402344 C 144 -349.867188 143.199219 -349.066406 143.199219 -348 Z M 136 -336 L 136 -335.199219 C 137.066406 -335.199219 137.601562 -336 137.601562 -337.601562 L 137.601562 -338.402344 C 136.535156 -338.402344 136 -337.601562 136 -336 Z M 158.402344 -322.402344 L 159.199219 -322.402344 C 158.667969 -318.667969 155.734375 -314.933594 150.402344 -311.199219 L 149.601562 -311.199219 L 149.601562 -312 C 149.601562 -312 152.535156 -315.46875 158.402344 -322.402344 Z M 156.800781 -308.800781 L 158.402344 -308.800781 L 158.402344 -306.402344 C 157.332031 -306.402344 156.800781 -307.199219 156.800781 -308.800781 Z M 153.601562 -306.402344 L 153.601562 -304.800781 L 152 -304.800781 C 152 -305.867188 152.535156 -306.402344 153.601562 -306.402344 Z M 146.402344 -304.800781 L 149.601562 -304.800781 C 150.132812 -304.269531 150.402344 -303.46875 150.402344 -302.402344 L 150.402344 -301.601562 C 147.734375 -301.601562 144.265625 -297.601562 140 -289.601562 C 140 -287.46875 138.667969 -285.601562 136 -284 L 135.199219 -286.402344 C 140.535156 -297.601562 144.265625 -303.734375 146.402344 -304.800781 Z M 144 -292.800781 L 144.800781 -289.601562 L 142.402344 -289.601562 L 142.402344 -290.402344 C 143.46875 -292 144 -292.800781 144 -292.800781 Z M 96.800781 -281.601562 C 96.800781 -278.402344 94.132812 -275.734375 88.800781 -273.601562 C 88.800781 -270.402344 88 -268.800781 86.398438 -268.800781 C 87.46875 -267.734375 88 -266.933594 88 -266.402344 L 90.398438 -266.402344 C 90.398438 -268 91.199219 -268.800781 92.800781 -268.800781 L 97.601562 -268 L 96.800781 -270.402344 L 96.800781 -274.402344 C 96.800781 -275.46875 97.867188 -276 100 -276 L 100 -278.402344 C 100 -280 98.933594 -281.066406 96.800781 -281.601562 Z M 342.402344 -268 L 342.402344 -266.402344 C 344 -266.402344 344.800781 -267.199219 344.800781 -268.800781 L 344.800781 -269.601562 C 343.199219 -269.601562 342.402344 -269.066406 342.402344 -268 Z M 132 -262.402344 L 132 -264.800781 L 133.601562 -264.800781 L 133.601562 -262.402344 Z M 340.800781 -264.800781 L 338.402344 -264.800781 C 338.402344 -262.667969 337.601562 -260 336 -256.800781 L 336 -255.199219 L 336.800781 -255.199219 Z M 85.601562 -258.402344 L 84 -257.601562 L 84.800781 -255.199219 L 84 -252.800781 C 85.066406 -251.734375 85.601562 -250.667969 85.601562 -249.601562 Z M 348.800781 -250.402344 L 345.601562 -250.402344 L 345.601562 -248 L 346.402344 -248 C 348 -249.066406 348.800781 -249.867188 348.800781 -250.402344 Z M 356 -248.800781 L 356 -250.402344 L 357.601562 -250.402344 L 357.601562 -248.800781 Z M 104.800781 -236.800781 L 106.398438 -236.800781 C 107.46875 -236.800781 108.265625 -237.867188 108.800781 -240 L 108.800781 -243.199219 L 108 -243.199219 C 106.933594 -243.199219 105.867188 -241.066406 104.800781 -236.800781 Z M 101.601562 -236.800781 L 100 -236.800781 L 100 -236 C 100.535156 -233.867188 100.933594 -232.265625 101.199219 -231.199219 C 101.46875 -230.132812 101.601562 -229.335938 101.601562 -228.800781 L 102.398438 -228.800781 L 101.601562 -233.601562 Z M 124 -227.199219 L 124.800781 -224.800781 L 121.601562 -224.800781 C 122.667969 -226.402344 123.46875 -227.199219 124 -227.199219 Z M 531.203125 -218.402344 L 531.203125 -220 L 533.601562 -220 L 533.601562 -218.402344 Z M 329.601562 -212.800781 L 331.199219 -214.402344 L 332 -212 L 330.402344 -211.199219 Z M 311.199219 -200 L 311.199219 -199.199219 C 312.269531 -199.734375 313.335938 -200 314.402344 -200 L 314.402344 -201.601562 L 312.800781 -201.601562 C 311.734375 -201.601562 311.199219 -201.066406 311.199219 -200 Z M 309.601562 -194.402344 L 307.199219 -194.402344 C 307.199219 -192.265625 306.132812 -189.332031 304 -185.601562 L 304.800781 -185.601562 C 308 -187.199219 309.601562 -190.132812 309.601562 -194.402344 Z M 305.601562 -184.800781 L 304 -184.800781 L 304 -183.199219 C 305.066406 -183.199219 305.601562 -183.734375 305.601562 -184.800781 Z M 303.199219 -169.601562 L 301.601562 -169.601562 C 301.601562 -168.535156 301.066406 -167.46875 300 -166.402344 L 300 -165.601562 L 301.601562 -165.601562 C 301.601562 -166.667969 302.132812 -167.199219 303.199219 -167.199219 Z M 299.199219 -162.402344 L 299.199219 -161.601562 C 299.734375 -161.601562 300 -162.132812 300 -163.199219 L 300 -164.800781 C 299.46875 -164.265625 299.199219 -163.46875 299.199219 -162.402344 Z M 482.402344 -167.199219 L 481.601562 -167.199219 L 481.601562 -164 L 482.402344 -164 Z M 327.199219 -161.601562 L 327.199219 -160.800781 L 331.199219 -160.800781 L 331.199219 -163.199219 L 330.402344 -163.199219 C 328.269531 -162.132812 327.199219 -161.601562 327.199219 -161.601562 Z M 326.402344 -158.402344 L 324.800781 -158.402344 L 324.800781 -157.601562 L 326.402344 -157.601562 Z M 468 -160.800781 L 467.203125 -161.601562 C 465.601562 -156.265625 464.800781 -153.066406 464.800781 -152 L 466.402344 -152 C 466.402344 -153.066406 466.535156 -154.265625 466.800781 -155.601562 C 467.066406 -156.933594 467.46875 -158.667969 468 -160.800781 Z M 455.203125 -121.601562 L 455.203125 -119.199219 C 458.933594 -121.332031 461.335938 -127.46875 462.402344 -137.601562 L 464 -137.601562 L 462.402344 -140 C 464 -144.265625 464.800781 -147.46875 464.800781 -149.601562 C 460.535156 -142.132812 457.335938 -132.800781 455.203125 -121.601562 Z M 498.402344 -126.402344 L 498.402344 -128 L 500 -128 L 500 -126.402344 Z M 432.800781 -123.199219 L 432 -123.199219 L 432 -121.601562 L 432.800781 -121.601562 Z M 432 -120 L 428.800781 -118.398438 C 428.800781 -118.933594 428.535156 -119.199219 428 -119.199219 L 428 -118.398438 L 428.800781 -112.800781 L 428 -112.800781 C 430.132812 -108 431.203125 -104.800781 431.203125 -103.199219 C 432.269531 -103.199219 432.800781 -104 432.800781 -105.601562 L 432.800781 -109.601562 L 429.601562 -114.398438 C 430.132812 -114.933594 431.203125 -115.199219 432.800781 -115.199219 L 432.800781 -120 Z M 455.203125 -118.398438 L 454.402344 -118.398438 C 454.402344 -117.867188 453.867188 -116 452.800781 -112.800781 C 453.335938 -111.734375 453.601562 -110.667969 453.601562 -109.601562 C 452 -100.535156 450.402344 -96 448.800781 -96 C 449.335938 -95.46875 449.601562 -92.800781 449.601562 -88 C 452.269531 -88 454.402344 -96.800781 456 -114.398438 C 455.46875 -115.46875 455.203125 -116.800781 455.203125 -118.398438 Z M 321.601562 -115.199219 L 323.199219 -116 L 325.601562 -116 L 325.601562 -115.199219 C 325.066406 -113.066406 324.269531 -112 323.199219 -112 L 324 -109.601562 C 320.800781 -98.933594 318.132812 -93.332031 316 -92.800781 L 316.800781 -91.199219 L 316.800781 -89.601562 C 315.734375 -88 314.933594 -86.800781 314.402344 -86 C 313.867188 -85.199219 313.601562 -84.800781 313.601562 -84.800781 C 314.667969 -83.734375 315.199219 -82.933594 315.199219 -82.398438 C 312.535156 -74.933594 310.132812 -65.867188 308 -55.199219 C 307.46875 -55.199219 307.199219 -54.132812 307.199219 -52 L 308 -47.199219 C 306.402344 -46.667969 305.601562 -45.867188 305.601562 -44.800781 L 306.402344 -42.398438 C 305.335938 -39.734375 303.734375 -37.601562 301.601562 -36 C 299.46875 -36.535156 298.402344 -37.601562 298.402344 -39.199219 C 298.402344 -40.800781 299.199219 -41.601562 300.800781 -41.601562 L 300 -47.199219 L 300 -51.199219 C 302.667969 -51.199219 306.132812 -62.132812 310.402344 -84 C 310.402344 -89.867188 314.132812 -100.265625 321.601562 -115.199219 Z M 465.601562 -103.199219 L 467.203125 -103.199219 C 467.203125 -105.867188 468 -107.199219 469.601562 -107.199219 L 471.203125 -106.398438 L 471.203125 -107.199219 C 470.667969 -108.265625 470.402344 -109.867188 470.402344 -112 L 468 -112 C 466.402344 -112 465.601562 -109.066406 465.601562 -103.199219 Z M 468 -100 L 466.402344 -100 C 466.402344 -98.398438 465.335938 -97.601562 463.203125 -97.601562 L 463.203125 -96 L 464.800781 -91.199219 C 465.335938 -91.199219 466.402344 -94.132812 468 -100 Z M 472 -100 L 468.800781 -100 L 468 -92.800781 L 468 -91.199219 C 470.136719 -91.199219 471.46875 -93.867188 472 -99.199219 Z M 291.199219 -88.800781 L 290.402344 -88.800781 L 290.402344 -87.199219 L 291.199219 -87.199219 Z M 298.402344 -88 L 295.199219 -88 L 295.199219 -86.398438 C 295.199219 -84.800781 296 -84 297.601562 -84 C 297.601562 -86.132812 297.867188 -87.46875 298.402344 -88 Z M 296.800781 -79.199219 L 294.402344 -79.199219 L 293.601562 -75.199219 C 295.199219 -75.199219 296.269531 -76.265625 296.800781 -78.398438 Z M 280 10.398438 L 277.601562 12.800781 C 276.535156 12.265625 275.46875 12 274.402344 12 C 274.933594 13.066406 275.199219 14.132812 275.199219 15.199219 L 276 15.199219 C 277.601562 13.601562 280 12.800781 283.199219 12.800781 L 283.199219 10.398438 Z M 410.402344 8 L 411.203125 10.398438 L 411.203125 11.199219 C 411.203125 12.800781 410.402344 13.601562 408.800781 13.601562 L 407.203125 13.601562 L 407.203125 12 C 408.269531 9.332031 409.335938 8 410.402344 8 Z M 272 21.601562 L 271.199219 21.601562 L 271.199219 23.199219 L 272 23.199219 Z M 414.402344 22.398438 L 416.800781 22.398438 L 416.800781 19.199219 C 415.734375 19.199219 414.933594 20.265625 414.402344 22.398438 Z M 417.601562 25.601562 L 418.402344 25.601562 C 420 25.601562 420.800781 24.800781 420.800781 23.199219 L 420.800781 22.398438 C 419.203125 22.398438 418.132812 23.464844 417.601562 25.601562 Z M 414.402344 25.601562 L 412 25.601562 L 412 28 C 413.601562 28 414.402344 27.199219 414.402344 25.601562 Z M 522.402344 24 L 524 23.199219 L 525.601562 25.601562 L 523.203125 26.398438 Z M 394.402344 34.398438 L 396 35.199219 L 397.601562 35.199219 C 397.601562 35.199219 398.132812 33.601562 399.203125 30.398438 L 397.601562 30.398438 C 396.535156 30.398438 395.46875 31.734375 394.402344 34.398438 Z M 430.402344 31.199219 L 432 33.601562 C 429.867188 35.734375 425.867188 36.800781 420 36.800781 L 420 36 C 420 33.332031 423.46875 31.734375 430.402344 31.199219 Z M 410.402344 34.398438 L 410.402344 33.601562 L 416 33.601562 C 416 34.667969 415.203125 35.734375 413.601562 36.800781 L 412.800781 36.800781 C 411.203125 36.800781 410.402344 36 410.402344 34.398438 Z M 416.800781 39.199219 L 416.800781 36.800781 L 420 36.800781 C 420 38.398438 419.203125 39.199219 417.601562 39.199219 Z M 379.203125 41.601562 L 380.800781 44 C 378.667969 46.132812 376.535156 47.199219 374.402344 47.199219 L 374.402344 46.398438 C 374.402344 45.332031 376 43.734375 379.203125 41.601562 Z M 384 47.199219 L 384.800781 51.199219 L 382.402344 53.601562 C 382.402344 52.535156 382.132812 52 381.601562 52 C 382.667969 48.800781 383.46875 47.199219 384 47.199219 Z M 367.199219 54.398438 L 367.199219 56 C 367.199219 57.066406 366.667969 57.601562 365.601562 57.601562 L 365.601562 56.800781 C 365.601562 55.199219 366.132812 54.398438 367.199219 54.398438 Z M 367.199219 54.398438 "/></g></g><g style="fill:#d9d9d9;fill-opacity:1;"><g transform="translate(1036.398597, 850.124902)"><path style="stroke:none" d="M 604.800781 -432 C 604.800781 -429.867188 616 -427.203125 638.402344 -424 L 644.003906 -426.402344 C 652.003906 -426.402344 662.136719 -417.867188 674.402344 -400.800781 C 679.203125 -399.203125 683.203125 -391.203125 686.402344 -376.800781 C 689.601562 -372.535156 692.269531 -368.800781 694.402344 -365.601562 C 696.535156 -362.402344 698.136719 -360.269531 699.203125 -359.199219 L 698.402344 -356.800781 L 703.203125 -347.199219 L 703.203125 -346.402344 L 701.601562 -344 C 706.402344 -344 712.003906 -333.335938 718.402344 -312 C 717.335938 -307.734375 716.800781 -304.800781 716.800781 -303.199219 C 724.800781 -294.667969 728.800781 -287.46875 728.800781 -281.601562 C 726.667969 -281.601562 725.070312 -278.667969 724.003906 -272.800781 C 734.136719 -264.265625 739.203125 -257.601562 739.203125 -252.800781 L 739.203125 -247.199219 C 734.9375 -238.667969 731.734375 -233.335938 729.601562 -231.199219 L 729.601562 -230.402344 C 732.269531 -230.402344 733.601562 -229.601562 733.601562 -228 L 731.203125 -224 C 734.402344 -224 738.136719 -216.265625 742.402344 -200.800781 L 733.601562 -192 C 733.070312 -193.066406 732.800781 -194.402344 732.800781 -196 L 733.601562 -201.601562 L 731.203125 -203.199219 L 721.601562 -201.601562 C 723.203125 -200 724.003906 -198.667969 724.003906 -197.601562 C 723.46875 -196 723.203125 -194.667969 723.203125 -193.601562 L 725.601562 -192 L 725.601562 -194.402344 L 728.800781 -194.402344 C 730.9375 -194.402344 732.269531 -192.535156 732.800781 -188.800781 L 731.203125 -188.800781 L 727.203125 -191.199219 C 727.203125 -188.535156 726.667969 -187.199219 725.601562 -187.199219 C 717.070312 -193.066406 712.003906 -196 710.402344 -196 L 710.402344 -194.402344 L 716.800781 -187.199219 L 716.800781 -184.800781 L 714.402344 -184.800781 C 710.136719 -189.601562 702.667969 -193.332031 692.003906 -196 L 689.601562 -194.402344 C 669.867188 -200.265625 654.535156 -204.933594 643.601562 -208.402344 C 632.667969 -211.867188 626.667969 -213.867188 625.601562 -214.402344 C 629.335938 -214.933594 631.203125 -216 631.203125 -217.601562 L 630.402344 -217.601562 C 628.269531 -217.066406 626.800781 -216.800781 626.003906 -216.800781 C 625.203125 -216.800781 624.535156 -216.800781 624 -216.800781 L 621.601562 -217.601562 L 617.601562 -217.601562 L 617.601562 -220 L 615.203125 -220 L 615.203125 -216.800781 L 612 -216.800781 C 609.867188 -216.800781 608.800781 -217.867188 608.800781 -220 L 598.402344 -220 C 593.601562 -220 591.203125 -218.933594 591.203125 -216.800781 L 581.601562 -217.601562 C 581.601562 -216.535156 578.402344 -215.46875 572 -214.402344 C 570.933594 -216.535156 570.402344 -218.132812 570.402344 -219.199219 C 559.203125 -217.066406 553.601562 -214.667969 553.601562 -212 L 562.402344 -212 L 562.402344 -209.601562 L 552 -209.601562 C 548.800781 -211.199219 547.203125 -213.066406 547.203125 -215.199219 L 544 -215.199219 L 535.203125 -214.402344 C 534.136719 -214.933594 533.066406 -215.199219 532 -215.199219 C 527.203125 -213.601562 524.800781 -212 524.800781 -210.402344 L 524.800781 -209.601562 C 522.667969 -209.601562 518.402344 -210.667969 512 -212.800781 L 504 -212 C 501.335938 -212 499.46875 -212.265625 498.402344 -212.800781 L 483.203125 -207.199219 L 480 -207.199219 L 473.601562 -208 L 468.800781 -203.199219 C 459.203125 -207.46875 454.136719 -209.601562 453.601562 -209.601562 L 456.800781 -205.601562 L 456.800781 -204 C 437.066406 -200.265625 427.203125 -197.601562 427.203125 -196 C 428.269531 -196 428.800781 -195.46875 428.800781 -194.402344 L 438.402344 -196 L 441.601562 -196 L 441.601562 -193.601562 C 440 -193.601562 438.132812 -193.066406 436 -192 C 433.867188 -193.066406 432 -193.601562 430.402344 -193.601562 C 424 -190.933594 418.402344 -189.601562 413.601562 -189.601562 L 404 -191.199219 C 404 -189.601562 401.601562 -188.265625 396.800781 -187.199219 L 396.800781 -188.800781 L 394.402344 -187.199219 L 391.203125 -188.800781 L 388.800781 -183.199219 L 385.601562 -184.800781 L 383.203125 -184.800781 L 377.601562 -181.601562 C 377.601562 -182.667969 376.800781 -183.199219 375.199219 -183.199219 L 370.402344 -181.601562 L 362.402344 -181.601562 C 362.402344 -178.933594 361.335938 -177.601562 359.199219 -177.601562 L 356.800781 -177.601562 L 356.800781 -180 L 352.800781 -180 L 348.800781 -177.601562 C 348.800781 -179.199219 347.734375 -180 345.601562 -180 L 343.199219 -180 L 343.199219 -176 L 341.601562 -176 L 341.601562 -179.199219 C 333.066406 -179.199219 326.132812 -174.933594 320.800781 -166.402344 L 302.402344 -160.800781 L 296 -161.601562 L 294.402344 -159.199219 C 295.46875 -159.199219 296 -158.667969 296 -157.601562 C 284.800781 -157.601562 277.335938 -154.933594 273.601562 -149.601562 C 269.335938 -149.601562 265.066406 -148.265625 260.800781 -145.601562 L 258.402344 -147.199219 C 254.132812 -142.933594 245.335938 -139.199219 232 -136 C 232 -134.933594 231.46875 -134.402344 230.402344 -134.402344 L 228 -136 C 228 -134.933594 222.402344 -133.066406 211.199219 -130.402344 C 211.199219 -127.734375 204.800781 -125.867188 192 -124.800781 L 183.199219 -124.800781 C 175.734375 -124.800781 166.667969 -127.734375 156 -133.601562 C 149.601562 -133.601562 135.734375 -140.535156 114.398438 -154.402344 C 113.332031 -154.402344 109.066406 -156.800781 101.601562 -161.601562 C 101.601562 -162.132812 97.867188 -165.332031 90.398438 -171.199219 C 90.398438 -174.933594 87.734375 -180.265625 82.398438 -187.199219 C 82.398438 -188.800781 78.667969 -194.132812 71.199219 -203.199219 C 62.667969 -208.535156 58.398438 -214.667969 58.398438 -221.601562 C 55.734375 -226.402344 53.066406 -232.265625 50.398438 -239.199219 C 47.734375 -246.132812 45.066406 -254.132812 42.398438 -263.199219 C 42.933594 -264.265625 43.199219 -265.335938 43.199219 -266.402344 L 40.800781 -268 L 43.199219 -291.199219 C 41.601562 -296 40.800781 -301.335938 40.800781 -307.199219 L 42.398438 -307.199219 L 40.800781 -309.601562 L 40.800781 -316.800781 C 40.800781 -331.734375 47.199219 -340.269531 60 -342.402344 C 78.132812 -341.867188 89.601562 -340.535156 94.398438 -338.402344 C 97.066406 -339.46875 108.800781 -341.335938 129.601562 -344 C 132.265625 -344 144.535156 -346.667969 166.402344 -352 C 167.46875 -351.46875 169.332031 -351.199219 172 -351.199219 C 172 -353.335938 179.46875 -355.199219 194.402344 -356.800781 C 194.402344 -357.867188 198.132812 -359.734375 205.601562 -362.402344 L 205.601562 -363.199219 L 208.800781 -362.402344 L 224.800781 -366.402344 C 234.402344 -370.667969 240 -372.800781 241.601562 -372.800781 L 243.199219 -372.800781 L 245.601562 -372 C 244 -366.667969 243.199219 -363.46875 243.199219 -362.402344 C 244.265625 -362.402344 244.800781 -361.867188 244.800781 -360.800781 L 247.199219 -362.402344 L 248.800781 -362.402344 L 248.800781 -360.800781 C 247.734375 -358.132812 244.800781 -356.800781 240 -356.800781 L 241.601562 -354.402344 C 241.066406 -351.199219 232.800781 -347.199219 216.800781 -342.402344 L 211.199219 -336 C 212.800781 -335.46875 214.132812 -335.199219 215.199219 -335.199219 C 216.265625 -335.734375 217.601562 -336 219.199219 -336 L 222.402344 -332 L 217.601562 -325.601562 L 217.601562 -324 C 220.800781 -324 225.066406 -323.199219 230.402344 -321.601562 C 231.46875 -322.132812 232.265625 -322.535156 232.800781 -322.800781 C 233.335938 -323.066406 233.867188 -323.199219 234.402344 -323.199219 L 236 -320 L 234.402344 -316 C 235.46875 -313.867188 236 -312.535156 236 -312 C 237.601562 -312.535156 242.132812 -313.335938 249.601562 -314.402344 C 252.265625 -305.335938 259.199219 -300.800781 270.402344 -300.800781 C 274.132812 -303.46875 276.535156 -304.800781 277.601562 -304.800781 C 282.933594 -302.132812 286.667969 -300.800781 288.800781 -300.800781 L 292 -300.800781 L 292 -301.601562 C 291.46875 -302.667969 291.066406 -303.46875 290.800781 -304 C 290.535156 -304.535156 290.402344 -305.066406 290.402344 -305.601562 L 292.800781 -307.199219 L 296 -307.199219 C 296 -305.601562 296.535156 -304.800781 297.601562 -304.800781 C 298.667969 -304.800781 301.867188 -306.667969 307.199219 -310.402344 L 311.199219 -308 L 312.800781 -308 C 312.800781 -310.667969 313.601562 -312 315.199219 -312 C 315.199219 -311.46875 317.601562 -309.867188 322.402344 -307.199219 C 322.933594 -308.269531 323.199219 -309.335938 323.199219 -310.402344 L 326.402344 -309.601562 L 328.800781 -309.601562 L 337.601562 -316.800781 L 338.402344 -316.800781 L 344 -312 C 348.269531 -315.199219 351.199219 -316.800781 352.800781 -316.800781 C 355.46875 -316.269531 357.734375 -316 359.601562 -316 C 361.46875 -316 363.46875 -316 365.601562 -316 C 365.601562 -317.066406 365.867188 -318.132812 366.402344 -319.199219 L 368.800781 -317.601562 C 369.867188 -318.132812 370.933594 -318.535156 372 -318.800781 C 373.066406 -319.066406 374.132812 -319.199219 375.199219 -319.199219 L 373.601562 -321.601562 C 373.601562 -324.269531 377.066406 -325.867188 384 -326.402344 L 383.203125 -328.800781 C 385.335938 -329.867188 387.203125 -330.402344 388.800781 -330.402344 L 381.601562 -335.199219 L 384 -336 L 388.800781 -333.601562 C 390.933594 -340.535156 393.335938 -344 396 -344 C 397.601562 -344 399.203125 -341.066406 400.800781 -335.199219 C 398.667969 -333.601562 396.535156 -332.800781 394.402344 -332.800781 L 396 -330.402344 L 396 -328.800781 L 391.203125 -328.800781 L 391.203125 -328 L 396 -328 C 396 -329.066406 398.667969 -331.46875 404 -335.199219 L 412 -333.601562 L 415.203125 -337.601562 L 413.601562 -337.601562 C 411.46875 -336.535156 410.132812 -336 409.601562 -336 L 408 -338.402344 L 412 -341.601562 L 416.800781 -341.601562 C 417.867188 -341.601562 419.46875 -341.066406 421.601562 -340 C 426.402344 -341.601562 428.800781 -344 428.800781 -347.199219 C 432.535156 -347.199219 435.734375 -346.132812 438.402344 -344 C 451.734375 -344 461.867188 -347.199219 468.800781 -353.601562 L 473.601562 -353.601562 L 473.601562 -352 C 473.601562 -351.46875 473.066406 -351.199219 472 -351.199219 C 473.066406 -346.402344 474.402344 -344 476 -344 C 476 -346.132812 479.734375 -347.199219 487.203125 -347.199219 L 487.203125 -348.800781 L 485.601562 -351.199219 C 496.269531 -353.867188 502.667969 -356.535156 504.800781 -359.199219 C 504.800781 -357.066406 507.734375 -355.46875 513.601562 -354.402344 C 513.601562 -356 514.667969 -356.800781 516.800781 -356.800781 L 517.601562 -356.800781 C 519.203125 -356.800781 520 -355.734375 520 -353.601562 L 524.800781 -353.601562 C 524.800781 -358.402344 527.46875 -360.800781 532.800781 -360.800781 C 532.800781 -360.800781 534.136719 -359.46875 536.800781 -356.800781 C 541.601562 -358.402344 545.335938 -359.199219 548 -359.199219 L 556.800781 -358.402344 C 557.867188 -361.066406 561.335938 -362.402344 567.203125 -362.402344 L 570.402344 -362.402344 C 571.46875 -362.402344 572 -361.867188 572 -360.800781 L 574.402344 -362.402344 C 576 -362.402344 577.867188 -361.867188 580 -360.800781 C 582.136719 -361.867188 584 -362.402344 585.601562 -362.402344 L 588 -360.800781 C 592.269531 -362.402344 596.269531 -363.199219 600 -363.199219 L 600 -368.800781 C 600 -372 594.402344 -373.867188 583.203125 -374.402344 L 583.203125 -376.800781 C 583.203125 -378.402344 584 -379.203125 585.601562 -379.203125 L 602.402344 -379.203125 C 606.136719 -381.867188 609.867188 -383.203125 613.601562 -383.203125 L 613.601562 -384.800781 C 612 -384.800781 608.269531 -388.535156 602.402344 -396 C 601.335938 -396 600 -397.335938 598.402344 -400 C 596.800781 -399.46875 595.203125 -399.203125 593.601562 -399.203125 C 593.601562 -400.800781 588.269531 -402.132812 577.601562 -403.203125 L 577.601562 -400.800781 C 570.667969 -402.402344 565.867188 -403.203125 563.203125 -403.203125 C 561.070312 -402.667969 558.933594 -402.402344 556.800781 -402.402344 C 554.667969 -402.402344 553.070312 -402.402344 552 -402.402344 L 552 -403.203125 C 556.800781 -405.867188 559.203125 -408.800781 559.203125 -412 C 559.203125 -414.132812 556.800781 -415.46875 552 -416 L 545.601562 -414.402344 L 545.601562 -416 L 542.402344 -414.402344 L 540.800781 -414.402344 L 540.800781 -416.800781 L 544 -416.800781 L 544 -418.402344 L 540.800781 -418.402344 L 540.800781 -416.800781 C 533.335938 -417.335938 528.269531 -418.667969 525.601562 -420.800781 L 524.800781 -420.800781 C 521.066406 -418.132812 518.667969 -416.800781 517.601562 -416.800781 L 517.601562 -416 L 520 -416 L 520 -414.402344 L 515.203125 -414.402344 L 515.203125 -416 L 508 -414.402344 L 509.601562 -416.800781 C 508 -416.800781 496 -415.203125 473.601562 -412 L 467.203125 -414.402344 C 467.203125 -412.800781 466.402344 -412 464.800781 -412 C 464.800781 -413.601562 464 -414.402344 462.402344 -414.402344 C 462.402344 -412.269531 458.667969 -411.203125 451.203125 -411.203125 L 451.203125 -409.601562 L 455.203125 -409.601562 L 455.203125 -405.601562 L 448.800781 -407.203125 C 448.800781 -405.601562 447.734375 -404.800781 445.601562 -404.800781 L 442.402344 -404.800781 C 440.800781 -404.800781 440 -406.402344 440 -409.601562 L 433.601562 -408.800781 C 433.601562 -410.402344 431.46875 -411.203125 427.203125 -411.203125 L 427.203125 -412 C 427.203125 -414.667969 432.269531 -416.800781 442.402344 -418.402344 C 443.46875 -416.800781 444.535156 -416 445.601562 -416 L 447.203125 -416 C 453.601562 -417.601562 457.066406 -418.402344 457.601562 -418.402344 L 457.601562 -416.800781 C 460.800781 -418.402344 463.203125 -419.203125 464.800781 -419.203125 C 467.46875 -418.667969 469.46875 -418.402344 470.800781 -418.402344 C 472.136719 -418.402344 473.066406 -418.402344 473.601562 -418.402344 C 482.136719 -420.535156 490.402344 -421.601562 498.402344 -421.601562 C 498.402344 -421.066406 498.933594 -420.800781 500 -420.800781 L 502.402344 -424 L 508 -423.203125 L 523.203125 -426.402344 C 523.203125 -425.335938 525.066406 -423.734375 528.800781 -421.601562 C 528.800781 -423.734375 532.535156 -425.335938 540 -426.402344 C 540 -425.867188 540.269531 -425.601562 540.800781 -425.601562 C 541.867188 -427.203125 542.933594 -428 544 -428 C 548.269531 -427.46875 551.46875 -427.066406 553.601562 -426.800781 C 555.734375 -426.535156 557.070312 -426.402344 557.601562 -426.402344 C 567.203125 -428.535156 576 -430 584 -430.800781 C 592 -431.601562 598.933594 -432 604.800781 -432 Z M 491.203125 -413.601562 L 494.402344 -414.402344 L 500 -414.402344 L 500 -412 L 492.800781 -411.203125 Z M 423.203125 -411.203125 L 423.203125 -413.601562 L 424.800781 -413.601562 L 424.800781 -411.203125 Z M 549.601562 -412 L 550.402344 -409.601562 C 550.402344 -408 548.269531 -405.867188 544 -403.203125 C 542.933594 -403.203125 542.402344 -403.734375 542.402344 -404.800781 L 508 -400.800781 L 500 -400.800781 L 500 -402.402344 C 500 -404 502.667969 -405.066406 508 -405.601562 C 508 -409.335938 513.601562 -411.203125 524.800781 -411.203125 C 524.800781 -409.601562 525.601562 -408.800781 527.203125 -408.800781 L 528.800781 -408.800781 C 529.867188 -409.867188 536.800781 -410.933594 549.601562 -412 Z M 412 -411.203125 L 415.203125 -407.203125 C 414.667969 -407.203125 410.402344 -405.601562 402.402344 -402.402344 C 401.335938 -402.933594 399.46875 -403.203125 396.800781 -403.203125 C 396.800781 -401.601562 393.601562 -400.269531 387.203125 -399.203125 L 384 -400 C 365.867188 -396.800781 354.132812 -395.203125 348.800781 -395.203125 L 343.199219 -396 C 343.199219 -394.402344 340 -392.800781 333.601562 -391.203125 L 330.402344 -392.800781 C 324 -391.203125 318.933594 -390.402344 315.199219 -390.402344 L 315.199219 -392.800781 C 317.867188 -392.800781 322.402344 -393.867188 328.800781 -396 L 332 -395.203125 L 343.199219 -399.203125 C 345.335938 -398.132812 346.667969 -397.601562 347.199219 -397.601562 C 347.199219 -399.203125 356.800781 -401.601562 376 -404.800781 L 383.203125 -403.203125 C 387.46875 -406.402344 397.066406 -409.066406 412 -411.203125 Z M 491.203125 -405.601562 L 492.800781 -403.203125 C 492.800781 -401.601562 488.269531 -400.269531 479.203125 -399.203125 L 479.203125 -400 C 476 -398.402344 473.066406 -397.601562 470.402344 -397.601562 L 466.402344 -397.601562 L 466.402344 -400.800781 C 461.601562 -400.800781 459.203125 -399.203125 459.203125 -396 L 448.800781 -396 L 444 -393.601562 L 441.601562 -393.601562 C 440.535156 -393.601562 440 -394.132812 440 -395.203125 C 431.46875 -393.066406 427.203125 -390.933594 427.203125 -388.800781 L 420.800781 -390.402344 L 411.203125 -390.402344 C 409.066406 -390.402344 408 -391.203125 408 -392.800781 L 408 -393.601562 C 409.066406 -395.203125 410.132812 -396 411.203125 -396 C 415.46875 -393.335938 417.601562 -391.734375 417.601562 -391.203125 C 430.402344 -397.601562 439.734375 -400.800781 445.601562 -400.800781 C 453.066406 -402.402344 468.269531 -404 491.203125 -405.601562 Z M 487.203125 -403.203125 L 484 -403.203125 L 484 -402.402344 L 487.203125 -402.402344 Z M 559.203125 -396 L 562.402344 -396 L 562.402344 -393.601562 C 560.269531 -393.066406 558.800781 -392.800781 558 -392.800781 C 557.203125 -392.800781 556.800781 -392.800781 556.800781 -392.800781 L 556.800781 -393.601562 C 556.800781 -395.203125 557.601562 -396 559.203125 -396 Z M 584 -395.203125 L 587.203125 -396 C 588.800781 -396 589.601562 -395.203125 589.601562 -393.601562 L 587.203125 -392.800781 C 585.070312 -392.800781 584 -393.601562 584 -395.203125 Z M 595.203125 -395.203125 L 598.402344 -396 L 600.800781 -396 C 600.800781 -394.933594 599.46875 -393.867188 596.800781 -392.800781 Z M 550.402344 -393.601562 C 552.535156 -393.601562 553.601562 -392.800781 553.601562 -391.203125 L 549.601562 -388.800781 L 548 -388.800781 L 548 -391.203125 C 549.070312 -392.800781 549.867188 -393.601562 550.402344 -393.601562 Z M 400.800781 -392.800781 L 405.601562 -392.800781 L 405.601562 -388.800781 L 400 -387.203125 L 398.402344 -390.402344 C 399.46875 -392 400.269531 -392.800781 400.800781 -392.800781 Z M 512 -391.203125 L 519.203125 -392.800781 L 519.203125 -391.203125 C 519.203125 -390.132812 517.867188 -388.800781 515.203125 -387.203125 L 508 -388.800781 L 508 -391.203125 Z M 527.203125 -391.203125 L 527.203125 -392.800781 L 530.402344 -392.800781 L 530.402344 -391.203125 Z M 309.601562 -391.203125 C 311.734375 -391.203125 312.800781 -390.402344 312.800781 -388.800781 L 309.601562 -387.203125 L 307.199219 -387.203125 L 307.199219 -388.800781 C 307.199219 -390.402344 308 -391.203125 309.601562 -391.203125 Z M 388.800781 -391.203125 L 390.402344 -388.800781 C 390.402344 -387.203125 385.335938 -385.335938 375.199219 -383.203125 C 375.199219 -384.269531 374.132812 -384.800781 372 -384.800781 C 372 -382.667969 370.933594 -381.601562 368.800781 -381.601562 L 368 -381.601562 C 365.867188 -383.203125 364 -384 362.402344 -384 L 362.402344 -386.402344 C 371.46875 -389.066406 376.535156 -390.402344 377.601562 -390.402344 L 377.601562 -388.800781 C 382.402344 -390.402344 386.132812 -391.203125 388.800781 -391.203125 Z M 392.800781 -388.800781 L 392.800781 -391.203125 L 394.402344 -391.203125 L 394.402344 -388.800781 Z M 500.800781 -388.800781 L 500.800781 -391.203125 L 504.800781 -391.203125 L 504.800781 -388.800781 Z M 304 -388.800781 L 304 -386.402344 C 302.402344 -386.402344 300.269531 -385.601562 297.601562 -384 C 295.46875 -384 294.402344 -384.800781 294.402344 -386.402344 C 298.667969 -388 301.867188 -388.800781 304 -388.800781 Z M 591.203125 -386.402344 L 592.800781 -384 L 588 -384 C 589.070312 -385.601562 590.136719 -386.402344 591.203125 -386.402344 Z M 288.800781 -384.800781 L 288.800781 -384 C 288.800781 -382.933594 286.933594 -381.335938 283.199219 -379.203125 L 279.199219 -379.203125 C 277.066406 -379.203125 276 -380 276 -381.601562 C 280.800781 -383.734375 285.066406 -384.800781 288.800781 -384.800781 Z M 341.601562 -384 L 351.199219 -384.800781 L 352.800781 -384.800781 L 352.800781 -384 C 352.800781 -382.933594 349.601562 -381.867188 343.199219 -380.800781 L 341.601562 -383.203125 Z M 560.800781 -384 L 563.203125 -384.800781 L 564.800781 -384.800781 C 566.402344 -384.800781 567.203125 -384.269531 567.203125 -383.203125 C 566.667969 -383.203125 566.402344 -382.667969 566.402344 -381.601562 C 566.933594 -381.601562 567.203125 -381.335938 567.203125 -380.800781 L 566.402344 -380.800781 C 562.667969 -381.335938 560.800781 -382.402344 560.800781 -384 Z M 351.199219 -381.601562 L 359.199219 -383.203125 L 359.199219 -381.601562 C 359.199219 -380 358.402344 -379.203125 356.800781 -379.203125 L 353.601562 -379.203125 C 352 -379.203125 351.199219 -380 351.199219 -381.601562 Z M 336 -381.601562 L 338.402344 -381.601562 L 338.402344 -377.601562 C 338.402344 -376.535156 334.402344 -375.46875 326.402344 -374.402344 L 326.402344 -376.800781 C 329.066406 -376.800781 332.269531 -378.402344 336 -381.601562 Z M 442.402344 -377.601562 L 442.402344 -381.601562 L 447.203125 -381.601562 L 447.203125 -380.800781 C 447.203125 -378.667969 446.132812 -377.601562 444 -377.601562 Z M 272 -377.601562 L 272 -380.800781 L 273.601562 -380.800781 L 273.601562 -377.601562 Z M 427.203125 -380.800781 L 430.402344 -380.800781 L 430.402344 -377.601562 C 428.269531 -377.601562 427.203125 -378.667969 427.203125 -380.800781 Z M 559.203125 -380.800781 L 560.800781 -380.800781 C 565.070312 -378.132812 567.203125 -376.269531 567.203125 -375.199219 C 567.203125 -373.601562 566.402344 -372.800781 564.800781 -372.800781 L 557.601562 -372.800781 C 556 -372.800781 555.203125 -373.601562 555.203125 -375.199219 C 555.734375 -378.933594 557.070312 -380.800781 559.203125 -380.800781 Z M 489.601562 -379.203125 L 489.601562 -376.800781 L 487.203125 -376.800781 C 487.203125 -378.402344 488 -379.203125 489.601562 -379.203125 Z M 316.800781 -377.601562 L 316.800781 -375.199219 C 300.800781 -373.066406 292.800781 -370.132812 292.800781 -366.402344 C 290.667969 -367.46875 289.335938 -368 288.800781 -368 C 284.535156 -368 280 -366.933594 275.199219 -364.800781 L 275.199219 -365.601562 C 280 -368.800781 282.402344 -371.199219 282.402344 -372.800781 L 283.199219 -372.800781 L 288.800781 -370.402344 C 295.734375 -373.601562 305.066406 -376 316.800781 -377.601562 Z M 577.601562 -377.601562 C 579.203125 -377.601562 580 -376.800781 580 -375.199219 C 580 -373.601562 579.203125 -372.800781 577.601562 -372.800781 C 575.46875 -372.800781 574.402344 -373.601562 574.402344 -375.199219 C 575.46875 -376.800781 576.535156 -377.601562 577.601562 -377.601562 Z M 545.601562 -375.199219 L 545.601562 -372 C 538.136719 -372 533.066406 -370.933594 530.402344 -368.800781 C 528.269531 -369.867188 526.402344 -370.402344 524.800781 -370.402344 L 524.800781 -372 C 524.800781 -373.066406 531.734375 -374.132812 545.601562 -375.199219 Z M 392.800781 -374.402344 L 394.402344 -372 L 391.203125 -370.402344 L 390.402344 -370.402344 L 390.402344 -372 C 390.402344 -373.601562 391.203125 -374.402344 392.800781 -374.402344 Z M 406.402344 -370.402344 L 406.402344 -372.800781 L 408 -372.800781 L 408 -370.402344 Z M 448.800781 -370.402344 L 448.800781 -372.800781 L 449.601562 -372.800781 L 449.601562 -370.402344 Z M 484 -372.800781 C 485.601562 -372.800781 487.203125 -371.46875 488.800781 -368.800781 L 502.402344 -372 L 504 -368.800781 L 474.402344 -364.800781 L 474.402344 -368 C 477.601562 -368 480.800781 -369.601562 484 -372.800781 Z M 512 -368.800781 L 512 -372 L 515.203125 -372 L 515.203125 -368.800781 Z M 370.402344 -368 L 370.402344 -370.402344 L 373.601562 -370.402344 C 373.601562 -368.800781 372.535156 -368 370.402344 -368 Z M 592.800781 -370.402344 C 594.402344 -370.402344 595.203125 -369.601562 595.203125 -368 L 589.601562 -364.800781 L 587.203125 -364.800781 L 587.203125 -365.601562 C 587.203125 -366.667969 589.070312 -368.269531 592.800781 -370.402344 Z M 358.402344 -368.800781 L 359.199219 -368.800781 L 359.199219 -365.601562 L 355.199219 -365.601562 L 355.199219 -366.402344 C 356.269531 -368 357.335938 -368.800781 358.402344 -368.800781 Z M 462.402344 -365.601562 L 464.800781 -366.402344 C 465.867188 -366.402344 466.402344 -366.132812 466.402344 -365.601562 L 468.800781 -366.402344 L 472 -366.402344 C 472 -364.800781 469.335938 -363.734375 464 -363.199219 Z M 385.601562 -352 L 385.601562 -353.601562 L 388.800781 -353.601562 L 388.800781 -352 Z M 538.402344 -346.402344 L 540 -346.402344 C 542.667969 -346.933594 544.933594 -347.199219 546.800781 -347.199219 C 548.667969 -347.199219 550.402344 -347.199219 552 -347.199219 C 550.933594 -349.335938 550.402344 -350.667969 550.402344 -351.199219 C 542.402344 -349.066406 538.402344 -347.46875 538.402344 -346.402344 Z M 527.203125 -349.601562 L 524.800781 -346.402344 L 532.800781 -346.402344 C 532.800781 -348 530.933594 -349.066406 527.203125 -349.601562 Z M 513.601562 -347.199219 L 513.601562 -344.800781 L 517.601562 -344.800781 L 517.601562 -346.402344 C 516.535156 -346.402344 515.203125 -346.667969 513.601562 -347.199219 Z M 276 -346.402344 L 276 -347.199219 L 279.199219 -347.199219 L 279.199219 -346.402344 Z M 441.601562 -340 L 438.402344 -341.601562 C 438.402344 -337.867188 435.734375 -336 430.402344 -336 L 430.402344 -335.199219 C 430.402344 -334.132812 432.535156 -333.066406 436.800781 -332 C 440 -334.667969 441.601562 -337.335938 441.601562 -340 Z M 240 -338.402344 C 242.132812 -338.402344 243.199219 -337.601562 243.199219 -336 L 240 -335.199219 L 237.601562 -335.199219 L 237.601562 -336 C 237.601562 -337.601562 238.402344 -338.402344 240 -338.402344 Z M 402.402344 -338.402344 L 405.601562 -338.402344 L 405.601562 -336 C 403.46875 -336 402.402344 -336.800781 402.402344 -338.402344 Z M 413.601562 -332.800781 L 405.601562 -332 L 405.601562 -330.402344 L 412 -330.402344 Z M 345.601562 -332.800781 L 347.199219 -332.800781 C 348.800781 -332.800781 349.601562 -332 349.601562 -330.402344 L 352.800781 -332 L 353.601562 -332 L 353.601562 -328.800781 C 350.402344 -328.800781 347.734375 -327.734375 345.601562 -325.601562 L 338.402344 -325.601562 C 336.800781 -325.601562 336 -326.402344 336 -328 L 338.402344 -328.800781 L 341.601562 -328 C 343.199219 -331.199219 344.535156 -332.800781 345.601562 -332.800781 Z M 520 -328.800781 L 523.203125 -328.800781 L 530.402344 -330.402344 L 530.402344 -332 L 523.203125 -332 C 521.066406 -331.46875 520 -330.402344 520 -328.800781 Z M 368.800781 -325.601562 L 368.800781 -328 L 372 -328 L 372 -325.601562 Z M 487.203125 -326.402344 L 484 -326.402344 C 485.066406 -324.269531 485.601562 -323.199219 485.601562 -323.199219 L 487.203125 -323.199219 Z M 488.800781 -323.199219 L 488.800781 -320 L 495.203125 -320 L 495.203125 -317.601562 C 495.203125 -315.46875 493.335938 -314.402344 489.601562 -314.402344 L 489.601562 -313.601562 L 494.402344 -313.601562 C 497.066406 -313.601562 498.402344 -314.667969 498.402344 -316.800781 L 500.800781 -316.800781 L 504 -316 L 504 -316.800781 C 502.933594 -318.933594 502.402344 -320 502.402344 -320 L 504.800781 -321.601562 L 508 -320 C 508 -322.132812 510.402344 -323.199219 515.203125 -323.199219 L 515.203125 -324 L 508 -325.601562 L 500 -324 C 500 -325.601562 498.933594 -326.402344 496.800781 -326.402344 C 494.136719 -324.269531 491.46875 -323.199219 488.800781 -323.199219 Z M 517.601562 -325.601562 C 517.601562 -324 518.402344 -323.199219 520 -323.199219 L 528.800781 -323.199219 L 528.800781 -325.601562 C 526.136719 -325.601562 524.269531 -325.867188 523.203125 -326.402344 C 522.136719 -325.867188 520.269531 -325.601562 517.601562 -325.601562 Z M 564.800781 -326.402344 L 552 -326.402344 L 552 -325.601562 C 552 -325.601562 553.601562 -325.066406 556.800781 -324 L 564.800781 -325.601562 Z M 230.402344 -326.402344 L 233.601562 -326.402344 L 233.601562 -325.601562 C 233.601562 -324 232.535156 -323.199219 230.402344 -323.199219 L 228 -323.199219 L 228 -324 C 228 -325.601562 228.800781 -326.402344 230.402344 -326.402344 Z M 464.800781 -324 L 456.800781 -325.601562 C 456.800781 -324 454.402344 -321.066406 449.601562 -316.800781 C 450.667969 -316.269531 452 -316 453.601562 -316 C 455.203125 -316 456.535156 -316 457.601562 -316 C 457.601562 -316 458.136719 -317.066406 459.203125 -319.199219 L 468.800781 -317.601562 L 472 -317.601562 C 471.46875 -322.933594 470.402344 -325.601562 468.800781 -325.601562 C 468.269531 -325.601562 466.933594 -325.066406 464.800781 -324 Z M 480 -325.601562 L 473.601562 -325.601562 L 473.601562 -324 C 475.734375 -324 477.867188 -323.199219 480 -321.601562 Z M 256.800781 -321.601562 L 264 -324 L 265.601562 -321.601562 C 262.402344 -320 260 -319.199219 258.402344 -319.199219 Z M 319.199219 -320 L 322.402344 -321.601562 C 324 -321.601562 324.800781 -320.800781 324.800781 -319.199219 L 322.402344 -317.601562 C 320.269531 -317.601562 319.199219 -318.402344 319.199219 -320 Z M 445.601562 -320 L 441.601562 -317.601562 L 438.402344 -319.199219 C 436.800781 -319.199219 433.066406 -318.402344 427.203125 -316.800781 L 421.601562 -317.601562 C 414.667969 -317.601562 404.269531 -315.199219 390.402344 -310.402344 L 383.203125 -312 C 373.601562 -310.402344 368.535156 -309.601562 368 -309.601562 L 366.402344 -312 C 361.601562 -309.335938 354.132812 -306.933594 344 -304.800781 C 344 -306.402344 343.199219 -307.199219 341.601562 -307.199219 C 340 -303.46875 338.667969 -301.601562 337.601562 -301.601562 L 330.402344 -304.800781 L 328.800781 -304.800781 L 328.800781 -303.199219 L 332 -303.199219 C 332 -301.601562 330.933594 -300.800781 328.800781 -300.800781 C 327.734375 -301.335938 326.402344 -301.601562 324.800781 -301.601562 C 319.46875 -293.601562 310.667969 -289.601562 298.402344 -289.601562 C 296.269531 -290.667969 294.933594 -291.199219 294.402344 -291.199219 C 294.402344 -289.601562 289.867188 -287.46875 280.800781 -284.800781 L 280.800781 -284 C 282.933594 -284 285.066406 -283.199219 287.199219 -281.601562 L 292.800781 -284.800781 L 296 -284.800781 L 296 -282.402344 C 296 -281.867188 292.269531 -280.265625 284.800781 -277.601562 C 284.800781 -278.667969 284.265625 -279.199219 283.199219 -279.199219 C 283.199219 -277.066406 280 -273.601562 273.601562 -268.800781 L 272 -264.800781 L 276 -266.402344 L 279.199219 -265.601562 C 280.800781 -265.601562 286.402344 -269.601562 296 -277.601562 C 298.667969 -276 301.335938 -275.199219 304 -275.199219 C 306.667969 -275.199219 309.601562 -276.800781 312.800781 -280 L 313.601562 -277.601562 C 313.066406 -277.601562 312.800781 -277.335938 312.800781 -276.800781 L 319.199219 -276.800781 C 326.667969 -276.800781 338.667969 -281.066406 355.199219 -289.601562 L 366.402344 -289.601562 C 367.46875 -291.734375 368 -293.066406 368 -293.601562 L 375.199219 -293.601562 C 375.734375 -293.601562 377.601562 -293.066406 380.800781 -292 C 390.402344 -294.667969 396.800781 -297.601562 400 -300.800781 L 402.402344 -300.800781 C 403.46875 -300.800781 404 -300.535156 404 -300 L 406.402344 -300.800781 C 408 -300.269531 409.601562 -300 411.203125 -300 C 411.203125 -304.269531 417.066406 -306.667969 428.800781 -307.199219 C 436.269531 -310.402344 441.867188 -313.601562 445.601562 -316.800781 L 447.203125 -316.800781 L 447.203125 -320 Z M 244.800781 -316.800781 L 244.800781 -319.199219 L 247.199219 -319.199219 L 247.199219 -316.800781 Z M 311.199219 -316.800781 L 311.199219 -317.601562 C 312.269531 -317.066406 314.402344 -316.800781 317.601562 -316.800781 C 317.601562 -315.199219 316.800781 -314.402344 315.199219 -314.402344 L 313.601562 -314.402344 C 312 -314.402344 311.199219 -315.199219 311.199219 -316.800781 Z M 457.601562 -312 L 453.601562 -309.601562 C 452.535156 -310.132812 451.203125 -310.402344 449.601562 -310.402344 C 449.601562 -308.800781 454.402344 -307.199219 464 -305.601562 L 464.800781 -305.601562 L 472 -307.199219 C 472 -306.132812 472.535156 -305.601562 473.601562 -305.601562 C 473.601562 -307.199219 475.734375 -308 480 -308 L 480 -309.601562 C 476.800781 -309.601562 472.269531 -310.402344 466.402344 -312 C 466.402344 -310.402344 465.601562 -309.601562 464 -309.601562 L 459.203125 -309.601562 L 459.203125 -312 Z M 485.601562 -291.199219 C 484.535156 -293.335938 484 -294.933594 484 -296 L 470.402344 -296 C 469.335938 -296 468.800781 -296.535156 468.800781 -297.601562 L 459.203125 -295.199219 C 458.136719 -295.734375 456.800781 -296 455.203125 -296 C 455.203125 -294.933594 453.335938 -293.601562 449.601562 -292 L 442.402344 -293.601562 L 445.601562 -289.601562 L 448.800781 -291.199219 L 451.203125 -291.199219 C 451.203125 -289.066406 455.734375 -287.46875 464.800781 -286.402344 C 465.867188 -288 466.667969 -288.800781 467.203125 -288.800781 L 485.601562 -288.800781 L 489.601562 -286.402344 L 496.800781 -286.402344 L 506.402344 -288.800781 L 506.402344 -287.199219 L 515.203125 -289.601562 C 515.203125 -288 516 -287.199219 517.601562 -287.199219 L 524.800781 -291.199219 C 528.535156 -289.601562 530.402344 -288.265625 530.402344 -287.199219 L 550.402344 -295.199219 L 552 -295.199219 L 552 -292 L 549.601562 -292 L 549.601562 -291.199219 L 559.203125 -291.199219 C 559.203125 -294.933594 562.933594 -298.132812 570.402344 -300.800781 L 574.402344 -300.800781 C 576.535156 -300.800781 577.601562 -300 577.601562 -298.402344 L 577.601562 -295.199219 L 580 -293.601562 C 589.070312 -300 597.335938 -303.199219 604.800781 -303.199219 L 604.800781 -304.800781 C 602.136719 -304.800781 599.46875 -305.601562 596.800781 -307.199219 L 591.203125 -307.199219 C 589.070312 -306.667969 588 -305.867188 588 -304.800781 L 578.402344 -305.601562 L 564.800781 -305.601562 L 555.203125 -300.800781 L 553.601562 -300.800781 C 549.867188 -304.535156 548 -307.734375 548 -310.402344 L 547.203125 -310.402344 C 541.867188 -306.667969 528.800781 -303.46875 508 -300.800781 C 501.601562 -294.933594 494.136719 -291.734375 485.601562 -291.199219 Z M 269.601562 -307.199219 L 269.601562 -309.601562 L 270.402344 -309.601562 L 270.402344 -307.199219 Z M 440 -308 L 436.800781 -308 L 436.800781 -307.199219 L 440 -307.199219 Z M 285.601562 -301.601562 L 285.601562 -304.800781 L 287.199219 -304.800781 L 287.199219 -301.601562 Z M 358.402344 -300.800781 L 358.402344 -304.800781 L 359.199219 -304.800781 C 361.335938 -304.269531 362.402344 -303.199219 362.402344 -301.601562 L 359.199219 -300.800781 Z M 591.203125 -296 L 592.800781 -296 C 606.667969 -298.667969 613.601562 -300.269531 613.601562 -300.800781 L 613.601562 -301.601562 L 608 -301.601562 C 596.800781 -300 591.203125 -298.132812 591.203125 -296 Z M 368 -297.601562 L 368 -301.601562 L 368.800781 -301.601562 L 368.800781 -297.601562 Z M 387.203125 -301.601562 L 388.800781 -300 L 385.601562 -298.402344 L 384 -298.402344 L 384 -300 C 385.066406 -301.066406 386.132812 -301.601562 387.203125 -301.601562 Z M 521.601562 -298.402344 L 521.601562 -300.800781 L 523.203125 -300.800781 L 523.203125 -298.402344 Z M 349.601562 -296 L 352.800781 -297.601562 L 353.601562 -295.199219 L 353.601562 -293.601562 L 352.800781 -293.601562 C 350.667969 -293.601562 349.601562 -294.402344 349.601562 -296 Z M 324.800781 -292 C 326.933594 -292 328 -291.199219 328 -289.601562 C 319.46875 -286.402344 314.667969 -284.800781 313.601562 -284.800781 L 313.601562 -286.402344 C 313.601562 -287.46875 317.335938 -289.335938 324.800781 -292 Z M 341.601562 -289.601562 L 341.601562 -292 L 344 -292 L 344 -289.601562 Z M 409.601562 -284.800781 L 409.601562 -284 C 412.269531 -284 413.601562 -283.199219 413.601562 -281.601562 L 411.203125 -280 L 411.203125 -281.601562 L 408 -280 L 400.800781 -280 C 400.800781 -281.066406 400 -283.199219 398.402344 -286.402344 L 396.800781 -286.402344 L 392.800781 -284 L 394.402344 -281.601562 L 394.402344 -277.601562 C 393.335938 -277.601562 384.800781 -276 368.800781 -272.800781 L 368.800781 -275.199219 C 369.335938 -275.199219 373.601562 -276.535156 381.601562 -279.199219 L 381.601562 -280 L 373.601562 -280 C 371.46875 -280 365.867188 -278.402344 356.800781 -275.199219 L 358.402344 -272.800781 C 358.402344 -271.199219 357.335938 -270.402344 355.199219 -270.402344 C 353.601562 -270.402344 352.800781 -271.734375 352.800781 -274.402344 L 349.601562 -274.402344 C 345.335938 -274.402344 340.269531 -271.199219 334.402344 -264.800781 C 330.667969 -264.800781 328.800781 -263.734375 328.800781 -261.601562 L 333.601562 -261.601562 C 334.667969 -261.601562 336.535156 -262 339.199219 -262.800781 C 341.867188 -263.601562 345.335938 -264.535156 349.601562 -265.601562 L 353.601562 -265.601562 C 355.734375 -265.601562 356.800781 -264.800781 356.800781 -263.199219 L 376 -266.402344 L 385.601562 -266.402344 C 387.734375 -270.667969 397.066406 -274.933594 413.601562 -279.199219 C 424.800781 -280.800781 430.402344 -282.667969 430.402344 -284.800781 L 426.402344 -287.199219 C 426.402344 -286.667969 425.867188 -286.402344 424.800781 -286.402344 C 424.800781 -288 423.734375 -288.800781 421.601562 -288.800781 C 414.667969 -286.132812 410.667969 -284.800781 409.601562 -284.800781 Z M 297.601562 -284.800781 L 297.601562 -287.199219 L 300 -287.199219 L 300 -284.800781 Z M 525.601562 -284.800781 L 525.601562 -282.402344 C 527.734375 -283.46875 530.667969 -284 534.402344 -284 L 534.402344 -284.800781 C 533.867188 -284.800781 532.535156 -285.335938 530.402344 -286.402344 C 527.203125 -285.335938 525.601562 -284.800781 525.601562 -284.800781 Z M 542.402344 -286.402344 L 535.203125 -284.800781 L 535.203125 -284 L 547.203125 -284 L 547.203125 -286.402344 Z M 553.601562 -286.402344 L 550.402344 -286.402344 L 550.402344 -284.800781 L 553.601562 -284.800781 Z M 383.203125 -281.601562 L 383.203125 -280 L 387.203125 -280 L 388.800781 -282.402344 L 387.203125 -282.402344 C 385.601562 -281.867188 384.269531 -281.601562 383.203125 -281.601562 Z M 334.402344 -275.199219 L 333.601562 -275.199219 C 333.601562 -271.46875 329.335938 -269.335938 320.800781 -268.800781 L 320.800781 -270.402344 L 313.601562 -266.402344 C 313.601562 -267.46875 313.335938 -268 312.800781 -268 L 305.601562 -260.800781 L 308 -260.800781 C 324 -264.535156 332.535156 -267.734375 333.601562 -270.402344 C 333.601562 -271.46875 333.867188 -272.800781 334.402344 -274.402344 Z M 322.402344 -256.800781 L 315.199219 -256 L 315.199219 -254.402344 L 323.199219 -254.402344 L 323.199219 -256.800781 Z M 621.601562 -221.601562 L 620 -221.601562 L 620 -219.199219 L 621.601562 -219.199219 Z M 618.402344 -212 L 618.402344 -214.402344 L 620 -214.402344 L 620 -212 Z M 540.800781 -212.800781 L 542.402344 -212.800781 L 542.402344 -210.402344 C 542.402344 -208.800781 541.601562 -208 540 -208 L 536.800781 -208 L 536.800781 -209.601562 C 536.800781 -210.667969 538.136719 -211.734375 540.800781 -212.800781 Z M 405.601562 -204 C 406.667969 -204 408 -203.734375 409.601562 -203.199219 C 410.667969 -203.734375 412 -204 413.601562 -204 L 413.601562 -207.199219 L 408 -207.199219 C 406.402344 -206.667969 405.601562 -205.601562 405.601562 -204 Z M 515.203125 -205.601562 L 515.203125 -208 L 517.601562 -208 L 517.601562 -205.601562 Z M 714.402344 -204 L 712.003906 -204 L 712.003906 -203.199219 L 714.402344 -203.199219 Z M 491.203125 -204 L 492.800781 -201.601562 C 492.800781 -200.535156 491.734375 -200 489.601562 -200 L 488.800781 -200 L 484 -201.601562 C 484 -200.535156 481.867188 -199.46875 477.601562 -198.402344 L 476 -200.800781 C 476 -202.402344 481.066406 -203.46875 491.203125 -204 Z M 473.601562 -203.199219 L 474.402344 -200.800781 L 468.800781 -197.601562 C 467.734375 -198.132812 466.402344 -198.402344 464.800781 -198.402344 C 464.800781 -198.933594 467.734375 -200.535156 473.601562 -203.199219 Z M 707.203125 -200 L 706.402344 -200 L 706.402344 -197.601562 L 707.203125 -197.601562 Z M 376 -198.402344 L 372 -198.402344 L 372 -197.601562 L 376 -197.601562 Z M 400 -192 L 396.800781 -192 L 396.800781 -191.199219 L 400 -191.199219 Z M 313.601562 -183.199219 L 307.199219 -182.402344 L 307.199219 -181.601562 L 313.601562 -181.601562 C 315.734375 -181.601562 316.800781 -182.132812 316.800781 -183.199219 Z M 700.800781 -183.199219 L 700.800781 -184.800781 L 704.800781 -184.800781 L 704.800781 -183.199219 C 704.800781 -182.132812 703.734375 -181.601562 701.601562 -181.601562 Z M 319.199219 -171.199219 L 316.800781 -171.199219 L 316.800781 -170.402344 L 319.199219 -170.402344 Z M 319.199219 -171.199219 "/></g></g></g></svg>