<svg xmlns="http://www.w3.org/2000/svg" xmlns:xlink="http://www.w3.org/1999/xlink" width="2560" zoomAndPan="magnify" viewBox="0 0 1920 1079.999946" height="1440" preserveAspectRatio="xMidYMid meet" version="1.2"><defs/><g id="e03b25fba2"><g style="fill:#d9d9d9;fill-opacity:1;"><g transform="translate(93.995027, 850.124902)"><path style="stroke:none" d="M 411.203125 -698.402344 L 412 -696.003906 L 424 -697.601562 L 425.601562 -697.601562 C 442.667969 -693.867188 456.269531 -687.734375 466.402344 -679.203125 C 466.402344 -673.867188 468.800781 -668.003906 473.601562 -661.601562 C 475.203125 -660.003906 476 -657.070312 476 -652.800781 L 482.402344 -652.800781 C 483.46875 -653.335938 484.269531 -653.601562 484.800781 -653.601562 C 485.335938 -653.601562 485.867188 -653.867188 486.402344 -654.402344 C 488.535156 -653.867188 491.203125 -653.601562 494.402344 -653.601562 C 497.066406 -653.601562 501.601562 -654.667969 508 -656.800781 L 508 -655.203125 C 509.066406 -655.203125 509.601562 -655.734375 509.601562 -656.800781 L 513.601562 -655.203125 L 525.601562 -659.203125 C 526.136719 -658.136719 530.933594 -657.070312 540 -656.003906 L 541.601562 -657.601562 C 545.867188 -653.867188 552.269531 -651.734375 560.800781 -651.203125 C 577.867188 -640.535156 587.203125 -629.070312 588.800781 -616.800781 C 589.867188 -616.800781 590.933594 -613.070312 592 -605.601562 C 592.535156 -594.933594 585.867188 -581.867188 572 -566.402344 C 566.136719 -558.933594 559.203125 -552.269531 551.203125 -546.402344 C 551.203125 -544.800781 549.335938 -542.933594 545.601562 -540.800781 L 528.800781 -518.402344 L 520.800781 -518.402344 L 520.800781 -519.203125 L 525.601562 -525.601562 L 522.402344 -525.601562 C 522.402344 -522.933594 521.601562 -521.601562 520 -521.601562 L 519.203125 -521.601562 L 516 -524 L 513.601562 -521.601562 L 510.402344 -521.601562 L 508 -522.402344 C 508 -518.667969 502.933594 -516 492.800781 -514.402344 C 492.800781 -511.734375 489.867188 -507.46875 484 -501.601562 L 480 -501.601562 C 478.402344 -503.734375 477.066406 -504.269531 476 -503.203125 C 471.203125 -503.203125 463.734375 -500.535156 453.601562 -495.203125 L 451.203125 -495.203125 L 451.203125 -493.601562 L 453.601562 -493.601562 C 462.136719 -495.203125 469.867188 -496.535156 476.800781 -497.601562 C 483.734375 -498.667969 489.867188 -499.46875 495.203125 -500 L 495.203125 -498.402344 C 495.734375 -498.402344 496 -498.933594 496 -500 L 508 -499.203125 L 512.800781 -499.203125 C 514.933594 -499.203125 516.269531 -499.46875 516.800781 -500 C 523.203125 -499.46875 526.402344 -498.933594 526.402344 -498.402344 C 527.46875 -498.933594 529.066406 -499.46875 531.203125 -500 C 533.335938 -500.535156 535.734375 -501.066406 538.402344 -501.601562 C 538.402344 -501.066406 538.933594 -500.800781 540 -500.800781 C 540 -503.46875 545.335938 -506.402344 556 -509.601562 L 556 -508.800781 L 558.402344 -509.601562 L 564 -509.601562 L 566.402344 -508.800781 L 568 -512.800781 L 568 -515.203125 L 564.800781 -519.203125 L 565.601562 -521.601562 C 562.933594 -521.601562 560.535156 -525.066406 558.402344 -532 L 557.601562 -532 C 558.136719 -533.066406 558.402344 -534.136719 558.402344 -535.203125 L 564 -534.402344 L 564 -536.800781 C 560.800781 -536.800781 558.667969 -538.136719 557.601562 -540.800781 C 558.667969 -540.800781 559.203125 -541.335938 559.203125 -542.402344 C 563.46875 -543.46875 580.535156 -534.933594 610.402344 -516.800781 C 610.402344 -516.269531 610.933594 -516 612 -516 L 613.601562 -516 L 615.203125 -517.601562 C 615.203125 -516.535156 616.535156 -515.46875 619.203125 -514.402344 C 620.269531 -514.933594 621.867188 -515.203125 624 -515.203125 C 624 -514.136719 627.203125 -512.800781 633.601562 -511.203125 L 633.601562 -508 L 636.800781 -511.203125 L 639.203125 -511.203125 C 645.070312 -508.535156 648.003906 -506.933594 648.003906 -506.402344 C 648.003906 -504.800781 649.070312 -504 651.203125 -504 C 652.269531 -504.535156 653.335938 -504.800781 654.402344 -504.800781 C 654.402344 -503.734375 662.402344 -500.800781 678.402344 -496 C 678.402344 -494.402344 681.335938 -492.269531 687.203125 -489.601562 C 687.203125 -489.066406 690.136719 -485.867188 696.003906 -480 C 696.003906 -474.136719 695.46875 -470.136719 694.402344 -468 C 694.933594 -468 698.402344 -464.535156 704.800781 -457.601562 L 704.800781 -456 L 699.203125 -448 C 695.46875 -448 693.601562 -445.867188 693.601562 -441.601562 C 688.269531 -432 682.136719 -427.203125 675.203125 -427.203125 C 674.136719 -428.269531 673.070312 -428.800781 672.003906 -428.800781 C 672.003906 -427.203125 671.46875 -426.402344 670.402344 -426.402344 C 666.667969 -426.402344 664.800781 -426.933594 664.800781 -428 C 664.269531 -428 664.003906 -427.734375 664.003906 -427.203125 C 656.003906 -428.269531 651.46875 -429.335938 650.402344 -430.402344 L 646.402344 -430.402344 L 643.203125 -428.800781 C 641.070312 -430.402344 638.933594 -431.203125 636.800781 -431.203125 C 636.800781 -428.535156 632.800781 -426.402344 624.800781 -424.800781 C 624.800781 -423.734375 624.269531 -423.203125 623.203125 -423.203125 C 618.933594 -424.269531 616.800781 -425.066406 616.800781 -425.601562 C 616.269531 -425.066406 614.136719 -424.800781 610.402344 -424.800781 L 610.402344 -423.203125 C 610.402344 -422.132812 614.402344 -421.066406 622.402344 -420 L 640.003906 -401.601562 C 641.070312 -398.402344 642.402344 -395.601562 644.003906 -393.203125 C 645.601562 -390.800781 647.203125 -388.535156 648.800781 -386.402344 L 648.800781 -376 C 647.734375 -373.867188 646.269531 -370.933594 644.402344 -367.199219 C 642.535156 -363.46875 640.535156 -358.667969 638.402344 -352.800781 L 628.003906 -342.402344 C 625.335938 -339.734375 622.667969 -338.402344 620 -338.402344 L 607.203125 -318.402344 L 604 -318.402344 C 604 -319.46875 604.535156 -321.066406 605.601562 -323.199219 L 605.601562 -324 L 604 -324 C 604 -322.933594 602.933594 -320.535156 600.800781 -316.800781 C 602.933594 -316.800781 604.269531 -314.933594 604.800781 -311.199219 L 602.402344 -310.402344 L 597.601562 -310.402344 C 597.601562 -307.734375 597.335938 -305.867188 596.800781 -304.800781 C 597.335938 -304.800781 597.601562 -304.535156 597.601562 -304 L 596 -304 L 595.203125 -306.402344 C 594.136719 -305.335938 593.601562 -304.535156 593.601562 -304 C 593.601562 -302.933594 594.667969 -301.601562 596.800781 -300 C 596.800781 -299.46875 594.667969 -297.066406 590.402344 -292.800781 C 589.867188 -294.933594 588.269531 -296 585.601562 -296 L 585.601562 -299.199219 L 588.800781 -303.199219 L 587.203125 -303.199219 C 586.667969 -302.667969 585.601562 -302.402344 584 -302.402344 C 583.46875 -303.46875 583.203125 -304.800781 583.203125 -306.402344 L 581.601562 -306.402344 L 576.800781 -300.800781 L 573.601562 -300.800781 L 571.203125 -302.402344 L 573.601562 -306.402344 L 571.203125 -308 C 571.203125 -305.867188 567.46875 -301.867188 560 -296 L 563.203125 -291.199219 L 563.203125 -290.402344 C 560 -289.335938 558.136719 -286.402344 557.601562 -281.601562 C 558.136719 -281.601562 558.402344 -281.335938 558.402344 -280.800781 L 557.601562 -280.800781 C 557.070312 -280.800781 556.800781 -281.066406 556.800781 -281.601562 L 554.402344 -280.800781 L 548.800781 -281.601562 C 544 -278.933594 539.203125 -276.800781 534.402344 -275.199219 C 534.402344 -276.800781 533.867188 -277.601562 532.800781 -277.601562 C 530.667969 -274.402344 527.203125 -271.734375 522.402344 -269.601562 C 522.402344 -266.933594 519.46875 -265.601562 513.601562 -265.601562 L 516 -261.601562 C 510.136719 -257.335938 507.46875 -250.667969 508 -241.601562 C 507.46875 -241.601562 507.203125 -240.535156 507.203125 -238.402344 L 507.203125 -233.601562 C 507.203125 -230.933594 507.46875 -229.335938 508 -228.800781 C 507.46875 -227.199219 507.066406 -225.335938 506.800781 -223.199219 C 506.535156 -221.066406 506.402344 -218.667969 506.402344 -216 C 506.933594 -213.867188 515.734375 -205.601562 532.800781 -191.199219 C 535.46875 -188 543.46875 -184 556.800781 -179.199219 C 566.933594 -173.332031 572.800781 -169.601562 574.402344 -168 C 578.136719 -168 586.667969 -162.402344 600 -151.199219 C 605.335938 -151.199219 612.535156 -147.46875 621.601562 -140 L 636.800781 -132.800781 L 638.402344 -133.601562 C 642.667969 -130.933594 646.402344 -129.332031 649.601562 -128.800781 C 650.667969 -129.867188 651.46875 -130.402344 652.003906 -130.402344 C 670.667969 -119.199219 683.734375 -113.867188 691.203125 -114.398438 C 691.734375 -114.933594 692.800781 -115.199219 694.402344 -115.199219 C 694.402344 -114.132812 696.800781 -112.265625 701.601562 -109.601562 L 702.402344 -108.800781 L 707.203125 -109.601562 C 724.800781 -99.46875 734.136719 -89.332031 735.203125 -79.199219 L 745.601562 -58.398438 C 739.203125 -43.46875 732.003906 -33.332031 724.003906 -28 C 718.136719 -23.734375 715.734375 -20.800781 716.800781 -19.199219 L 713.601562 -19.199219 C 712.003906 -19.199219 711.203125 -20 711.203125 -21.601562 C 708.535156 -20 704.269531 -18.667969 698.402344 -17.601562 C 694.667969 -18.667969 692.535156 -18.933594 692.003906 -18.398438 C 688.800781 -18.398438 686.136719 -17.332031 684.003906 -15.199219 L 682.402344 -15.199219 L 676.800781 -16 C 676.800781 -14.398438 676.269531 -13.601562 675.203125 -13.601562 L 669.601562 -13.601562 C 668.003906 -13.601562 666.933594 -14.667969 666.402344 -16.800781 L 664.800781 -16 L 661.601562 -17.601562 L 651.203125 -17.601562 L 646.402344 -16.800781 C 646.402344 -17.867188 645.601562 -18.398438 644.003906 -18.398438 C 643.46875 -17.867188 642.402344 -17.601562 640.800781 -17.601562 C 640.269531 -20.265625 638.402344 -22.933594 635.203125 -25.601562 L 634.402344 -26.398438 L 630.402344 -23.199219 C 629.335938 -23.199219 627.203125 -25.867188 624 -31.199219 C 613.867188 -30.667969 606.136719 -34.667969 600.800781 -43.199219 C 598.667969 -43.199219 594.667969 -47.734375 588.800781 -56.800781 C 588.800781 -59.46875 586.933594 -61.066406 583.203125 -61.601562 C 583.203125 -65.332031 578.402344 -70.667969 568.800781 -77.601562 C 567.734375 -77.601562 565.335938 -80.265625 561.601562 -85.601562 C 557.867188 -89.332031 554.667969 -91.199219 552 -91.199219 C 542.402344 -107.199219 534.402344 -117.867188 528 -123.199219 C 528 -125.867188 524.800781 -129.867188 518.402344 -135.199219 C 510.933594 -147.46875 505.335938 -153.332031 501.601562 -152.800781 L 501.601562 -152 C 501.601562 -150.933594 501.066406 -150.402344 500 -150.402344 L 501.601562 -148.800781 L 501.601562 -147.199219 C 501.601562 -146.667969 501.335938 -146.402344 500.800781 -146.402344 C 500.800781 -145.332031 501.066406 -144.800781 501.601562 -144.800781 C 501.601562 -140.535156 500.800781 -137.066406 499.203125 -134.402344 L 500 -132 C 499.46875 -130.933594 499.203125 -129.601562 499.203125 -128 C 499.734375 -127.46875 500 -126.402344 500 -124.800781 L 500.800781 -124.800781 C 502.402344 -131.734375 504.269531 -135.199219 506.402344 -135.199219 L 506.402344 -134.402344 C 505.867188 -126.402344 503.734375 -122.398438 500 -122.398438 C 499.46875 -107.46875 498.933594 -99.734375 498.402344 -99.199219 C 498.402344 -98.132812 498.933594 -97.601562 500 -97.601562 C 499.46875 -86.398438 498.933594 -77.066406 498.402344 -69.601562 C 497.867188 -62.132812 497.066406 -56.265625 496 -52 C 496 -50.933594 496.269531 -50.398438 496.800781 -50.398438 L 494.402344 -29.601562 C 494.933594 -28.535156 495.203125 -26.933594 495.203125 -24.800781 L 494.402344 -22.398438 L 495.203125 -20 L 492.800781 -6.398438 C 493.335938 -5.332031 493.601562 -3.464844 493.601562 -0.800781 L 492.800781 0.800781 C 492.800781 1.867188 493.066406 2.398438 493.601562 2.398438 C 493.066406 7.199219 492.667969 12.800781 492.402344 19.199219 C 492.136719 25.601562 492.269531 32.800781 492.800781 40.800781 L 493.601562 47.199219 L 499.203125 45.601562 L 500.800781 48.800781 L 500.800781 51.199219 C 500.800781 58.132812 497.335938 62.667969 490.402344 64.800781 L 480.800781 64 C 479.203125 65.601562 473.601562 66.667969 464 67.199219 C 460.269531 66.132812 455.734375 64.132812 450.402344 61.199219 C 445.066406 58.265625 438.933594 54.132812 432 48.800781 C 428.800781 48.800781 422.667969 45.867188 413.601562 40 C 413.601562 40 407.46875 33.867188 395.203125 21.601562 L 396.800781 17.601562 C 395.203125 17.601562 394.132812 16.535156 393.601562 14.398438 L 393.601562 12 L 394.402344 12 C 394.933594 12 396.800781 13.601562 400 16.800781 L 400 16 C 396.269531 11.734375 393.066406 8 390.402344 4.800781 C 387.734375 1.601562 385.867188 -1.332031 384.800781 -4 L 386.402344 -6.398438 C 385.335938 -6.398438 381.867188 -10.933594 376 -20 L 375.199219 -20 L 375.199219 -19.199219 L 378.402344 -14.398438 C 378.402344 -12.800781 377.601562 -12 376 -12 L 372.800781 -19.199219 L 373.601562 -21.601562 L 372 -27.199219 L 369.601562 -26.398438 L 368.800781 -26.398438 C 368.800781 -27.464844 367.46875 -28.800781 364.800781 -30.398438 L 365.601562 -36.800781 C 363.46875 -36.265625 359.46875 -40.800781 353.601562 -50.398438 C 353.066406 -50.398438 352.269531 -50.933594 351.199219 -52 C 352.269531 -53.066406 352.800781 -53.601562 352.800781 -53.601562 L 351.199219 -53.601562 C 344.800781 -50.398438 340.535156 -48.800781 338.402344 -48.800781 C 338.402344 -49.867188 336.800781 -50.398438 333.601562 -50.398438 L 333.601562 -52 L 334.402344 -54.398438 L 336 -53.601562 L 342.402344 -53.601562 L 342.402344 -57.601562 L 341.601562 -57.601562 C 341.066406 -57.601562 340.269531 -57.601562 339.199219 -57.601562 C 338.132812 -57.601562 336.269531 -57.332031 333.601562 -56.800781 C 333.601562 -58.398438 332 -59.199219 328.800781 -59.199219 C 328.800781 -57.601562 328 -56.800781 326.402344 -56.800781 L 322.402344 -60 L 320.800781 -60 L 322.402344 -57.601562 C 320.269531 -56.535156 315.734375 -55.46875 308.800781 -54.398438 L 302.402344 -54.398438 C 298.132812 -57.066406 294.933594 -62.398438 292.800781 -70.398438 C 291.199219 -70.398438 290.402344 -71.46875 290.402344 -73.601562 L 290.402344 -75.199219 C 290.402344 -79.46875 295.199219 -88.265625 304.800781 -101.601562 L 307.199219 -103.199219 C 307.199219 -102.132812 307.46875 -101.601562 308 -101.601562 C 305.867188 -97.867188 304.800781 -94.132812 304.800781 -90.398438 C 305.335938 -88.265625 306.132812 -87.199219 307.199219 -87.199219 L 310.402344 -87.199219 C 311.46875 -87.199219 314.132812 -88.535156 318.402344 -91.199219 L 316.800781 -94.398438 C 317.867188 -95.46875 318.667969 -96 319.199219 -96 C 320.269531 -95.46875 321.335938 -95.199219 322.402344 -95.199219 L 321.601562 -97.601562 C 321.601562 -99.199219 322.402344 -100.265625 324 -100.800781 C 325.066406 -99.199219 325.867188 -98.667969 326.402344 -99.199219 C 330.667969 -101.332031 333.335938 -103.46875 334.402344 -105.601562 C 333.867188 -105.601562 333.601562 -106.132812 333.601562 -107.199219 C 336.800781 -107.199219 339.46875 -110.398438 341.601562 -116.800781 C 346.402344 -116.800781 349.335938 -118.933594 350.402344 -123.199219 C 353.601562 -123.199219 355.199219 -124.535156 355.199219 -127.199219 L 355.199219 -128 L 352.800781 -127.199219 L 352 -127.199219 C 352 -127.734375 358.933594 -134.402344 372.800781 -147.199219 C 372.800781 -149.332031 376 -153.066406 382.402344 -158.402344 C 381.335938 -164.265625 384.535156 -167.199219 392 -167.199219 C 392 -170.402344 394.667969 -173.867188 400 -177.601562 C 400 -180.265625 402.933594 -185.332031 408.800781 -192.800781 C 409.335938 -192.265625 410.667969 -192 412.800781 -192 C 414.933594 -194.132812 416 -196.535156 416 -199.199219 C 414.933594 -200.265625 414.402344 -201.332031 414.402344 -202.402344 L 422.402344 -209.601562 L 421.601562 -212 C 421.601562 -213.601562 425.335938 -217.601562 432.800781 -224 C 434.402344 -229.867188 436.269531 -232.800781 438.402344 -232.800781 C 439.46875 -232.800781 441.066406 -237.867188 443.203125 -248 C 442.667969 -249.601562 437.335938 -250.402344 427.203125 -250.402344 C 426.667969 -249.867188 425.867188 -249.601562 424.800781 -249.601562 C 424.800781 -250.132812 424.535156 -250.402344 424 -250.402344 C 424 -250.402344 417.066406 -247.734375 403.203125 -242.402344 C 395.203125 -238.132812 389.867188 -233.601562 387.203125 -228.800781 C 386.667969 -229.335938 385.335938 -229.601562 383.203125 -229.601562 C 383.203125 -228.535156 381.601562 -226.667969 378.402344 -224 L 378.402344 -224.800781 C 372 -221.601562 368.269531 -217.867188 367.199219 -213.601562 C 368.269531 -210.402344 363.734375 -205.066406 353.601562 -197.601562 C 350.402344 -197.066406 348.800781 -195.734375 348.800781 -193.601562 L 348.800781 -192.800781 L 351.199219 -195.199219 L 352.800781 -195.199219 L 352.800781 -193.601562 L 350.402344 -188.800781 L 352 -188.800781 L 356.800781 -191.199219 L 356 -193.601562 L 366.402344 -205.601562 C 368 -203.46875 368.800781 -201.332031 368.800781 -199.199219 C 368.800781 -197.066406 366.667969 -196 362.402344 -196 L 363.199219 -193.601562 C 363.199219 -192.535156 361.066406 -191.46875 356.800781 -190.402344 L 357.601562 -188 L 356 -186.402344 C 356 -187.46875 355.734375 -188 355.199219 -188 C 355.199219 -187.46875 353.601562 -185.601562 350.402344 -182.402344 L 355.199219 -182.402344 C 357.335938 -184.535156 359.199219 -185.601562 360.800781 -185.601562 C 360.800781 -184.535156 361.335938 -184 362.402344 -184 C 359.199219 -174.402344 355.734375 -169.332031 352 -168.800781 C 352 -165.066406 349.066406 -160.265625 343.199219 -154.402344 C 343.734375 -150.667969 342.132812 -148.800781 338.402344 -148.800781 C 338.402344 -147.734375 338.132812 -147.199219 337.601562 -147.199219 L 336.800781 -149.601562 L 336.800781 -155.199219 L 337.601562 -157.601562 L 336.800781 -157.601562 C 335.734375 -157.066406 334.402344 -156.800781 332.800781 -156.800781 C 332.269531 -161.601562 331.199219 -164 329.601562 -164 C 329.601562 -160.800781 326.933594 -157.332031 321.601562 -153.601562 L 319.199219 -155.199219 C 318.132812 -154.132812 316.800781 -153.601562 315.199219 -153.601562 C 315.199219 -153.601562 313.867188 -155.734375 311.199219 -160 L 306.402344 -158.402344 C 304.800781 -158.402344 304 -158.933594 304 -160 L 304.800781 -163.199219 L 301.601562 -177.601562 C 301.601562 -180.800781 303.46875 -185.332031 307.199219 -191.199219 C 307.199219 -193.867188 309.867188 -196 315.199219 -197.601562 C 315.199219 -204.535156 321.335938 -212.800781 333.601562 -222.402344 C 333.601562 -226.667969 335.734375 -230.402344 340 -233.601562 L 343.199219 -233.601562 C 343.199219 -234.667969 345.335938 -236.535156 349.601562 -239.199219 L 348.800781 -241.601562 L 348.800781 -244.800781 C 349.867188 -247.46875 352 -250.132812 355.199219 -252.800781 C 358.402344 -255.46875 362.132812 -258.132812 366.402344 -260.800781 L 365.601562 -266.402344 L 371.199219 -272 C 370.667969 -272.535156 370.402344 -273.601562 370.402344 -275.199219 C 376.269531 -275.734375 382.132812 -283.734375 388 -299.199219 C 389.601562 -299.199219 393.066406 -304 398.402344 -313.601562 C 397.335938 -313.601562 396.800781 -313.867188 396.800781 -314.402344 C 402.132812 -321.335938 406 -327.335938 408.402344 -332.402344 C 410.800781 -337.46875 412.269531 -341.601562 412.800781 -344.800781 C 419.734375 -345.335938 423.203125 -346.132812 423.203125 -347.199219 C 413.601562 -361.066406 408.800781 -368.800781 408.800781 -370.402344 L 408 -370.402344 C 403.734375 -366.132812 400.800781 -364 399.203125 -364 L 400 -366.402344 L 400 -367.199219 L 399.203125 -367.199219 C 386.402344 -351.734375 379.46875 -344 378.402344 -344 C 375.734375 -337.601562 374.402344 -333.867188 374.402344 -332.800781 L 372.800781 -332.800781 L 371.199219 -333.601562 C 368.535156 -329.335938 366.933594 -327.199219 366.402344 -327.199219 L 361.601562 -327.199219 L 362.402344 -324 C 362.402344 -318.667969 359.734375 -316 354.402344 -316 L 356.800781 -312.800781 C 347.199219 -305.867188 342.402344 -299.734375 342.402344 -294.402344 C 340.800781 -294.402344 336.535156 -290.132812 329.601562 -281.601562 C 329.601562 -281.601562 325.867188 -278.667969 318.402344 -272.800781 L 317.601562 -272.800781 L 317.601562 -273.601562 L 318.402344 -276 L 317.601562 -276 L 312 -270.402344 L 312.800781 -267.199219 C 312.800781 -266.132812 312 -265.601562 310.402344 -265.601562 L 308.800781 -265.601562 L 306.402344 -266.402344 C 300.535156 -260.535156 297.867188 -257.335938 298.402344 -256.800781 C 298.933594 -256.800781 299.199219 -256.265625 299.199219 -255.199219 C 297.066406 -253.066406 294.667969 -252 292 -252 L 290.402344 -253.601562 L 310.402344 -277.601562 L 312.800781 -276 C 312.800781 -278.667969 320.269531 -289.066406 335.199219 -307.199219 C 341.601562 -318.402344 347.734375 -324 353.601562 -324 L 352 -327.199219 C 357.335938 -335.734375 362.269531 -343.335938 366.800781 -350 C 371.335938 -356.667969 375.734375 -362.667969 380 -368 C 386.402344 -382.402344 393.867188 -394.667969 402.402344 -404.800781 C 401.867188 -406.933594 405.335938 -412.800781 412.800781 -422.402344 L 412.800781 -423.203125 L 408 -423.203125 L 404.800781 -420.800781 C 403.734375 -421.867188 402.402344 -422.132812 400.800781 -421.601562 C 400.800781 -420 400.269531 -419.203125 399.203125 -419.203125 C 399.203125 -420.800781 398.132812 -421.867188 396 -422.402344 L 393.601562 -422.402344 C 389.867188 -415.46875 381.867188 -409.867188 369.601562 -405.601562 C 358.933594 -398.667969 347.46875 -394.402344 335.199219 -392.800781 C 331.46875 -389.601562 325.335938 -388 316.800781 -388 L 304.800781 -387.203125 C 291.46875 -388.800781 281.066406 -393.335938 273.601562 -400.800781 C 273.601562 -401.867188 269.066406 -404.800781 260 -409.601562 C 260 -411.203125 258.132812 -414.667969 254.402344 -420 L 251.199219 -432 C 251.199219 -434.667969 257.867188 -437.867188 271.199219 -441.601562 C 284 -440 291.734375 -439.46875 294.402344 -440 C 297.066406 -440 321.601562 -449.601562 368 -468.800781 L 420.800781 -485.601562 C 421.335938 -487.734375 425.601562 -491.46875 433.601562 -496.800781 L 432.800781 -499.203125 C 434.933594 -502.933594 437.734375 -506.402344 441.203125 -509.601562 C 444.667969 -512.800781 448.800781 -516.269531 453.601562 -520 L 450.402344 -520 L 450.402344 -521.601562 C 455.203125 -528 460.136719 -534.800781 465.203125 -542 C 470.269531 -549.203125 475.46875 -557.070312 480.800781 -565.601562 C 496.269531 -589.070312 504 -603.203125 504 -608 L 504 -609.601562 C 502.402344 -612.269531 492 -620.269531 472.800781 -633.601562 C 457.867188 -613.867188 448 -604 443.203125 -604 C 440 -601.867188 436.269531 -599.734375 432 -597.601562 C 427.734375 -595.46875 422.667969 -593.070312 416.800781 -590.402344 L 410.402344 -592.800781 C 407.203125 -589.070312 397.867188 -582.667969 382.402344 -573.601562 C 382.402344 -573.070312 381.066406 -572 378.402344 -570.402344 L 376 -571.203125 L 372.800781 -557.601562 C 374.402344 -557.601562 375.46875 -556 376 -552.800781 C 374.933594 -550.667969 374.402344 -549.335938 374.402344 -548.800781 L 387.203125 -532.800781 L 388.800781 -533.601562 L 394.402344 -534.402344 L 394.402344 -533.601562 C 412.535156 -538.402344 432 -546.667969 452.800781 -558.402344 L 453.601562 -558.402344 L 453.601562 -556 C 450.933594 -553.867188 447.734375 -551.203125 444 -548 C 440.269531 -544.800781 435.734375 -541.335938 430.402344 -537.601562 C 424.535156 -529.066406 419.46875 -523.46875 415.203125 -520.800781 L 416 -515.203125 C 413.335938 -511.46875 412 -509.066406 412 -508 C 412.535156 -506.933594 412.800781 -505.867188 412.800781 -504.800781 L 410.402344 -501.601562 C 409.867188 -503.203125 409.066406 -504 408 -504 L 404.800781 -501.601562 C 404.269531 -504.800781 403.734375 -506.402344 403.203125 -506.402344 C 401.066406 -504.800781 399.203125 -504 397.601562 -504 C 397.601562 -505.601562 397.066406 -506.402344 396 -506.402344 L 392.800781 -506.402344 C 386.402344 -501.601562 382.933594 -499.203125 382.402344 -499.203125 C 381.335938 -500.269531 379.203125 -500.800781 376 -500.800781 L 376 -502.402344 C 376 -502.933594 377.335938 -503.734375 380 -504.800781 L 380 -505.601562 C 371.46875 -505.601562 366.667969 -505.867188 365.601562 -506.402344 C 364.535156 -505.867188 363.46875 -505.601562 362.402344 -505.601562 C 362.402344 -507.203125 354.933594 -515.734375 340 -531.203125 C 336.800781 -538.667969 335.199219 -542.667969 335.199219 -543.203125 L 335.199219 -552.800781 C 341.066406 -562.933594 346.269531 -572.269531 350.800781 -580.800781 C 355.335938 -589.335938 359.46875 -597.070312 363.199219 -604 C 379.734375 -636.003906 387.734375 -656.269531 387.203125 -664.800781 L 387.203125 -669.601562 C 385.066406 -676.003906 384 -680.535156 384 -683.203125 C 384 -684.800781 393.066406 -689.867188 411.203125 -698.402344 Z M 176.800781 -665.601562 C 176.800781 -662.402344 180 -660.269531 186.402344 -659.203125 L 206.402344 -644.800781 C 207.46875 -644.800781 212.800781 -638.933594 222.402344 -627.203125 C 226.132812 -627.203125 228.265625 -624.800781 228.800781 -620 C 229.335938 -620 230.933594 -615.46875 233.601562 -606.402344 C 234.132812 -606.402344 234.402344 -605.867188 234.402344 -604.800781 C 234.402344 -603.203125 233.867188 -602.402344 232.800781 -602.402344 C 233.867188 -598.667969 236.535156 -593.070312 240.800781 -585.601562 C 240.800781 -576 240 -571.203125 238.402344 -571.203125 L 239.199219 -565.601562 C 236.535156 -562.933594 235.199219 -560.800781 235.199219 -559.203125 C 230.402344 -539.46875 225.867188 -529.066406 221.601562 -528 C 217.335938 -524.800781 214.933594 -519.734375 214.402344 -512.800781 C 209.601562 -505.867188 205.601562 -499.734375 202.402344 -494.402344 C 199.199219 -489.066406 196.800781 -485.066406 195.199219 -482.402344 C 182.933594 -461.601562 174.933594 -450.132812 171.199219 -448 L 171.199219 -447.203125 L 172 -447.203125 C 172 -447.203125 173.066406 -447.734375 175.199219 -448.800781 C 179.46875 -447.734375 181.601562 -446.933594 181.601562 -446.402344 C 182.132812 -446.933594 182.933594 -447.203125 184 -447.203125 C 190.402344 -447.734375 197.332031 -447.203125 204.800781 -445.601562 C 205.867188 -446.667969 206.933594 -447.203125 208 -447.203125 C 208 -446.132812 215.734375 -441.867188 231.199219 -434.402344 C 238.132812 -432.269531 245.601562 -425.066406 253.601562 -412.800781 C 257.867188 -400 260 -393.601562 260 -393.601562 C 260 -393.066406 260.132812 -392.269531 260.402344 -391.203125 C 260.667969 -390.132812 261.066406 -388.535156 261.601562 -386.402344 C 261.601562 -380 258.132812 -370.933594 251.199219 -359.199219 C 247.46875 -349.066406 243.867188 -339.601562 240.402344 -330.800781 C 236.933594 -322 233.066406 -314.132812 228.800781 -307.199219 C 228.800781 -304 226.933594 -299.734375 223.199219 -294.402344 C 223.734375 -294.402344 224 -294.132812 224 -293.601562 C 213.335938 -278.132812 207.46875 -267.199219 206.402344 -260.800781 C 209.066406 -251.734375 211.199219 -244.265625 212.800781 -238.402344 C 214.402344 -232.535156 215.46875 -228.535156 216 -226.402344 L 216 -220 C 215.46875 -210.933594 215.066406 -203.734375 214.800781 -198.402344 C 214.535156 -193.066406 214.402344 -189.867188 214.402344 -188.800781 L 214.402344 -178.402344 L 211.199219 -169.601562 L 210.402344 -169.601562 L 210.402344 -167.199219 C 212 -165.601562 212.800781 -164 212.800781 -162.402344 L 211.199219 -157.601562 C 211.199219 -157.066406 211.335938 -155.601562 211.601562 -153.199219 C 211.867188 -150.800781 212.265625 -146.933594 212.800781 -141.601562 C 212.265625 -141.601562 212 -141.066406 212 -140 L 213.601562 -140 C 214.132812 -140.535156 216 -143.46875 219.199219 -148.800781 C 222.402344 -154.132812 226.667969 -161.867188 232 -172 L 249.601562 -210.402344 L 248.800781 -213.601562 C 248.800781 -214.667969 251.734375 -217.601562 257.601562 -222.402344 C 259.734375 -225.601562 261.066406 -228.800781 261.601562 -232 L 260.800781 -234.402344 L 260.800781 -235.199219 L 266.402344 -235.199219 L 276.800781 -253.601562 L 275.199219 -256 L 275.199219 -256.800781 C 276.800781 -256.800781 280.800781 -262.402344 287.199219 -273.601562 L 290.402344 -273.601562 L 290.402344 -272.800781 C 288.265625 -266.402344 285.601562 -261.601562 282.402344 -258.402344 C 282.933594 -255.734375 282.402344 -253.066406 280.800781 -250.402344 C 281.335938 -248.265625 282.132812 -247.199219 283.199219 -247.199219 C 278.402344 -231.199219 273.601562 -223.199219 268.800781 -223.199219 C 268.800781 -221.601562 268 -218.667969 266.402344 -214.402344 C 266.933594 -213.867188 267.199219 -212.535156 267.199219 -210.402344 C 266.132812 -206.132812 264.535156 -201.867188 262.402344 -197.601562 C 260.265625 -193.332031 257.335938 -189.066406 253.601562 -184.800781 C 254.667969 -183.734375 255.199219 -183.199219 255.199219 -183.199219 C 252 -183.199219 250.402344 -182.132812 250.402344 -180 C 251.46875 -180 253.066406 -178.132812 255.199219 -174.402344 C 255.199219 -171.199219 254.132812 -168.535156 252 -166.402344 L 252 -164.800781 L 252.800781 -162.402344 C 251.734375 -161.867188 249.867188 -160.265625 247.199219 -157.601562 L 248 -155.199219 C 248 -155.199219 247.199219 -153.867188 245.601562 -151.199219 C 245.601562 -150.132812 246.933594 -148.800781 249.601562 -147.199219 C 247.46875 -143.46875 246.667969 -140.265625 247.199219 -137.601562 C 247.734375 -136.535156 248 -135.199219 248 -133.601562 C 244.800781 -129.867188 242.402344 -128 240.800781 -128 L 241.601562 -125.601562 C 240.535156 -125.601562 240 -124.800781 240 -123.199219 C 240 -122.667969 241.335938 -121.066406 244 -118.398438 C 244.535156 -117.867188 244.800781 -116.800781 244.800781 -115.199219 L 239.199219 -100.800781 L 242.402344 -100.800781 L 242.402344 -92 C 240.800781 -89.867188 240 -86.398438 240 -81.601562 L 240.800781 -81.601562 C 241.335938 -82.132812 242.402344 -82.398438 244 -82.398438 L 244.800781 -80 L 244.800781 -72.800781 C 242.667969 -68 241.335938 -65.601562 240.800781 -65.601562 L 242.402344 -64 C 239.734375 -56 238.402344 -50.398438 238.402344 -47.199219 L 238.402344 -44.800781 C 238.402344 -42.667969 239.199219 -40.265625 240.800781 -37.601562 C 238.667969 -31.199219 237.601562 -27.199219 237.601562 -25.601562 L 238.402344 -23.199219 C 238.933594 -16.800781 236 -10.398438 229.601562 -4 C 229.601562 -1.332031 227.46875 0.800781 223.199219 2.398438 C 220 7.734375 213.066406 10.933594 202.402344 12 C 191.734375 8.265625 185.867188 5.066406 184.800781 2.398438 L 183.199219 4 L 182.402344 4 C 181.332031 4 179.46875 1.867188 176.800781 -2.398438 L 174.402344 -1.601562 L 172.800781 -1.601562 C 171.734375 -1.601562 167.46875 -6.132812 160 -15.199219 C 157.332031 -15.199219 153.332031 -19.464844 148 -28 L 143.199219 -48.800781 L 144 -48.800781 L 143.199219 -51.199219 C 146.402344 -60.265625 148.800781 -82.398438 150.402344 -117.601562 C 152.535156 -117.601562 153.066406 -120 152 -124.800781 L 151.199219 -127.199219 C 152.800781 -136.265625 154.402344 -140.800781 156 -140.800781 C 156 -142.402344 155.46875 -143.199219 154.402344 -143.199219 C 154.933594 -145.867188 155.332031 -151.734375 155.601562 -160.800781 C 155.867188 -169.867188 156 -181.867188 156 -196.800781 L 153.601562 -197.601562 L 152.800781 -197.601562 C 151.199219 -196.535156 150.667969 -195.734375 151.199219 -195.199219 C 152.800781 -195.199219 153.601562 -194.402344 153.601562 -192.800781 C 154.132812 -192.265625 153.066406 -190.667969 150.402344 -188 C 149.867188 -188.535156 148.535156 -188.800781 146.402344 -188.800781 C 146.402344 -188.265625 144.800781 -186.402344 141.601562 -183.199219 C 144.265625 -183.199219 145.601562 -182.402344 145.601562 -180.800781 L 132.800781 -172 C 132.800781 -168.800781 132 -167.199219 130.402344 -167.199219 L 131.199219 -165.601562 L 121.601562 -150.402344 L 119.199219 -150.402344 C 113.867188 -150.402344 109.601562 -155.199219 106.398438 -164.800781 C 102.667969 -165.867188 100.535156 -167.46875 100 -169.601562 C 91.46875 -172.800781 85.867188 -174.402344 83.199219 -174.402344 C 81.601562 -176.535156 77.867188 -178.933594 72 -181.601562 C 72 -183.734375 69.601562 -184.800781 64.800781 -184.800781 C 61.066406 -190.667969 58.398438 -197.332031 56.800781 -204.800781 C 53.601562 -204.800781 49.867188 -211.734375 45.601562 -225.601562 C 45.601562 -229.335938 46.132812 -231.199219 47.199219 -231.199219 L 45.601562 -236 L 45.601562 -239.199219 C 49.867188 -251.46875 53.867188 -257.601562 57.601562 -257.601562 C 57.601562 -261.867188 62.132812 -268.535156 71.199219 -277.601562 C 71.734375 -281.335938 75.46875 -285.066406 82.398438 -288.800781 C 88.265625 -297.867188 92.265625 -302.402344 94.398438 -302.402344 C 94.398438 -308.269531 100.800781 -317.867188 113.601562 -331.199219 L 118.398438 -341.601562 C 118.933594 -343.734375 121.332031 -345.601562 125.601562 -347.199219 C 125.601562 -348.800781 139.46875 -367.46875 167.199219 -403.203125 C 171.46875 -411.734375 173.601562 -417.066406 173.601562 -419.203125 L 173.601562 -420.800781 L 167.199219 -420.800781 C 157.066406 -418.667969 149.601562 -414.667969 144.800781 -408.800781 C 142.667969 -408.800781 140 -404.800781 136.800781 -396.800781 C 135.734375 -396.800781 132.800781 -393.066406 128 -385.601562 C 119.46875 -376 113.867188 -370.132812 111.199219 -368 C 111.199219 -364.800781 107.46875 -361.867188 100 -359.199219 C 100 -357.066406 97.867188 -354.667969 93.601562 -352 L 91.199219 -352 C 88 -356.269531 82.132812 -359.46875 73.601562 -361.601562 L 73.601562 -363.199219 L 71.199219 -361.601562 L 68.800781 -361.601562 C 66.132812 -365.335938 61.332031 -368.269531 54.398438 -370.402344 C 49.066406 -374.132812 44.535156 -379.734375 40.800781 -387.203125 C 38.667969 -386.667969 37.066406 -389.601562 36 -396 C 33.867188 -402.933594 32.265625 -406.402344 31.199219 -406.402344 C 32.800781 -429.335938 36.265625 -440.800781 41.601562 -440.800781 C 52.265625 -456.269531 61.066406 -469.867188 68 -481.601562 C 73.867188 -491.203125 80.265625 -501.867188 87.199219 -513.601562 C 94.132812 -525.335938 101.332031 -538.136719 108.800781 -552 C 114.667969 -561.601562 119.734375 -570.402344 124 -578.402344 C 128.265625 -586.402344 131.46875 -593.601562 133.601562 -600 C 133.066406 -600.535156 132.800781 -601.867188 132.800781 -604 C 133.867188 -604 134.402344 -605.070312 134.402344 -607.203125 C 133.332031 -607.203125 132.800781 -608 132.800781 -609.601562 C 134.402344 -620.269531 135.199219 -630.667969 135.199219 -640.800781 L 136.800781 -640.800781 L 135.199219 -643.203125 C 139.46875 -653.867188 144.265625 -659.203125 149.601562 -659.203125 C 149.601562 -658.136719 149.867188 -657.601562 150.402344 -657.601562 L 152 -664.003906 L 157.601562 -663.203125 L 159.199219 -664.003906 L 161.601562 -663.203125 C 163.734375 -663.734375 166.402344 -664.003906 169.601562 -664.003906 L 169.601562 -663.203125 C 172.265625 -664.800781 174.667969 -665.601562 176.800781 -665.601562 Z M 441.601562 -598.402344 L 441.601562 -600 L 442.402344 -600 L 442.402344 -598.402344 Z M 369.601562 -573.601562 C 369.601562 -573.601562 369.066406 -572 368 -568.800781 L 369.601562 -568.800781 C 371.734375 -569.867188 372.800781 -570.402344 372.800781 -570.402344 C 372.800781 -572 371.734375 -573.070312 369.601562 -573.601562 Z M 564.800781 -531.203125 L 564 -531.203125 C 564 -530.136719 564.800781 -528.800781 566.402344 -527.203125 L 566.402344 -528.800781 C 566.402344 -530.402344 565.867188 -531.203125 564.800781 -531.203125 Z M 473.601562 -519.203125 L 474.402344 -519.203125 C 476 -519.203125 477.066406 -520.269531 477.601562 -522.402344 L 476.800781 -522.402344 C 475.203125 -522.402344 474.136719 -521.335938 473.601562 -519.203125 Z M 514.402344 -517.601562 L 514.402344 -518.402344 L 516.800781 -519.203125 L 516.800781 -517.601562 Z M 484.800781 -516 L 484 -516 L 484 -513.601562 L 484.800781 -513.601562 Z M 491.203125 -504 L 497.601562 -504 L 497.601562 -501.601562 L 492.800781 -501.601562 C 491.734375 -501.601562 491.203125 -502.402344 491.203125 -504 Z M 495.203125 -449.601562 L 491.203125 -447.203125 C 490.667969 -446.667969 490.402344 -446.933594 490.402344 -448 L 485.601562 -446.402344 L 478.402344 -446.402344 L 474.402344 -442.402344 L 473.601562 -442.402344 L 473.601562 -444.800781 C 465.066406 -444.800781 457.335938 -436.535156 450.402344 -420 C 447.734375 -414.667969 443.734375 -410.132812 438.402344 -406.402344 L 434.402344 -396.800781 C 435.46875 -396.800781 436 -396.535156 436 -396 C 433.867188 -394.402344 432 -393.601562 430.402344 -393.601562 L 432 -391.203125 L 432 -389.601562 C 425.066406 -385.335938 422.132812 -382.667969 423.203125 -381.601562 L 424.800781 -380.800781 L 425.601562 -380.800781 L 425.601562 -382.402344 L 428 -382.402344 C 428 -381.335938 434.132812 -378.667969 446.402344 -374.402344 C 451.203125 -373.335938 457.066406 -370.402344 464 -365.601562 C 464.535156 -366.132812 465.601562 -366.402344 467.203125 -366.402344 C 468.269531 -363.734375 473.335938 -360 482.402344 -355.199219 C 482.402344 -353.601562 488.269531 -347.734375 500 -337.601562 C 500 -336.535156 502.402344 -332.269531 507.203125 -324.800781 C 507.203125 -324.800781 508 -321.867188 509.601562 -316 L 509.601562 -312 L 508.800781 -304.800781 C 509.335938 -304.269531 509.867188 -302.402344 510.402344 -299.199219 C 510.933594 -296 511.734375 -291.734375 512.800781 -286.402344 C 512.269531 -284.265625 511.867188 -282.402344 511.601562 -280.800781 C 511.335938 -279.199219 511.203125 -277.867188 511.203125 -276.800781 C 517.066406 -281.601562 520 -285.066406 520 -287.199219 L 524.800781 -286.402344 L 526.402344 -286.402344 L 526.402344 -288 C 526.402344 -289.066406 525.867188 -290.667969 524.800781 -292.800781 C 524.800781 -293.867188 526.933594 -296.535156 531.203125 -300.800781 L 533.601562 -300 C 535.203125 -300 536 -300.800781 536 -302.402344 L 536 -303.199219 L 535.203125 -303.199219 L 533.601562 -301.601562 L 533.601562 -303.199219 C 537.335938 -311.199219 540.800781 -316.269531 544 -318.402344 L 544.800781 -318.402344 L 544.800781 -316 L 547.203125 -316 C 547.203125 -316.535156 548.535156 -319.46875 551.203125 -324.800781 L 551.203125 -326.402344 L 549.601562 -325.601562 L 549.601562 -327.199219 L 560.800781 -345.601562 L 563.203125 -343.199219 L 565.601562 -343.199219 L 565.601562 -345.601562 C 563.46875 -345.601562 562.402344 -346.402344 562.402344 -348 C 562.402344 -348.535156 565.335938 -351.734375 571.203125 -357.601562 C 570.667969 -358.667969 570.402344 -359.734375 570.402344 -360.800781 C 576.269531 -365.601562 579.203125 -369.601562 579.203125 -372.800781 C 578.667969 -373.867188 578.402344 -374.933594 578.402344 -376 C 578.933594 -376 579.203125 -376.535156 579.203125 -377.601562 L 576.800781 -377.601562 C 576.800781 -374.402344 574.136719 -372 568.800781 -370.402344 C 568.269531 -370.933594 567.46875 -371.199219 566.402344 -371.199219 L 566.402344 -373.601562 C 578.667969 -385.867188 584.800781 -394.667969 584.800781 -400 C 589.070312 -407.46875 591.46875 -414.132812 592 -420 C 601.070312 -422.132812 606.402344 -423.203125 608 -423.203125 C 608 -424.800781 607.46875 -425.601562 606.402344 -425.601562 L 599.203125 -424 C 599.203125 -425.601562 597.070312 -427.203125 592.800781 -428.800781 C 591.734375 -427.734375 590.402344 -427.203125 588.800781 -427.203125 L 575.203125 -432.800781 C 573.070312 -431.734375 571.46875 -431.203125 570.402344 -431.203125 C 567.203125 -434.402344 565.601562 -436.800781 565.601562 -438.402344 L 558.402344 -437.601562 C 551.46875 -440.800781 547.46875 -442.402344 546.402344 -442.402344 C 545.335938 -442.402344 544.800781 -441.867188 544.800781 -440.800781 C 539.46875 -442.402344 533.066406 -443.203125 525.601562 -443.203125 L 524.800781 -443.203125 C 524.269531 -443.203125 524 -443.46875 524 -444 L 521.601562 -442.402344 C 520.535156 -442.402344 520 -443.46875 520 -445.601562 C 520.535156 -446.132812 521.335938 -446.402344 522.402344 -446.402344 L 522.402344 -448 C 514.402344 -447.46875 510.402344 -448 510.402344 -449.601562 L 505.601562 -448.800781 L 500 -448.800781 C 498.933594 -448.269531 497.335938 -448.535156 495.203125 -449.601562 Z M 433.601562 -411.203125 L 435.203125 -411.203125 C 435.203125 -412.800781 436 -413.601562 437.601562 -413.601562 L 437.601562 -416 C 436.535156 -416 435.203125 -414.402344 433.601562 -411.203125 Z M 424 -392.800781 L 424 -391.203125 L 424.800781 -391.203125 C 425.867188 -391.203125 427.203125 -392.535156 428.800781 -395.203125 L 428.800781 -396.800781 L 427.203125 -396.800781 C 425.066406 -396.269531 424 -394.933594 424 -392.800781 Z M 422.402344 -389.601562 L 420.800781 -389.601562 L 420.800781 -388 L 422.402344 -388 Z M 416.800781 -382.402344 L 420 -382.402344 C 421.066406 -382.402344 421.867188 -383.46875 422.402344 -385.601562 L 422.402344 -387.203125 C 418.667969 -386.667969 416.800781 -385.066406 416.800781 -382.402344 Z M 583.203125 -383.203125 L 580.800781 -383.203125 C 580.800781 -383.203125 580.269531 -381.601562 579.203125 -378.402344 L 580.800781 -377.601562 L 583.203125 -381.601562 Z M 358.402344 -331.199219 L 356 -331.199219 L 356 -330.402344 L 358.402344 -330.402344 Z M 624.800781 -336 L 625.601562 -336 C 624 -333.867188 623.203125 -332.269531 623.203125 -331.199219 L 621.601562 -331.199219 L 621.601562 -332.800781 C 621.601562 -334.402344 622.667969 -335.46875 624.800781 -336 Z M 584 -326.402344 L 586.402344 -326.402344 L 586.402344 -328.800781 C 584.800781 -328.269531 584 -327.46875 584 -326.402344 Z M 349.601562 -319.199219 L 347.199219 -319.199219 C 347.199219 -317.601562 346.933594 -316.535156 346.402344 -316 L 349.601562 -316 Z M 581.601562 -320.800781 L 580.800781 -320.800781 L 580.800781 -318.402344 L 581.601562 -318.402344 Z M 597.601562 -320 L 595.203125 -320 L 595.203125 -319.199219 L 597.601562 -319.199219 Z M 544 -316 L 542.402344 -316 L 542.402344 -312.800781 L 544 -312.800781 Z M 588 -314.402344 L 584 -310.402344 C 582.933594 -311.46875 581.867188 -312 580.800781 -312 L 580.800781 -309.601562 L 586.402344 -309.601562 C 588 -311.199219 589.335938 -312 590.402344 -312 L 590.402344 -314.402344 Z M 338.402344 -300 L 340 -300 L 340 -302.402344 C 338.933594 -302.402344 338.402344 -301.601562 338.402344 -300 Z M 300 -295.199219 L 300 -298.402344 L 300.800781 -298.402344 L 300.800781 -295.199219 Z M 331.199219 -296.800781 L 331.199219 -294.402344 L 333.601562 -294.402344 C 334.667969 -294.402344 335.199219 -295.199219 335.199219 -296.800781 L 335.199219 -297.601562 L 334.402344 -297.601562 C 333.867188 -297.066406 332.800781 -296.800781 331.199219 -296.800781 Z M 587.203125 -298.402344 L 589.601562 -296.800781 C 589.601562 -298.402344 589.867188 -299.46875 590.402344 -300 L 589.601562 -300 C 588 -300 587.203125 -299.46875 587.203125 -298.402344 Z M 528 -295.199219 C 528.535156 -295.199219 528.800781 -294.933594 528.800781 -294.402344 L 531.203125 -295.199219 L 532 -295.199219 L 532 -292.800781 C 533.066406 -292.800781 533.601562 -293.601562 533.601562 -295.199219 C 532.535156 -295.199219 532 -296 532 -297.601562 L 530.402344 -297.601562 C 528.800781 -297.066406 528 -296.269531 528 -295.199219 Z M 559.203125 -298.402344 L 556 -298.402344 L 556.800781 -296 L 557.601562 -296 C 558.667969 -296 559.203125 -296.800781 559.203125 -298.402344 Z M 571.203125 -299.199219 C 572.800781 -298.667969 573.601562 -297.601562 573.601562 -296 L 568.800781 -293.601562 L 569.601562 -292 L 569.601562 -288 L 567.203125 -288 C 567.203125 -288 566.667969 -289.601562 565.601562 -292.800781 C 565.601562 -293.867188 567.46875 -296 571.203125 -299.199219 Z M 575.203125 -294.402344 L 575.203125 -297.601562 L 578.402344 -297.601562 L 578.402344 -294.402344 Z M 328 -287.199219 L 325.601562 -286.402344 L 325.601562 -284.800781 C 327.199219 -284.800781 328 -285.601562 328 -287.199219 Z M 531.203125 -292.800781 L 529.601562 -292.800781 L 529.601562 -291.199219 L 531.203125 -291.199219 Z M 587.203125 -294.402344 L 588 -292 L 584 -283.199219 L 582.402344 -284.800781 L 576.800781 -281.601562 L 576.800781 -283.199219 C 579.46875 -290.667969 582.933594 -294.402344 587.203125 -294.402344 Z M 284.800781 -280.800781 L 287.199219 -282.402344 L 288 -282.402344 L 288 -280.800781 C 288 -280.265625 287.46875 -279.46875 286.402344 -278.402344 Z M 420.800781 -254.402344 L 421.601562 -254.402344 C 440.800781 -260.265625 450.402344 -265.066406 450.402344 -268.800781 L 449.601562 -278.402344 L 451.203125 -281.601562 L 448 -283.199219 L 446.402344 -283.199219 C 441.601562 -281.066406 435.734375 -275.199219 428.800781 -265.601562 C 424.535156 -264.535156 421.867188 -260.800781 420.800781 -254.402344 Z M 561.601562 -284.800781 L 563.203125 -284.800781 C 563.203125 -283.734375 562.402344 -283.199219 560.800781 -283.199219 L 560 -283.199219 C 560 -284.265625 560.535156 -284.800781 561.601562 -284.800781 Z M 428 -279.199219 L 424.800781 -279.199219 C 424.800781 -278.132812 423.203125 -276 420 -272.800781 L 420 -272 L 424 -272 C 424 -273.066406 425.335938 -274.933594 428 -277.601562 Z M 568.800781 -282.402344 L 570.402344 -283.199219 L 572 -283.199219 L 572 -282.402344 C 572 -280.800781 571.203125 -280 569.601562 -280 Z M 280.800781 -269.601562 L 280.800781 -272.800781 L 282.402344 -272.800781 L 282.402344 -270.402344 Z M 536.800781 -272 L 536.800781 -269.601562 L 534.402344 -269.601562 C 534.402344 -270.667969 535.203125 -271.46875 536.800781 -272 Z M 420.800781 -262.402344 L 417.601562 -264.800781 L 416.800781 -261.601562 L 420 -261.601562 L 420 -260 L 420.800781 -260 Z M 390.402344 -253.601562 C 391.46875 -252.535156 393.066406 -252.265625 395.203125 -252.800781 L 395.203125 -251.199219 C 394.667969 -249.066406 392.535156 -248 388.800781 -248 L 388 -248 L 388 -249.601562 L 387.203125 -249.601562 L 371.199219 -240 L 371.199219 -237.601562 L 373.601562 -238.402344 L 376 -238.402344 C 377.601562 -238.402344 378.402344 -237.867188 378.402344 -236.800781 C 374.132812 -234.132812 371.46875 -232.800781 370.402344 -232.800781 C 369.335938 -233.335938 368.269531 -233.601562 367.199219 -233.601562 L 367.199219 -232.800781 L 368 -230.402344 C 367.46875 -230.402344 367.199219 -230.132812 367.199219 -229.601562 L 372 -227.199219 C 373.601562 -227.199219 377.066406 -229.867188 382.402344 -235.199219 C 385.601562 -235.199219 391.46875 -237.601562 400 -242.402344 L 398.402344 -244 L 405.601562 -256 L 399.203125 -256 C 399.203125 -253.867188 398.402344 -252.800781 396.800781 -252.800781 L 396 -252.800781 L 395.203125 -256.800781 L 392.800781 -256.800781 C 391.734375 -256.800781 390.933594 -255.734375 390.402344 -253.601562 Z M 406.402344 -255.199219 L 408 -255.199219 L 408.800781 -252.800781 L 405.601562 -252.800781 L 405.601562 -248 C 412 -250.667969 415.203125 -253.335938 415.203125 -256 L 415.203125 -257.601562 L 414.402344 -257.601562 L 410.402344 -255.199219 C 410.402344 -256.800781 409.601562 -257.601562 408 -257.601562 C 406.933594 -256.535156 406.402344 -255.734375 406.402344 -255.199219 Z M 288.800781 -252.800781 L 289.601562 -250.402344 L 285.601562 -246.402344 C 285.066406 -246.933594 284.265625 -247.199219 283.199219 -247.199219 C 283.199219 -248.800781 285.066406 -250.667969 288.800781 -252.800781 Z M 265.601562 -244 L 265.601562 -245.601562 L 267.199219 -245.601562 L 267.199219 -244 Z M 265.601562 -242.402344 L 265.601562 -241.601562 C 266.667969 -240 266.132812 -239.199219 264 -239.199219 L 264 -240.800781 C 264 -241.867188 264.535156 -242.402344 265.601562 -242.402344 Z M 369.601562 -204.800781 L 369.601562 -208 L 371.199219 -208 L 372 -204.800781 Z M 353.601562 -201.601562 L 356 -201.601562 L 356 -199.199219 L 353.601562 -199.199219 Z M 311.199219 -200.800781 L 314.402344 -200.800781 L 314.402344 -198.402344 L 308.800781 -197.601562 L 308.800781 -198.402344 C 309.867188 -200 310.667969 -200.800781 311.199219 -200.800781 Z M 302.402344 -187.199219 L 302.402344 -192 L 305.601562 -192 L 305.601562 -188.800781 C 304.535156 -188.800781 303.46875 -188.265625 302.402344 -187.199219 Z M 367.199219 -190.402344 L 367.199219 -192.800781 L 368.800781 -192.800781 C 368.800781 -191.199219 368.269531 -190.402344 367.199219 -190.402344 Z M 363.199219 -188 L 366.402344 -190.402344 L 367.199219 -190.402344 L 367.199219 -188 C 367.199219 -186.402344 366.667969 -185.601562 365.601562 -185.601562 C 364 -185.601562 363.199219 -186.402344 363.199219 -188 Z M 344.800781 -183.199219 L 344.800781 -180.800781 L 349.601562 -180.800781 C 349.066406 -182.933594 348.535156 -184 348 -184 C 347.46875 -183.46875 346.402344 -183.199219 344.800781 -183.199219 Z M 344 -178.402344 L 342.402344 -178.402344 L 342.402344 -176.800781 L 344 -176.800781 Z M 432.800781 -166.402344 L 432.800781 -165.601562 L 437.601562 -164 L 439.203125 -164 C 440.269531 -164 441.867188 -164.535156 444 -165.601562 C 444.535156 -165.066406 445.335938 -164.800781 446.402344 -164.800781 L 448 -167.199219 L 447.203125 -175.199219 C 438.667969 -172 433.867188 -169.066406 432.800781 -166.402344 Z M 324 -164 L 323.199219 -164 C 323.199219 -162.933594 322.402344 -161.066406 320.800781 -158.402344 L 324 -158.402344 Z M 432 -161.601562 L 418.402344 -159.199219 L 418.402344 -154.402344 L 419.203125 -152 L 421.601562 -152.800781 C 430.132812 -152.800781 434.667969 -151.734375 435.203125 -149.601562 C 430.402344 -149.066406 428 -147.199219 428 -144 L 429.601562 -142.402344 L 432.800781 -143.199219 L 436 -145.601562 L 439.203125 -143.199219 L 440 -143.199219 L 439.203125 -145.601562 C 439.734375 -146.667969 440 -148 440 -149.601562 L 443.203125 -149.601562 C 443.203125 -146.933594 443.734375 -145.601562 444.800781 -145.601562 L 446.402344 -145.601562 L 446.402344 -155.199219 L 444.800781 -155.199219 C 444.800781 -152.535156 444.269531 -151.199219 443.203125 -151.199219 L 441.601562 -153.601562 L 441.601562 -155.199219 L 443.203125 -156.800781 C 438.402344 -156.800781 434.667969 -158.402344 432 -161.601562 Z M 434.402344 -154.402344 L 434.402344 -156.800781 L 435.203125 -156.800781 L 435.203125 -154.402344 Z M 413.601562 -152.800781 L 411.203125 -149.601562 L 411.203125 -148.800781 L 413.601562 -148.800781 C 415.734375 -149.867188 417.066406 -150.402344 417.601562 -150.402344 L 417.601562 -152 C 415.46875 -152 414.132812 -152.265625 413.601562 -152.800781 Z M 409.601562 -148.800781 L 407.203125 -148.800781 L 408 -145.601562 L 409.601562 -145.601562 Z M 424 -146.402344 L 418.402344 -146.402344 L 418.402344 -144.800781 L 424 -144 Z M 402.402344 -144.800781 L 401.601562 -144.800781 L 401.601562 -141.601562 L 402.402344 -141.601562 Z M 444 -143.199219 L 441.601562 -143.199219 C 441.601562 -141.066406 439.46875 -138.667969 435.203125 -136 L 433.601562 -136 C 433.066406 -136 432.800781 -136.265625 432.800781 -136.800781 C 431.203125 -135.734375 429.601562 -133.867188 428 -131.199219 L 430.402344 -131.199219 L 430.402344 -130.402344 C 430.402344 -128.800781 425.867188 -124.265625 416.800781 -116.800781 L 411.203125 -120 C 406.933594 -114.132812 403.46875 -111.199219 400.800781 -111.199219 C 400.269531 -114.398438 398.933594 -116 396.800781 -116 L 396.800781 -117.601562 C 401.066406 -117.601562 402.667969 -118.398438 401.601562 -120 L 401.601562 -123.199219 C 400.535156 -123.199219 400 -123.734375 400 -124.800781 L 397.601562 -123.199219 L 394.402344 -123.199219 C 393.335938 -123.199219 392.800781 -123.46875 392.800781 -124 C 389.601562 -122.398438 388 -121.332031 388 -120.800781 C 388.535156 -119.199219 388.800781 -117.867188 388.800781 -116.800781 C 382.933594 -115.734375 380 -114.667969 380 -113.601562 C 382.667969 -109.332031 384 -107.199219 384 -107.199219 L 384 -104.800781 C 384 -104.265625 383.46875 -103.46875 382.402344 -102.398438 L 378.402344 -107.199219 C 378.402344 -106.132812 376.800781 -103.46875 373.601562 -99.199219 L 373.601562 -97.601562 L 375.199219 -97.601562 C 383.203125 -98.667969 390.132812 -103.199219 396 -111.199219 L 396.800781 -111.199219 C 398.402344 -111.199219 399.203125 -110.398438 399.203125 -108.800781 C 399.203125 -108.265625 397.867188 -106.667969 395.203125 -104 C 395.203125 -105.066406 394.933594 -105.601562 394.402344 -105.601562 L 394.402344 -104 C 394.402344 -102.398438 395.46875 -101.601562 397.601562 -101.601562 L 397.601562 -100.800781 C 397.601562 -99.199219 396.800781 -98.398438 395.203125 -98.398438 L 392 -98.398438 L 386.402344 -100 C 377.867188 -93.601562 368.800781 -90.398438 359.199219 -90.398438 L 356 -90.398438 L 356 -93.601562 C 357.601562 -94.132812 358.800781 -94.535156 359.601562 -94.800781 C 360.402344 -95.066406 361.066406 -95.199219 361.601562 -95.199219 L 361.601562 -97.601562 L 356.800781 -96 C 356.800781 -96 355.734375 -96.535156 353.601562 -97.601562 C 352.535156 -96.535156 351.46875 -96 350.402344 -96 C 350.402344 -92.800781 351.46875 -90.132812 353.601562 -88 C 353.066406 -87.46875 352.800781 -85.332031 352.800781 -81.601562 L 359.199219 -78.398438 C 359.199219 -81.066406 361.066406 -82.667969 364.800781 -83.199219 C 364.800781 -79.46875 367.46875 -77.601562 372.800781 -77.601562 C 372.800781 -79.199219 374.402344 -80.800781 377.601562 -82.398438 L 380 -82.398438 L 380 -81.601562 C 380 -80 378.933594 -79.199219 376.800781 -79.199219 L 376.800781 -78.398438 L 378.402344 -78.398438 L 378.402344 -76 C 376.800781 -76 373.066406 -74.933594 367.199219 -72.800781 L 367.199219 -74.398438 C 365.066406 -72.800781 362.132812 -72 358.402344 -72 L 359.199219 -68.800781 C 359.199219 -67.199219 358.667969 -66.398438 357.601562 -66.398438 C 356.535156 -68.535156 356 -70.132812 356 -71.199219 L 351.199219 -71.199219 C 350.132812 -71.199219 349.601562 -70.398438 349.601562 -68.800781 C 352.269531 -65.066406 353.601562 -63.199219 353.601562 -63.199219 L 364.800781 -68.800781 L 364.800781 -64.800781 C 363.734375 -64.800781 360.269531 -62.667969 354.402344 -58.398438 L 353.601562 -58.398438 L 353.601562 -57.601562 L 359.199219 -57.601562 L 359.199219 -55.199219 L 356.800781 -54.398438 L 354.402344 -56 C 354.402344 -54.398438 354.132812 -53.332031 353.601562 -52.800781 C 358.402344 -52.800781 360.800781 -49.601562 360.800781 -43.199219 C 363.46875 -44.265625 368 -39.464844 374.402344 -28.800781 C 376 -28.800781 377.867188 -27.199219 380 -24 C 378.933594 -21.867188 378.402344 -20.535156 378.402344 -20 L 379.203125 -19.199219 L 380 -19.199219 C 380 -20.800781 380.535156 -22.132812 381.601562 -23.199219 L 387.203125 -16.800781 L 385.601562 -16.800781 C 385.066406 -17.332031 383.734375 -17.601562 381.601562 -17.601562 C 383.203125 -15.464844 384 -13.332031 384 -11.199219 L 385.601562 -11.199219 L 385.601562 -14.398438 L 388 -15.199219 C 395.46875 -7.734375 401.601562 -4.265625 406.402344 -4.800781 C 412.800781 2.667969 418.667969 6.398438 424 6.398438 C 424.535156 5.867188 425.601562 5.601562 427.203125 5.601562 L 431.203125 7.199219 L 435.203125 0 L 434.402344 -8.800781 C 434.402344 -13.601562 435.46875 -17.066406 437.601562 -19.199219 L 435.203125 -19.199219 L 435.203125 -23.199219 C 437.335938 -25.867188 438.402344 -29.332031 438.402344 -33.601562 C 438.402344 -35.734375 438.132812 -37.332031 437.601562 -38.398438 L 437.601562 -43.199219 L 436.800781 -45.601562 L 440 -60 C 438.402344 -60 437.601562 -60.800781 437.601562 -62.398438 L 442.402344 -103.199219 L 443.203125 -103.199219 L 442.402344 -105.601562 C 443.46875 -114.667969 444.535156 -119.199219 445.601562 -119.199219 L 444.800781 -128 L 444.800781 -138.402344 C 444.800781 -138.933594 445.066406 -139.199219 445.601562 -139.199219 C 445.066406 -140.265625 444.667969 -141.066406 444.402344 -141.601562 C 444.132812 -142.132812 444 -142.667969 444 -143.199219 Z M 428.800781 -140.800781 L 427.203125 -140 L 427.203125 -139.199219 L 429.601562 -139.199219 Z M 420 -132.800781 L 423.203125 -132.800781 L 421.601562 -134.402344 C 423.734375 -135.46875 425.335938 -136 426.402344 -136 L 426.402344 -136.800781 L 424.800781 -139.199219 C 421.601562 -138.667969 420 -136.535156 420 -132.800781 Z M 409.601562 -132 L 408 -132 C 408 -129.867188 406.933594 -128.535156 404.800781 -128 L 404.800781 -127.199219 L 408 -127.199219 C 408.535156 -128.265625 408.933594 -129.066406 409.203125 -129.601562 C 409.46875 -130.132812 409.601562 -130.402344 409.601562 -130.402344 Z M 416 -127.199219 L 414.402344 -128.800781 L 412 -128.800781 L 412 -127.199219 L 415.203125 -127.199219 L 415.203125 -124.800781 L 408 -124.800781 L 408 -123.199219 C 409.066406 -122.132812 409.867188 -121.601562 410.402344 -121.601562 L 415.203125 -121.601562 C 415.203125 -123.199219 416.800781 -125.066406 420 -127.199219 C 419.46875 -128.265625 419.203125 -129.601562 419.203125 -131.199219 C 418.132812 -131.199219 417.066406 -129.867188 416 -127.199219 Z M 385.601562 -119.199219 L 384 -119.199219 L 384 -117.601562 L 385.601562 -117.601562 Z M 307.199219 -108.800781 L 310.402344 -111.199219 L 310.402344 -108.800781 C 310.402344 -107.199219 309.601562 -106.398438 308 -106.398438 Z M 411.203125 -112.800781 L 412 -111.199219 C 409.335938 -108.535156 407.203125 -107.199219 405.601562 -107.199219 L 404 -109.601562 C 406.667969 -111.734375 409.066406 -112.800781 411.203125 -112.800781 Z M 366.402344 -105.601562 L 367.199219 -100.800781 L 368 -100.800781 C 371.734375 -100.800781 375.199219 -103.734375 378.402344 -109.601562 L 376.800781 -109.601562 C 370.402344 -106.933594 366.933594 -105.601562 366.402344 -105.601562 Z M 402.402344 -101.601562 L 402.402344 -104 L 404 -104 L 404 -102.398438 Z M 376.800781 -90.398438 L 381.601562 -94.398438 L 384 -94.398438 L 384 -92 C 382.402344 -92 380.535156 -90.933594 378.402344 -88.800781 L 376.800781 -88.800781 Z M 349.601562 -88 L 347.199219 -88 L 347.199219 -86.398438 L 349.601562 -86.398438 Z M 380.800781 -85.601562 L 380.800781 -88.800781 L 382.402344 -88.800781 C 383.46875 -87.734375 384 -86.933594 384 -86.398438 Z M 336.800781 -76.800781 L 340 -76.800781 L 340 -79.199219 L 339.199219 -79.199219 C 337.601562 -78.667969 336.800781 -77.867188 336.800781 -76.800781 Z M 344.800781 -73.601562 L 341.601562 -73.601562 L 342.402344 -71.199219 L 342.402344 -69.601562 L 341.601562 -69.601562 L 334.402344 -71.199219 C 331.734375 -70.132812 330.402344 -69.066406 330.402344 -68 C 330.402344 -65.867188 331.46875 -64.800781 333.601562 -64.800781 L 333.601562 -62.398438 L 332.800781 -60.800781 C 337.601562 -62.398438 340.800781 -63.199219 342.402344 -63.199219 L 344.800781 -61.601562 C 346.933594 -62.667969 348.269531 -64.265625 348.800781 -66.398438 C 347.734375 -67.46875 347.199219 -69.332031 347.199219 -72 L 345.601562 -71.199219 L 344.800781 -71.199219 Z M 376.800781 -24.800781 L 375.199219 -24.800781 L 376 -22.398438 L 376.800781 -22.398438 Z M 388 -10.398438 L 386.402344 -10.398438 L 386.402344 -8.800781 L 388 -8.800781 Z M 388 -10.398438 "/></g></g><g style="fill:#d9d9d9;fill-opacity:1;"><g transform="translate(1044.396642, 850.124902)"><path style="stroke:none" d="M 285.601562 -682.402344 L 286.402344 -682.402344 C 296.535156 -682.402344 302.667969 -674.136719 304.800781 -657.601562 C 305.867188 -657.601562 306.933594 -654.667969 308 -648.800781 C 307.46875 -648.800781 307.199219 -648.269531 307.199219 -647.203125 L 309.601562 -646.402344 C 308.535156 -634.667969 307.734375 -624.933594 307.199219 -617.203125 C 306.667969 -609.46875 306.402344 -603.734375 306.402344 -600 L 304.800781 -600 C 305.867188 -596.800781 306.667969 -595.203125 307.199219 -595.203125 L 306.402344 -588.800781 L 306.402344 -569.601562 C 306.402344 -568 307.46875 -566.933594 309.601562 -566.402344 L 310.402344 -566.402344 C 316.269531 -574.402344 319.46875 -580 320 -583.203125 C 320 -586.933594 324.535156 -589.335938 333.601562 -590.402344 C 346.402344 -582.402344 352.800781 -575.46875 352.800781 -569.601562 C 350.667969 -554.667969 349.066406 -547.203125 348 -547.203125 L 348 -542.402344 C 349.601562 -538.136719 352 -536 355.199219 -536 L 355.199219 -534.402344 L 352.800781 -531.203125 L 352.800781 -529.601562 L 354.402344 -522.402344 C 353.867188 -516.535156 351.199219 -511.734375 346.402344 -508 L 346.402344 -507.203125 L 349.601562 -503.203125 C 346.402344 -481.867188 342.933594 -470.136719 339.199219 -468 C 332.269531 -461.066406 328.269531 -454.402344 327.199219 -448 C 327.734375 -446.933594 328 -445.601562 328 -444 C 318.402344 -438.132812 308 -429.601562 296.800781 -418.402344 C 293.601562 -415.734375 290 -412.800781 286 -409.601562 C 282 -406.402344 277.867188 -403.46875 273.601562 -400.800781 C 270.933594 -396 269.066406 -388.535156 268 -378.402344 C 266.933594 -378.402344 266.402344 -377.867188 266.402344 -376.800781 L 266.402344 -372.800781 C 266.402344 -370.667969 267.199219 -368.269531 268.800781 -365.601562 C 280.535156 -370.933594 290.402344 -375.199219 298.402344 -378.402344 C 306.402344 -381.601562 312.535156 -384 316.800781 -385.601562 C 317.867188 -385.066406 318.933594 -384.800781 320 -384.800781 C 320 -386.933594 329.867188 -390.667969 349.601562 -396 C 349.601562 -397.601562 357.867188 -399.203125 374.402344 -400.800781 C 374.402344 -403.46875 374.933594 -404.800781 376 -404.800781 L 380 -404.800781 L 383.203125 -401.601562 C 383.203125 -403.734375 383.734375 -404.800781 384.800781 -404.800781 L 391.203125 -403.203125 L 393.601562 -404.800781 C 396.269531 -404.269531 400 -402.933594 404.800781 -400.800781 C 409.601562 -398.667969 414.933594 -395.734375 420.800781 -392 C 427.734375 -388.269531 431.203125 -385.335938 431.203125 -383.203125 L 436 -384.800781 C 439.734375 -382.132812 443.335938 -379.601562 446.800781 -377.203125 C 450.269531 -374.800781 453.867188 -373.066406 457.601562 -372 L 459.203125 -365.601562 C 458.667969 -364.535156 458.402344 -363.199219 458.402344 -361.601562 C 461.066406 -360.535156 462.402344 -359.46875 462.402344 -358.402344 L 462.402344 -355.199219 C 462.402344 -352 461.335938 -349.066406 459.203125 -346.402344 C 460.800781 -346.402344 461.867188 -346.132812 462.402344 -345.601562 C 462.402344 -336.535156 457.335938 -330.132812 447.203125 -326.402344 C 447.203125 -328 446.667969 -328.800781 445.601562 -328.800781 L 442.402344 -326.402344 L 435.203125 -326.402344 C 433.601562 -326.402344 429.867188 -325.601562 424 -324 C 424 -324 422.933594 -324.535156 420.800781 -325.601562 L 416 -324 C 414.933594 -324 413.601562 -324.132812 412 -324.402344 C 410.402344 -324.667969 408.535156 -325.066406 406.402344 -325.601562 C 404.269531 -325.066406 402.402344 -324.667969 400.800781 -324.402344 C 399.203125 -324.132812 397.601562 -324 396 -324 C 394.933594 -324 391.46875 -324.800781 385.601562 -326.402344 L 384 -325.601562 C 380.269531 -327.199219 378.402344 -328.269531 378.402344 -328.800781 L 376 -328 L 372.800781 -328 C 371.734375 -328 371.199219 -328.800781 371.199219 -330.402344 L 349.601562 -328 L 349.601562 -330.402344 C 345.867188 -329.867188 341.867188 -328.535156 337.601562 -326.402344 L 336 -328 C 331.734375 -328 315.199219 -322.132812 286.402344 -310.402344 C 289.066406 -306.132812 290.667969 -304 291.199219 -304 L 289.601562 -297.601562 C 290.667969 -295.46875 291.199219 -294.402344 291.199219 -294.402344 L 289.601562 -294.402344 L 293.601562 -286.402344 C 293.601562 -284.265625 293.066406 -283.199219 292 -283.199219 L 294.402344 -252 C 297.066406 -256.265625 315.46875 -261.601562 349.601562 -268 L 355.199219 -267.199219 C 356.269531 -267.734375 357.335938 -268 358.402344 -268 C 376 -260 384.800781 -253.601562 384.800781 -248.800781 C 389.601562 -248.800781 392.269531 -246.933594 392.800781 -243.199219 L 392.800781 -241.601562 C 386.933594 -234.667969 378.132812 -228.535156 366.402344 -223.199219 C 362.667969 -223.199219 358.667969 -221.335938 354.402344 -217.601562 L 349.601562 -217.601562 C 347.46875 -217.601562 345.867188 -218.132812 344.800781 -219.199219 C 342.667969 -218.132812 341.066406 -217.601562 340 -217.601562 L 336 -223.199219 C 333.867188 -222.132812 332.800781 -221.601562 332.800781 -221.601562 C 325.335938 -221.601562 319.734375 -223.46875 316 -227.199219 L 312 -227.199219 L 298.402344 -228 C 298.402344 -227.46875 298.132812 -227.199219 297.601562 -227.199219 L 300 -204 L 297.601562 -204 L 297.601562 -201.601562 C 301.335938 -197.867188 304.535156 -190.402344 307.199219 -179.199219 C 310.933594 -179.199219 313.066406 -171.199219 313.601562 -155.199219 L 313.601562 -153.601562 C 316.269531 -153.601562 318.132812 -150.667969 319.199219 -144.800781 C 325.601562 -140.535156 333.335938 -136.535156 342.402344 -132.800781 L 354.402344 -124.800781 L 356.800781 -126.402344 C 359.46875 -123.734375 365.601562 -120.535156 375.199219 -116.800781 L 375.199219 -116 L 377.601562 -116.800781 C 388.800781 -109.867188 396.535156 -106.132812 400.800781 -105.601562 C 400.800781 -102.933594 406.402344 -100.265625 417.601562 -97.601562 C 417.601562 -93.867188 418.402344 -92 420 -92 C 420 -93.601562 420.800781 -94.398438 422.402344 -94.398438 C 423.46875 -94.398438 424.535156 -93.066406 425.601562 -90.398438 L 428 -92 C 430.667969 -90.398438 433.066406 -89.601562 435.203125 -89.601562 C 435.203125 -90.132812 435.46875 -90.398438 436 -90.398438 C 436 -87.734375 440.269531 -85.601562 448.800781 -84 L 448.800781 -83.199219 C 449.335938 -83.734375 450.402344 -84 452 -84 C 468.535156 -77.601562 476.800781 -72.535156 476.800781 -68.800781 L 480.800781 -71.199219 C 485.601562 -71.199219 497.601562 -68.800781 516.800781 -64 C 521.601562 -64 525.867188 -64.800781 529.601562 -66.398438 L 533.601562 -65.601562 C 537.335938 -65.601562 543.46875 -66.398438 552 -68 C 554.136719 -67.46875 555.734375 -67.066406 556.800781 -66.800781 C 557.867188 -66.535156 558.667969 -66.398438 559.203125 -66.398438 C 562.402344 -66.398438 572 -67.199219 588 -68.800781 L 588 -68 C 589.070312 -68.535156 590.402344 -68.800781 592 -68.800781 L 593.601562 -68 L 596 -68.800781 C 597.070312 -68.265625 598.402344 -68 600 -68 C 600 -68 600.269531 -68 600.800781 -68 C 601.335938 -68 601.867188 -68.265625 602.402344 -68.800781 C 604.535156 -68.265625 607.203125 -68 610.402344 -68 C 610.933594 -68 611.203125 -68.265625 611.203125 -68.800781 L 616.800781 -68 L 619.203125 -68 L 625.601562 -68.800781 C 626.667969 -67.734375 630.933594 -66.933594 638.402344 -66.398438 C 640.535156 -66.933594 642.402344 -67.332031 644.003906 -67.601562 C 645.601562 -67.867188 646.933594 -68 648.003906 -68 L 648.003906 -66.398438 C 648.535156 -66.398438 648.800781 -66.933594 648.800781 -68 C 656.269531 -67.46875 662.933594 -66.535156 668.800781 -65.199219 C 674.667969 -63.867188 679.46875 -62.667969 683.203125 -61.601562 L 684.800781 -63.199219 C 687.46875 -62.132812 688.800781 -61.066406 688.800781 -60 L 691.203125 -61.601562 L 692.800781 -61.601562 L 705.601562 -51.199219 C 706.667969 -51.199219 708.003906 -49.601562 709.601562 -46.398438 C 709.601562 -44.800781 709.070312 -44 708.003906 -44 C 706.9375 -44 706.402344 -44.535156 706.402344 -45.601562 L 704.003906 -44 L 698.402344 -44 L 698.402344 -42.398438 C 698.402344 -40.800781 698.933594 -40 700.003906 -40 L 699.203125 -37.601562 L 700.800781 -33.601562 L 700.800781 -32.800781 C 697.601562 -32.800781 696.003906 -30.132812 696.003906 -24.800781 L 693.601562 -24.800781 C 693.601562 -27.464844 691.203125 -29.601562 686.402344 -31.199219 C 684.269531 -29.601562 683.203125 -28 683.203125 -26.398438 L 681.601562 -27.199219 L 680.003906 -27.199219 C 680.003906 -21.332031 671.46875 -15.464844 654.402344 -9.601562 C 654.402344 -8 653.601562 -7.199219 652.003906 -7.199219 L 649.601562 -7.199219 L 646.402344 -9.601562 C 646.402344 -9.066406 644.269531 -7.199219 640.003906 -4 L 633.601562 -4.800781 C 633.601562 -3.199219 630.667969 -1.601562 624.800781 0 C 623.734375 -0.535156 622.667969 -0.800781 621.601562 -0.800781 C 621.070312 0.800781 617.335938 2.667969 610.402344 4.800781 C 607.734375 9.066406 605.867188 11.199219 604.800781 11.199219 L 603.203125 11.199219 L 601.601562 10.398438 C 597.335938 16.265625 594.136719 19.199219 592 19.199219 L 589.601562 17.601562 C 587.46875 18.667969 586.402344 19.199219 586.402344 19.199219 C 586.402344 18.132812 585.867188 17.601562 584.800781 17.601562 C 584.800781 19.199219 581.070312 22.933594 573.601562 28.800781 C 572.535156 28.265625 570.933594 28 568.800781 28 C 565.070312 31.734375 556.800781 34.667969 544 36.800781 C 540.800781 36.800781 536 38.398438 529.601562 41.601562 L 527.203125 40 C 524.535156 42.132812 522.402344 43.199219 520.800781 43.199219 L 520.800781 41.601562 L 515.203125 44 C 513.066406 43.46875 512 42.667969 512 41.601562 C 511.46875 42.132812 507.734375 42.933594 500.800781 44 C 494.933594 41.867188 489.46875 39.867188 484.402344 38 C 479.335938 36.132812 474.667969 34.132812 470.402344 32 C 465.066406 32 461.335938 29.332031 459.203125 24 L 457.601562 24.800781 C 456 23.734375 453.601562 22.398438 450.402344 20.800781 C 447.203125 19.199219 443.203125 17.867188 438.402344 16.800781 L 422.402344 6.398438 C 408 -1.601562 398.933594 -8.265625 395.203125 -13.601562 C 388.269531 -14.667969 375.734375 -21.867188 357.601562 -35.199219 L 341.601562 -45.601562 C 338.402344 -47.734375 333.335938 -51.734375 326.402344 -57.601562 C 325.867188 -57.601562 318.667969 -63.199219 304.800781 -74.398438 C 301.601562 -74.398438 291.46875 -82.132812 274.402344 -97.601562 C 271.734375 -100.265625 268 -104 263.199219 -108.800781 C 258.402344 -113.601562 253.066406 -119.734375 247.199219 -127.199219 C 245.601562 -127.734375 241.066406 -131.199219 233.601562 -137.601562 C 232 -137.601562 230.667969 -137.867188 229.601562 -138.402344 L 228.800781 -133.601562 L 228.800781 -130.402344 C 223.46875 -128.265625 220.800781 -124.265625 220.800781 -118.398438 C 222.402344 -117.867188 223.199219 -117.066406 223.199219 -116 L 221.601562 -116 L 220 -116.800781 L 218.402344 -115.199219 C 219.46875 -113.066406 220 -111.734375 220 -111.199219 C 217.335938 -103.734375 215.199219 -100 213.601562 -100 L 214.402344 -97.601562 L 214.402344 -93.601562 L 216 -93.601562 L 216 -90.398438 L 213.601562 -92 C 210.933594 -84.535156 208.535156 -80 206.402344 -78.398438 L 208 -75.199219 L 205.601562 -71.199219 C 205.601562 -69.601562 206.402344 -68.800781 208 -68.800781 L 208.800781 -68.800781 L 211.199219 -70.398438 C 211.199219 -69.332031 211.46875 -68.800781 212 -68.800781 C 211.46875 -64 208.535156 -61.601562 203.199219 -61.601562 L 202.402344 -61.601562 C 201.332031 -61.601562 200.800781 -62.132812 200.800781 -63.199219 C 189.601562 -52 183.46875 -46.398438 182.402344 -46.398438 L 181.601562 -46.398438 C 177.867188 -48.535156 176 -50.132812 176 -51.199219 C 172.265625 -50.132812 167.734375 -46.933594 162.402344 -41.601562 C 158.667969 -37.867188 153.332031 -35.199219 146.402344 -33.601562 C 146.402344 -32.535156 141.332031 -28 131.199219 -20 L 130.402344 -20 L 130.402344 -21.601562 L 131.199219 -24 L 130.402344 -24 C 129.332031 -24 128.265625 -22.667969 127.199219 -20 L 124.800781 -21.601562 L 122.398438 -21.601562 L 122.398438 -20 L 124 -17.601562 L 122.398438 -17.601562 C 121.867188 -17.601562 120.265625 -19.199219 117.601562 -22.398438 C 106.933594 -16.535156 101.601562 -11.199219 101.601562 -6.398438 C 101.066406 -5.332031 100.800781 -4 100.800781 -2.398438 L 96 -2.398438 L 96 -4 L 97.601562 -6.398438 L 94.398438 -8.800781 L 94.398438 -6.398438 C 89.601562 -8 87.199219 -9.066406 87.199219 -9.601562 L 84.800781 -8.800781 L 84 -8.800781 L 81.601562 -9.601562 C 81.601562 -7.464844 78.667969 -4.265625 72.800781 0 L 72 2.398438 L 76.800781 2.398438 L 76.800781 4 C 76.800781 5.601562 74.398438 6.933594 69.601562 8 L 68.800781 4.800781 L 69.601562 2.398438 C 69.601562 1.867188 68.265625 -0.535156 65.601562 -4.800781 L 65.601562 -6.398438 L 68 -9.601562 L 68 -11.199219 C 66.398438 -11.199219 64.800781 -12 63.199219 -13.601562 L 56 -11.199219 L 52.800781 -18.398438 C 52.800781 -19.464844 53.066406 -20 53.601562 -20 C 49.867188 -25.332031 48 -28.800781 48 -30.398438 C 48 -45.867188 51.734375 -56.800781 59.199219 -63.199219 C 60.800781 -63.199219 66.398438 -68.535156 76 -79.199219 L 76.800781 -79.199219 C 77.867188 -79.199219 78.398438 -76.535156 78.398438 -71.199219 L 81.601562 -74.398438 L 83.199219 -74.398438 L 84.800781 -72.800781 C 85.867188 -79.734375 94.132812 -88.265625 109.601562 -98.398438 C 109.601562 -101.066406 114.667969 -106.667969 124.800781 -115.199219 C 124.800781 -116.265625 131.734375 -125.867188 145.601562 -144 C 145.601562 -145.601562 148 -149.867188 152.800781 -156.800781 C 152.800781 -158.402344 154.402344 -160 157.601562 -161.601562 C 158.132812 -165.867188 162.132812 -173.332031 169.601562 -184 L 168 -186.402344 C 173.867188 -193.867188 179.734375 -212.800781 185.601562 -243.199219 L 182.402344 -243.199219 C 174.402344 -236.265625 168 -232.265625 163.199219 -231.199219 C 161.601562 -231.199219 158.667969 -233.066406 154.402344 -236.800781 C 151.734375 -236.800781 139.46875 -233.601562 117.601562 -227.199219 C 117.601562 -228.800781 117.066406 -229.601562 116 -229.601562 C 113.332031 -226.933594 111.199219 -225.601562 109.601562 -225.601562 L 107.199219 -227.199219 C 105.066406 -226.132812 103.46875 -225.601562 102.398438 -225.601562 C 101.332031 -225.601562 100.800781 -226.933594 100.800781 -229.601562 L 98.398438 -228 C 90.933594 -228 85.066406 -234.933594 80.800781 -248.800781 C 80.800781 -249.867188 80 -253.066406 78.398438 -258.402344 L 78.398438 -260 C 79.46875 -264.265625 80.265625 -266.402344 80.800781 -266.402344 L 80 -268 L 80 -269.601562 C 80 -272.800781 89.066406 -276.265625 107.199219 -280 C 109.332031 -283.199219 118.398438 -288.265625 134.402344 -295.199219 C 134.402344 -296.800781 141.066406 -300 154.402344 -304.800781 L 166.402344 -314.402344 L 172.800781 -314.402344 C 172.800781 -317.601562 193.867188 -329.601562 236 -350.402344 C 236 -351.46875 240.535156 -353.601562 249.601562 -356.800781 L 251.199219 -396 C 250.667969 -400.800781 249.335938 -403.203125 247.199219 -403.203125 L 240 -398.402344 L 236 -398.402344 C 236 -397.335938 233.867188 -395.203125 229.601562 -392 L 216.800781 -392 C 207.734375 -389.335938 202.402344 -388 200.800781 -388 C 191.734375 -390.132812 181.332031 -398.402344 169.601562 -412.800781 C 169.601562 -415.46875 166.667969 -420.535156 160.800781 -428 C 154.933594 -435.46875 152 -440.269531 152 -442.402344 C 151.46875 -450.933594 150.132812 -455.203125 148 -455.203125 L 148.800781 -457.601562 L 148.800781 -459.203125 C 148.800781 -461.335938 148.535156 -463.203125 148 -464.800781 C 148.535156 -465.335938 148.800781 -466.402344 148.800781 -468 C 147.199219 -470.667969 146.402344 -473.335938 146.402344 -476 L 146.402344 -481.601562 C 146.402344 -491.734375 152 -501.066406 163.199219 -509.601562 C 164.800781 -509.601562 166.132812 -509.066406 167.199219 -508 L 169.601562 -509.601562 C 173.332031 -509.601562 178.402344 -505.066406 184.800781 -496 L 188.800781 -496.800781 C 191.46875 -495.734375 192.800781 -494.933594 192.800781 -494.402344 C 200.265625 -495.46875 205.332031 -497.601562 208 -500.800781 C 210.132812 -499.734375 211.199219 -499.203125 211.199219 -499.203125 C 211.734375 -502.402344 217.066406 -505.867188 227.199219 -509.601562 C 228.265625 -512.269531 235.46875 -516.800781 248.800781 -523.203125 C 261.601562 -532.269531 268 -545.335938 268 -562.402344 L 268.800781 -583.203125 C 268.800781 -583.203125 268.535156 -583.203125 268 -583.203125 L 268.800781 -590.402344 L 268.800781 -609.601562 C 268.800781 -613.867188 268.800781 -618.402344 268.800781 -623.203125 C 268.800781 -628.003906 268.535156 -633.335938 268 -639.203125 L 268.800781 -642.402344 L 266.402344 -647.203125 C 266.402344 -669.601562 269.867188 -680.800781 276.800781 -680.800781 L 279.199219 -680.003906 C 281.867188 -681.601562 284 -682.402344 285.601562 -682.402344 Z M 351.199219 -531.203125 L 349.601562 -531.203125 L 349.601562 -529.601562 L 351.199219 -529.601562 Z M 576.800781 -503.203125 L 589.601562 -510.402344 C 590.136719 -510.402344 590.402344 -510.136719 590.402344 -509.601562 L 596 -510.402344 L 597.601562 -510.402344 C 610.402344 -510.402344 622.402344 -506.402344 633.601562 -498.402344 C 633.601562 -495.734375 636.800781 -492 643.203125 -487.203125 C 643.203125 -483.46875 645.867188 -481.601562 651.203125 -481.601562 L 660.003906 -472 L 660.003906 -465.601562 C 660.003906 -457.601562 655.203125 -449.867188 645.601562 -442.402344 L 646.402344 -440 L 646.402344 -437.601562 C 646.402344 -435.46875 644.535156 -434.402344 640.800781 -434.402344 L 640.800781 -433.601562 L 641.601562 -428 C 641.070312 -428 640.800781 -427.46875 640.800781 -426.402344 C 640.800781 -426.402344 636.003906 -428.535156 626.402344 -432.800781 C 626.402344 -427.46875 621.335938 -420.800781 611.203125 -412.800781 C 609.601562 -408 606.667969 -404.269531 602.402344 -401.601562 C 600.800781 -395.203125 599.46875 -392 598.402344 -392 L 597.601562 -392 L 592.800781 -396 C 590.136719 -390.667969 588 -383.734375 586.402344 -375.199219 L 584 -375.199219 L 584 -372 C 583.46875 -369.335938 583.070312 -367.066406 582.800781 -365.199219 C 582.535156 -363.335938 582.402344 -362.132812 582.402344 -361.601562 L 583.203125 -361.601562 C 588.535156 -365.867188 591.734375 -368 592.800781 -368 L 592.800781 -367.199219 L 590.402344 -363.199219 L 590.402344 -361.601562 L 592 -361.601562 C 593.070312 -362.667969 594.136719 -363.199219 595.203125 -363.199219 L 593.601562 -360.800781 L 593.601562 -359.199219 L 600 -359.199219 C 600 -360.800781 601.070312 -362.667969 603.203125 -364.800781 C 605.335938 -364.269531 606.402344 -363.199219 606.402344 -361.601562 L 603.203125 -358.402344 L 603.203125 -355.199219 L 604.800781 -355.199219 C 607.46875 -355.199219 612.269531 -354.402344 619.203125 -352.800781 L 619.203125 -350.402344 L 616 -345.601562 C 617.601562 -345.601562 618.933594 -345.066406 620 -344 L 622.402344 -345.601562 L 624.800781 -344 C 625.867188 -345.066406 627.203125 -345.601562 628.800781 -345.601562 C 629.867188 -344 630.667969 -343.199219 631.203125 -343.199219 C 630.136719 -338.933594 628.535156 -336.800781 626.402344 -336.800781 L 628.003906 -334.402344 L 628.003906 -332 C 628.003906 -326.667969 624.269531 -321.601562 616.800781 -316.800781 L 616.800781 -310.402344 C 610.402344 -298.132812 599.734375 -288.535156 584.800781 -281.601562 C 583.203125 -281.601562 579.734375 -278.933594 574.402344 -273.601562 C 572.800781 -273.601562 572 -274.402344 572 -276 L 554.402344 -264 C 543.203125 -259.734375 536.269531 -255.199219 533.601562 -250.402344 L 532.800781 -250.402344 L 532.800781 -252 C 532.800781 -252.535156 533.066406 -252.800781 533.601562 -252.800781 L 532.800781 -256 C 533.867188 -259.199219 537.066406 -260.800781 542.402344 -260.800781 L 541.601562 -267.199219 C 541.601562 -268.265625 546.136719 -274.933594 555.203125 -287.199219 L 558.402344 -291.199219 C 554.136719 -295.46875 550.402344 -297.601562 547.203125 -297.601562 L 547.203125 -304 C 541.335938 -309.867188 537.335938 -320.800781 535.203125 -336.800781 C 535.203125 -344.269531 540.800781 -362.667969 552 -392 C 556.269531 -402.667969 560.136719 -413.601562 563.601562 -424.800781 C 567.070312 -436 569.867188 -447.46875 572 -459.203125 L 569.601562 -460.800781 C 561.070312 -455.46875 556.800781 -449.066406 556.800781 -441.601562 C 554.667969 -440.535156 553.070312 -440 552 -440 L 552 -438.402344 L 554.402344 -434.402344 C 549.601562 -429.601562 547.203125 -426.402344 547.203125 -424.800781 L 547.203125 -422.402344 L 548 -422.402344 L 555.203125 -424.800781 L 555.203125 -424 L 548 -412.800781 C 549.601562 -412.269531 550.402344 -411.203125 550.402344 -409.601562 L 548.800781 -409.601562 C 547.734375 -410.667969 546.402344 -411.203125 544.800781 -411.203125 C 539.46875 -392 532.800781 -382.402344 524.800781 -382.402344 C 524.800781 -380.800781 516.535156 -378.402344 500 -375.199219 C 500 -376.269531 499.734375 -376.800781 499.203125 -376.800781 C 499.203125 -375.199219 498.402344 -374.402344 496.800781 -374.402344 C 490.933594 -374.402344 480.269531 -381.601562 464.800781 -396 C 454.667969 -402.933594 449.601562 -409.867188 449.601562 -416.800781 C 448 -416.800781 447.203125 -418.667969 447.203125 -422.402344 C 448.269531 -422.402344 448.800781 -422.933594 448.800781 -424 C 447.203125 -424 446.402344 -424.800781 446.402344 -426.402344 C 446.933594 -438.132812 448.269531 -444 450.402344 -444 L 452 -444 C 452.535156 -444 452.800781 -443.46875 452.800781 -442.402344 L 458.402344 -445.601562 L 464.800781 -444 C 474.933594 -446.132812 484.136719 -448.800781 492.402344 -452 C 500.667969 -455.203125 508 -459.46875 514.402344 -464.800781 L 532.800781 -472.800781 L 533.601562 -470.402344 C 536.800781 -471.46875 538.402344 -472.269531 538.402344 -472.800781 C 537.335938 -474.933594 536.800781 -476.269531 536.800781 -476.800781 C 546.933594 -478.402344 552 -481.335938 552 -485.601562 L 553.601562 -485.601562 L 556.800781 -483.203125 L 558.402344 -485.601562 C 557.335938 -485.601562 556.800781 -486.136719 556.800781 -487.203125 C 562.136719 -487.734375 564.800781 -489.335938 564.800781 -492 L 569.601562 -491.203125 C 570.667969 -491.203125 573.070312 -495.203125 576.800781 -503.203125 Z M 545.601562 -433.601562 L 544 -433.601562 L 542.402344 -424.800781 L 544.800781 -424 C 544.800781 -429.867188 545.066406 -433.066406 545.601562 -433.601562 Z M 632.003906 -426.402344 L 633.601562 -426.402344 L 633.601562 -424 L 631.203125 -424 C 631.203125 -422.402344 631.46875 -421.066406 632.003906 -420 C 632.003906 -417.867188 630.933594 -414.402344 628.800781 -409.601562 L 626.402344 -409.601562 L 626.402344 -411.203125 L 628.800781 -416.800781 C 628.269531 -417.335938 628.003906 -418.667969 628.003906 -420.800781 C 628.003906 -421.867188 629.335938 -423.734375 632.003906 -426.402344 Z M 636.800781 -416.800781 L 636.800781 -420.800781 L 638.402344 -420.800781 L 638.402344 -420 C 638.402344 -417.867188 637.867188 -416.800781 636.800781 -416.800781 Z M 547.203125 -405.601562 L 547.203125 -407.203125 L 548.800781 -407.203125 L 548.800781 -405.601562 Z M 660.003906 -383.203125 L 661.601562 -384.800781 L 663.203125 -382.402344 L 660.800781 -380.800781 Z M 592.800781 -379.203125 L 592.800781 -380.800781 L 595.203125 -380.800781 L 595.203125 -378.402344 C 595.203125 -373.601562 594.136719 -370.933594 592 -370.402344 L 590.402344 -372.800781 C 590.402344 -374.933594 591.46875 -376.269531 593.601562 -376.800781 Z M 664.800781 -376.800781 L 667.203125 -375.199219 L 666.402344 -372.800781 L 666.402344 -372 L 668.003906 -372 C 668.003906 -370.402344 667.46875 -369.601562 666.402344 -369.601562 L 666.402344 -370.402344 L 664.003906 -369.601562 L 663.203125 -369.601562 L 663.203125 -370.402344 C 663.203125 -371.46875 663.46875 -372 664.003906 -372 L 663.203125 -374.402344 C 663.203125 -376 663.734375 -376.800781 664.800781 -376.800781 Z M 658.402344 -372 L 658.402344 -358.402344 L 657.601562 -349.601562 L 660.003906 -348 C 661.070312 -357.066406 662.136719 -361.601562 663.203125 -361.601562 L 666.402344 -359.199219 C 666.402344 -351.734375 663.734375 -347.199219 658.402344 -345.601562 L 660.003906 -343.199219 C 658.933594 -341.066406 658.402344 -339.734375 658.402344 -339.199219 C 660.003906 -339.199219 660.800781 -340.535156 660.800781 -343.199219 L 663.203125 -343.199219 C 665.867188 -335.199219 667.203125 -330.933594 667.203125 -330.402344 L 667.203125 -325.601562 L 664.800781 -321.601562 L 664.800781 -316.800781 L 667.203125 -316.800781 L 667.203125 -314.402344 C 665.070312 -314.402344 663.734375 -311.734375 663.203125 -306.402344 C 663.734375 -305.335938 664.003906 -304 664.003906 -302.402344 C 662.933594 -301.867188 661.867188 -301.601562 660.800781 -301.601562 L 663.203125 -297.601562 C 662.136719 -295.46875 661.601562 -294.402344 661.601562 -294.402344 C 662.136719 -293.335938 662.535156 -292.535156 662.800781 -292 C 663.070312 -291.46875 663.203125 -290.933594 663.203125 -290.402344 L 664.003906 -290.402344 L 664.003906 -292.800781 C 663.46875 -293.867188 663.203125 -295.199219 663.203125 -296.800781 L 664.800781 -297.601562 L 667.203125 -296.800781 L 666.402344 -290.402344 L 666.402344 -288.800781 C 670.667969 -288.800781 672.800781 -284.535156 672.800781 -276 C 673.335938 -276 673.601562 -275.734375 673.601562 -275.199219 L 672.800781 -264 C 674.402344 -264 676.003906 -268.535156 677.601562 -277.601562 L 678.402344 -277.601562 C 678.933594 -277.601562 680.535156 -275.46875 683.203125 -271.199219 L 683.203125 -264.800781 L 681.601562 -258.402344 C 684.800781 -258.402344 686.402344 -256.265625 686.402344 -252 L 694.402344 -252.800781 L 696.003906 -250.402344 L 696.003906 -249.601562 C 696.003906 -247.46875 695.46875 -245.867188 694.402344 -244.800781 C 702.402344 -228.265625 706.402344 -216.265625 706.402344 -208.800781 L 712.800781 -192.800781 L 714.402344 -192.800781 L 716.800781 -193.601562 L 717.601562 -191.199219 L 717.601562 -182.402344 C 717.601562 -181.867188 717.734375 -180.800781 718.003906 -179.199219 C 718.269531 -177.601562 718.667969 -175.46875 719.203125 -172.800781 C 718.136719 -146.132812 714.9375 -132.800781 709.601562 -132.800781 C 709.601562 -129.066406 704.535156 -126.402344 694.402344 -124.800781 L 692.800781 -126.402344 C 688.535156 -122.667969 685.335938 -120.800781 683.203125 -120.800781 L 680.003906 -126.402344 L 678.402344 -124.800781 C 676.269531 -125.867188 675.203125 -126.402344 675.203125 -126.402344 C 672.535156 -125.332031 671.203125 -124.265625 671.203125 -123.199219 L 658.402344 -126.402344 C 657.335938 -125.332031 655.46875 -124.800781 652.800781 -124.800781 C 651.734375 -125.867188 650.667969 -126.402344 649.601562 -126.402344 C 649.601562 -124.265625 649.070312 -123.199219 648.003906 -123.199219 C 646.933594 -123.199219 646.402344 -123.734375 646.402344 -124.800781 L 644.800781 -123.199219 C 640.535156 -123.199219 632.269531 -126.933594 620 -134.402344 L 613.601562 -131.199219 C 613.601562 -132.265625 610.136719 -133.867188 603.203125 -136 L 602.402344 -136 L 598.402344 -132.800781 L 595.203125 -132.800781 C 593.601562 -132.800781 592.535156 -133.867188 592 -136 L 576.800781 -132.800781 C 573.601562 -133.867188 571.46875 -134.402344 570.402344 -134.402344 C 570.402344 -130.132812 562.933594 -127.734375 548 -127.199219 C 548 -129.332031 547.203125 -130.402344 545.601562 -130.402344 C 544.535156 -129.332031 544 -128.265625 544 -127.199219 C 536 -129.867188 532 -131.199219 532 -131.199219 C 530.933594 -130.667969 529.867188 -130.402344 528.800781 -130.402344 C 510.136719 -136.265625 500.800781 -141.066406 500.800781 -144.800781 L 499.203125 -144.800781 C 475.734375 -150.667969 464 -159.46875 464 -171.199219 C 462.402344 -171.199219 460.800781 -176.800781 459.203125 -188 C 459.203125 -191.734375 463.203125 -215.199219 471.203125 -258.402344 C 471.203125 -259.46875 470.933594 -260 470.402344 -260 L 471.203125 -266.402344 L 471.203125 -283.199219 C 472.800781 -285.867188 475.46875 -287.199219 479.203125 -287.199219 L 480.800781 -287.199219 C 484.535156 -287.199219 488.269531 -284.535156 492 -279.199219 L 492 -268 C 492 -266.933594 490.667969 -262.402344 488 -254.402344 L 488.800781 -252 C 488.800781 -239.734375 485.601562 -229.066406 479.203125 -220 L 480.800781 -217.601562 C 479.734375 -216.535156 479.203125 -214.933594 479.203125 -212.800781 C 481.867188 -212.265625 485.066406 -205.867188 488.800781 -193.601562 C 490.933594 -193.601562 492 -192.535156 492 -190.402344 C 491.46875 -189.332031 491.203125 -188 491.203125 -186.402344 C 500.800781 -180 506.933594 -176.800781 509.601562 -176.800781 C 509.601562 -175.199219 513.601562 -173.867188 521.601562 -172.800781 L 527.203125 -175.199219 C 527.203125 -172.535156 532.269531 -170.402344 542.402344 -168.800781 C 550.402344 -170.402344 559.46875 -171.199219 569.601562 -171.199219 L 572 -171.199219 C 573.601562 -171.199219 574.402344 -172 574.402344 -173.601562 L 576.800781 -172.800781 L 584 -172.800781 C 596.269531 -177.601562 602.402344 -180.800781 602.402344 -182.402344 C 618.402344 -203.199219 628.269531 -227.734375 632.003906 -256 L 636.800781 -264.800781 L 636.800781 -277.601562 C 637.867188 -297.867188 639.46875 -308 641.601562 -308 L 643.203125 -308 L 643.203125 -304.800781 L 645.601562 -304.800781 L 645.601562 -312.800781 C 646.667969 -318.667969 647.601562 -323.199219 648.402344 -326.402344 C 649.203125 -329.601562 649.601562 -331.46875 649.601562 -332 L 648.800781 -338.402344 C 650.402344 -338.402344 651.734375 -343.734375 652.800781 -354.402344 L 656.003906 -360.800781 C 655.46875 -361.867188 655.203125 -363.199219 655.203125 -364.800781 C 656.269531 -369.601562 657.335938 -372 658.402344 -372 Z M 271.199219 -324 C 271.199219 -321.867188 268 -319.46875 261.601562 -316.800781 L 259.199219 -312.800781 L 261.601562 -312 C 263.199219 -312 264 -313.066406 264 -315.199219 L 271.199219 -315.199219 C 271.199219 -317.335938 272 -319.46875 273.601562 -321.601562 C 273.601562 -323.199219 272.800781 -324 271.199219 -324 Z M 392.800781 -321.601562 L 393.601562 -319.199219 C 393.601562 -317.601562 392.800781 -316.800781 391.203125 -316.800781 L 390.402344 -316.800781 L 390.402344 -319.199219 C 390.402344 -320.800781 391.203125 -321.601562 392.800781 -321.601562 Z M 240 -308.800781 L 240 -308 C 242.667969 -306.933594 244 -305.601562 244 -304 C 247.734375 -306.667969 249.867188 -308 250.402344 -308 L 250.402344 -308.800781 C 250.402344 -310.933594 249.867188 -312 248.800781 -312 L 244 -312 C 242.402344 -309.867188 241.066406 -308.800781 240 -308.800781 Z M 238.402344 -306.402344 L 236 -306.402344 L 236 -304 C 237.601562 -304 238.402344 -304.800781 238.402344 -306.402344 Z M 671.203125 -308 L 672.800781 -308 C 672.269531 -305.867188 671.867188 -303.867188 671.601562 -302 C 671.335938 -300.132812 671.203125 -298.667969 671.203125 -297.601562 C 672.269531 -295.46875 672.800781 -294.402344 672.800781 -294.402344 L 669.601562 -294.402344 C 669.601562 -296 668.800781 -297.867188 667.203125 -300 C 669.335938 -305.335938 670.667969 -308 671.203125 -308 Z M 643.203125 -304 L 641.601562 -304 L 641.601562 -301.601562 L 643.203125 -301.601562 Z M 214.402344 -269.601562 C 216.535156 -269.601562 217.867188 -267.734375 218.402344 -264 C 223.734375 -259.199219 229.335938 -244.265625 235.199219 -219.199219 C 235.734375 -219.199219 236 -218.667969 236 -217.601562 L 233.601562 -205.601562 L 236 -205.601562 L 240 -208 C 241.066406 -208 241.867188 -204.535156 242.402344 -197.601562 L 241.601562 -197.601562 C 242.132812 -196.535156 242.402344 -195.199219 242.402344 -193.601562 L 241.601562 -191.199219 L 242.402344 -188.800781 C 241.335938 -179.734375 240.800781 -175.199219 240.800781 -175.199219 C 240.800781 -175.199219 241.734375 -174.800781 243.601562 -174 C 245.46875 -173.199219 248.265625 -172.265625 252 -171.199219 C 252 -172.265625 252.535156 -172.800781 253.601562 -172.800781 L 252 -175.199219 L 253.601562 -181.601562 L 252 -188.800781 C 254.667969 -188.800781 257.335938 -198.132812 260 -216.800781 C 260 -217.335938 259.734375 -217.601562 259.199219 -217.601562 L 260 -224 L 260 -238.402344 C 261.601562 -249.066406 262.933594 -254.402344 264 -254.402344 L 262.402344 -256.800781 L 262.402344 -258.402344 C 262.402344 -260.535156 262.535156 -262.667969 262.800781 -264.800781 C 263.066406 -266.933594 263.46875 -269.335938 264 -272 L 262.402344 -275.199219 C 263.46875 -282.132812 264.265625 -287.199219 264.800781 -290.402344 C 265.335938 -293.601562 265.601562 -295.199219 265.601562 -295.199219 C 265.066406 -298.402344 264.535156 -300 264 -300 C 243.199219 -290.933594 227.46875 -282.132812 216.800781 -273.601562 C 216.265625 -273.601562 215.46875 -272.265625 214.402344 -269.601562 Z M 679.203125 -284.800781 L 679.203125 -287.199219 L 681.601562 -287.199219 L 681.601562 -284.800781 Z M 663.203125 -273.601562 L 660.800781 -273.601562 L 660.800781 -269.601562 C 662.402344 -269.601562 663.203125 -270.402344 663.203125 -272 Z M 680.003906 -264 L 678.402344 -264 L 678.402344 -262.402344 L 680.003906 -262.402344 Z M 525.601562 -249.601562 L 525.601562 -250.402344 L 528.800781 -250.402344 L 528.800781 -249.601562 Z M 229.601562 -132.800781 L 229.601562 -134.402344 L 232 -134.402344 L 232 -132.800781 Z M 217.601562 -85.601562 L 217.601562 -89.601562 L 220 -89.601562 L 220 -88 C 220 -86.398438 219.199219 -85.601562 217.601562 -85.601562 Z M 212 -74.398438 L 212 -76.800781 L 213.601562 -76.800781 L 213.601562 -74.398438 Z M 722.402344 -38.398438 L 722.402344 -41.601562 L 723.203125 -41.601562 L 723.203125 -38.398438 Z M 712.800781 -35.199219 C 715.46875 -35.199219 716.800781 -33.867188 716.800781 -31.199219 C 718.9375 -31.734375 720.667969 -32.132812 722.003906 -32.398438 C 723.335938 -32.667969 724.535156 -32.800781 725.601562 -32.800781 C 729.335938 -32.800781 731.203125 -32 731.203125 -30.398438 C 730.667969 -29.332031 730.269531 -28.535156 730.003906 -28 C 729.734375 -27.464844 729.601562 -26.933594 729.601562 -26.398438 C 730.667969 -26.398438 731.734375 -25.066406 732.800781 -22.398438 C 732.269531 -22.398438 732.003906 -22.132812 732.003906 -21.601562 C 729.867188 -22.132812 728.800781 -22.933594 728.800781 -24 L 724.003906 -21.601562 C 721.867188 -21.601562 719.46875 -22.667969 716.800781 -24.800781 L 716.800781 -22.398438 L 716.003906 -22.398438 C 714.9375 -22.398438 713.601562 -24 712.003906 -27.199219 C 712.535156 -28.265625 712.800781 -30.132812 712.800781 -32.800781 C 712.269531 -32.800781 712.003906 -33.066406 712.003906 -33.601562 C 712.535156 -33.601562 712.800781 -34.132812 712.800781 -35.199219 Z M 703.203125 -33.601562 C 704.800781 -33.601562 705.867188 -32.535156 706.402344 -30.398438 L 704.003906 -28.800781 L 702.402344 -30.398438 C 702.933594 -31.464844 703.203125 -32.535156 703.203125 -33.601562 Z M 708.003906 -32.800781 L 708.003906 -33.601562 L 709.601562 -33.601562 L 709.601562 -32.800781 Z M 732.800781 -27.199219 L 734.402344 -28.800781 C 736.535156 -28.800781 737.601562 -28 737.601562 -26.398438 L 734.402344 -24.800781 C 733.335938 -24.800781 732.800781 -25.601562 732.800781 -27.199219 Z M 732.003906 -20 L 732.800781 -20 L 732.800781 -18.398438 C 732.800781 -16.800781 732.269531 -16 731.203125 -16 L 729.601562 -16 L 729.601562 -17.601562 C 730.667969 -19.199219 731.46875 -20 732.003906 -20 Z M 74.398438 -9.601562 L 74.398438 -8.800781 L 76 -8.800781 C 77.066406 -8.800781 77.867188 -10.398438 78.398438 -13.601562 L 77.601562 -13.601562 C 76.535156 -13.601562 75.46875 -12.265625 74.398438 -9.601562 Z M 645.601562 -4 L 645.601562 -4.800781 L 648.800781 -4.800781 L 648.800781 -4 C 648.800781 -1.867188 648.003906 -0.800781 646.402344 -0.800781 Z M 634.402344 0 L 634.402344 -2.398438 L 635.203125 -2.398438 L 635.203125 0 Z M 84 1.601562 L 84 0 L 86.398438 0 L 86.398438 1.601562 Z M 81.601562 1.601562 L 83.199219 1.601562 C 83.199219 3.199219 82.132812 4.265625 80 4.800781 L 80 4 C 80 2.398438 80.535156 1.601562 81.601562 1.601562 Z M 92 6.398438 L 92 4 L 92.800781 4 L 92.800781 6.398438 Z M 623.203125 4.800781 L 624.800781 8 L 622.402344 8.800781 L 621.601562 8.800781 L 621.601562 8 C 621.601562 5.867188 622.136719 4.800781 623.203125 4.800781 Z M 592 24.800781 L 592 24 L 593.601562 24 L 593.601562 24.800781 Z M 592 24.800781 "/></g></g></g></svg>